# Blender v2.92.0 OBJ File: 'am_m430.blend'
# www.blender.org
mtllib am_m430.mtl
o Cylinder.001
v -2.414750 -0.000000 -1.000000
v 1.210457 0.000000 -1.000000
v -2.414750 -0.382684 -0.923880
v 1.210457 -0.382683 -0.923880
v -2.414750 -0.707107 -0.707107
v 1.210457 -0.707107 -0.707107
v -2.414749 -0.923880 -0.382683
v 1.210457 -0.923879 -0.382683
v -2.414749 -1.000000 0.000000
v 1.210457 -1.000000 0.000000
v -2.414749 -0.923880 0.382684
v 1.210457 -0.923879 0.382684
v -2.414750 -0.707107 0.707107
v 1.210457 -0.707107 0.707107
v -2.414750 -0.382684 0.923880
v 1.210457 -0.382683 0.923880
v -2.414750 -0.000000 1.000000
v 1.210457 -0.000000 1.000000
v -2.414750 0.382683 0.923880
v 1.210457 0.382683 0.923880
v -2.414750 0.707106 0.707107
v 1.210457 0.707107 0.707107
v -2.414750 0.923879 0.382684
v 1.210457 0.923880 0.382684
v -2.414750 1.000000 -0.000000
v 1.210457 1.000000 -0.000000
v -2.414750 0.923879 -0.382684
v 1.210457 0.923880 -0.382684
v -2.414750 0.707106 -0.707107
v 1.210457 0.707107 -0.707107
v -2.414750 0.382683 -0.923880
v 1.210457 0.382683 -0.923880
v 1.927878 -0.000000 -0.724665
v 1.595399 -0.000000 -0.946820
v 0.811027 -0.000000 -0.946820
v 2.203206 -0.033911 -0.081868
v 1.927878 -0.277317 -0.669503
v 1.595399 -0.362333 -0.874748
v 1.203213 -0.392186 -0.946820
v 0.811027 -0.362332 -0.874748
v 2.203206 -0.062659 -0.062659
v 1.927878 -0.512416 -0.512416
v 1.595399 -0.669503 -0.669503
v 1.203213 -0.724665 -0.724665
v 0.811027 -0.669503 -0.669503
v 2.203206 -0.081868 -0.033911
v 1.927878 -0.669503 -0.277317
v 1.595399 -0.874748 -0.362332
v 1.203213 -0.946821 -0.392186
v 0.811027 -0.874748 -0.362332
v 2.203206 -0.088614 -0.000000
v 1.927878 -0.724665 -0.000000
v 1.595399 -0.946820 -0.000000
v 1.203213 -1.024831 -0.000000
v 0.811027 -0.946820 -0.000000
v 2.203206 -0.081868 0.033911
v 1.927878 -0.669503 0.277317
v 1.595399 -0.874748 0.362332
v 1.203213 -0.946820 0.392186
v 0.811027 -0.874748 0.362332
v 2.203206 -0.062659 0.062659
v 1.927878 -0.512415 0.512415
v 1.595399 -0.669503 0.669503
v 1.203213 -0.724665 0.724665
v 0.811027 -0.669503 0.669503
v 2.203206 -0.033911 0.081868
v 1.927878 -0.277317 0.669503
v 1.595399 -0.362332 0.874748
v 1.203213 -0.392186 0.946820
v 0.811027 -0.362332 0.874748
v 2.203206 -0.000000 0.088613
v 1.927878 0.000000 0.724665
v 1.595399 0.000000 0.946820
v 1.203213 0.000000 1.024831
v 0.811027 0.000000 0.946820
v 2.203206 0.033911 0.081868
v 1.927878 0.277317 0.669503
v 1.595399 0.362333 0.874748
v 1.203213 0.392186 0.946820
v 0.811028 0.362333 0.874748
v 2.203206 0.062659 0.062659
v 1.927878 0.512415 0.512415
v 1.595399 0.669503 0.669503
v 1.203213 0.724665 0.724664
v 0.811028 0.669503 0.669503
v 2.203206 0.081868 0.033911
v 1.927878 0.669503 0.277317
v 1.595399 0.874748 0.362332
v 1.203213 0.946820 0.392185
v 0.811027 0.874748 0.362332
v 2.203206 0.088613 -0.000000
v 1.927878 0.724665 -0.000000
v 1.595399 0.946820 -0.000001
v 1.203213 1.024831 -0.000001
v 0.811027 0.946820 -0.000001
v 2.203206 0.081868 -0.033911
v 1.927878 0.669503 -0.277318
v 1.595399 0.874748 -0.362333
v 1.203213 0.946820 -0.392186
v 0.811027 0.874748 -0.362333
v 2.203206 0.062659 -0.062659
v 1.927878 0.512415 -0.512416
v 1.595399 0.669503 -0.669503
v 1.203213 0.724664 -0.724665
v 0.811028 0.669503 -0.669503
v 2.203206 0.033911 -0.081868
v 1.927878 0.277317 -0.669503
v 1.595399 0.362332 -0.874748
v 1.203213 0.392185 -0.946820
v 0.811028 0.362332 -0.874748
v 2.203206 -0.000000 -0.088614
v 1.203213 -0.000001 -1.024831
v 2.150034 -0.150083 -0.362333
v 2.150034 -0.277317 -0.277317
v 2.150034 -0.362332 -0.150083
v 2.150034 -0.392186 -0.000000
v 2.150034 -0.362332 0.150083
v 2.150034 -0.277317 0.277317
v 2.150034 -0.150083 0.362332
v 2.150034 -0.000000 0.392186
v 2.150034 0.150083 0.362332
v 2.150034 0.277317 0.277317
v 2.150034 0.362332 0.150083
v 2.150034 0.392186 -0.000000
v 2.150034 0.362332 -0.150083
v 2.150034 0.277317 -0.277317
v 2.150034 0.150083 -0.362332
v 2.150034 -0.000000 -0.392186
vt 0.111694 0.116557
vt 0.152317 0.650327
vt 0.152317 0.116557
vt 0.205393 0.116557
vt 0.262843 0.650327
vt 0.262843 0.116557
vt 0.315919 0.650327
vt 0.315919 0.116557
vt 0.114767 0.653715
vt 0.169829 0.102841
vt 0.114767 0.106267
vt 0.169829 0.650288
vt 0.229427 0.102841
vt 0.229427 0.650288
vt 0.284489 0.106267
vt 0.323502 0.655349
vt 0.282823 0.120836
vt 0.323502 0.120836
vt 0.282823 0.655349
vt 0.229672 0.120836
vt 0.229672 0.655349
vt 0.172143 0.120836
vt 0.172143 0.655349
vt 0.118992 0.120836
vt 0.118992 0.655349
vt 0.078312 0.120836
vt 0.093354 0.117160
vt 0.146430 0.650930
vt 0.146430 0.117160
vt 0.203880 0.117160
vt 0.203880 0.650930
vt 0.256956 0.117160
vt 0.256956 0.650930
vt 0.297579 0.117160
vt 0.866361 0.355399
vt 0.633810 0.510785
vt 0.478423 0.278234
vt 0.273379 0.814244
vt 0.249692 0.827795
vt 0.254432 0.808696
vt 0.244632 0.835793
vt 0.255897 0.779157
vt 0.285335 0.808596
vt 0.259617 0.787911
vt 0.280117 0.793827
vt 0.267152 0.832970
vt 0.244567 0.848844
vt 0.231844 0.824205
vt 0.235175 0.804852
vt 0.228700 0.819861
vt 0.217435 0.763226
vt 0.238673 0.783654
vt 0.228498 0.845523
vt 0.217444 0.781092
vt 0.212235 0.843529
vt 0.213840 0.822049
vt 0.215641 0.802511
vt 0.185353 0.811239
vt 0.175803 0.763226
vt 0.195881 0.842856
vt 0.195748 0.821341
vt 0.195983 0.801729
vt 0.137340 0.779157
vt 0.196073 0.780230
vt 0.177667 0.822089
vt 0.176326 0.802522
vt 0.148606 0.835793
vt 0.107902 0.808595
vt 0.174697 0.781075
vt 0.179538 0.843506
vt 0.139983 0.856609
vt 0.091970 0.847058
vt 0.156787 0.804894
vt 0.153445 0.783624
vt 0.159708 0.824299
vt 0.137480 0.808842
vt 0.132438 0.787859
vt 0.163313 0.845476
vt 0.141980 0.827972
vt 0.091970 0.888690
vt 0.118499 0.814362
vt 0.148606 0.899955
vt 0.107902 0.927153
vt 0.111783 0.793750
vt 0.147318 0.848762
vt 0.124589 0.833123
vt 0.099909 0.821461
vt 0.164537 0.915887
vt 0.137340 0.956591
vt 0.091552 0.801247
vt 0.131673 0.853361
vt 0.107628 0.839791
vt 0.071757 0.810268
vt 0.116515 0.859289
vt 0.091164 0.848096
vt 0.081690 0.830180
vt 0.175803 0.972522
vt 0.063608 0.840656
vt 0.052288 0.820633
vt 0.102029 0.866610
vt 0.075194 0.858358
vt 0.185353 0.924509
vt 0.217435 0.972522
vt 0.059572 0.871336
vt 0.044632 0.853223
vt 0.207884 0.924509
vt 0.255897 0.956591
vt 0.032770 0.831854
vt 0.088509 0.875506
vt 0.335276 0.868602
vt 0.328731 0.838412
vt 0.348003 0.848900
vt 0.244632 0.899955
vt 0.285335 0.927153
vt 0.338421 0.819074
vt 0.357160 0.828254
vt 0.318465 0.886355
vt 0.317981 0.856622
vt 0.319530 0.809709
vt 0.305033 0.875639
vt 0.301174 0.847155
vt 0.310386 0.829119
vt 0.253254 0.879139
vt 0.301267 0.888690
vt 0.290677 0.866805
vt 0.284288 0.839328
vt 0.209415 0.865329
vt 0.199164 0.880671
vt 0.183822 0.870419
vt 0.292056 0.821026
vt 0.253254 0.856609
vt 0.301267 0.847058
vt 0.300119 0.801149
vt 0.260329 0.853525
vt 0.199164 0.855077
vt 0.203867 0.857026
vt 0.194073 0.855077
vt 0.207884 0.811239
vt 0.189370 0.857026
vt 0.185770 0.860625
vt 0.164537 0.819861
vt 0.183822 0.865329
vt 0.139983 0.879139
vt 0.185770 0.875123
vt 0.194073 0.880671
vt 0.189370 0.878722
vt 0.203867 0.878722
vt 0.207467 0.875123
vt 0.228700 0.915887
vt 0.209415 0.870419
vt 0.207467 0.860625
vt 0.111694 0.650327
vt 0.205393 0.650327
vt 0.284489 0.653715
vt 0.078313 0.655349
vt 0.093354 0.650930
vt 0.297579 0.650930
vt 0.710975 0.122847
vt 0.782267 0.152377
vt 0.836831 0.206942
vt 0.866361 0.278234
vt 0.836831 0.426691
vt 0.782267 0.481255
vt 0.710975 0.510785
vt 0.562518 0.481255
vt 0.507954 0.426691
vt 0.478424 0.355399
vt 0.507954 0.206942
vt 0.562518 0.152377
vt 0.633810 0.122847
vt 0.076643 0.886355
vt 0.275727 0.859489
vn 0.0000 -0.1951 -0.9808
vn 0.0000 -0.5556 -0.8315
vn 0.0000 -0.8315 -0.5556
vn 0.0000 -0.9808 -0.1951
vn 0.0000 -0.9808 0.1951
vn 0.0000 -0.8315 0.5556
vn 0.0000 -0.5556 0.8315
vn 0.0000 -0.1951 0.9808
vn 0.0000 0.1951 0.9808
vn 0.0000 0.5556 0.8315
vn -0.0000 0.8315 0.5556
vn -0.0000 0.9808 0.1951
vn -0.0000 0.9808 -0.1951
vn -0.0000 0.8315 -0.5556
vn -0.0000 0.5556 -0.8315
vn -0.0000 0.1951 -0.9808
vn -1.0000 -0.0000 -0.0000
vn 0.1915 -0.1915 -0.9626
vn 0.8264 -0.1098 -0.5522
vn -0.1915 -0.1915 -0.9626
vn 0.5481 -0.1632 -0.8203
vn 0.1915 -0.5453 -0.8161
vn 0.8264 -0.3128 -0.4681
vn -0.1915 -0.5453 -0.8161
vn 0.5481 -0.4647 -0.6954
vn -0.1915 -0.8161 -0.5453
vn 0.5481 -0.6954 -0.4647
vn 0.1915 -0.8161 -0.5453
vn 0.8264 -0.4681 -0.3128
vn 0.5481 -0.8203 -0.1632
vn 0.1915 -0.9626 -0.1915
vn 0.8264 -0.5522 -0.1098
vn -0.1915 -0.9626 -0.1915
vn 0.1915 -0.9626 0.1915
vn 0.8264 -0.5522 0.1098
vn -0.1915 -0.9626 0.1915
vn 0.5481 -0.8203 0.1632
vn 0.8264 -0.4681 0.3128
vn -0.1915 -0.8161 0.5453
vn 0.5481 -0.6954 0.4647
vn 0.1915 -0.8161 0.5453
vn -0.1915 -0.5453 0.8161
vn 0.5481 -0.4647 0.6954
vn 0.1915 -0.5453 0.8161
vn 0.8264 -0.3128 0.4681
vn 0.1915 -0.1915 0.9626
vn 0.8264 -0.1098 0.5522
vn -0.1915 -0.1915 0.9626
vn 0.5481 -0.1632 0.8203
vn 0.1915 0.1915 0.9626
vn 0.8264 0.1098 0.5522
vn -0.1915 0.1915 0.9626
vn 0.5481 0.1632 0.8203
vn -0.1915 0.5453 0.8161
vn 0.5481 0.4647 0.6954
vn 0.1915 0.5453 0.8161
vn 0.8264 0.3128 0.4681
vn -0.1915 0.8161 0.5453
vn 0.5481 0.6954 0.4647
vn 0.1915 0.8161 0.5453
vn 0.8264 0.4681 0.3128
vn 0.1915 0.9626 0.1915
vn 0.8264 0.5522 0.1098
vn -0.1915 0.9626 0.1915
vn 0.5481 0.8203 0.1632
vn 0.1915 0.9626 -0.1915
vn 0.8264 0.5522 -0.1098
vn -0.1915 0.9626 -0.1915
vn 0.5481 0.8203 -0.1632
vn -0.1915 0.8161 -0.5453
vn 0.5481 0.6954 -0.4647
vn 0.1915 0.8161 -0.5453
vn 0.8264 0.4681 -0.3128
vn 0.5481 0.4647 -0.6954
vn 1.0000 0.0000 0.0000
vn 0.1915 0.5453 -0.8161
vn 0.8264 0.3128 -0.4681
vn -0.1915 0.5453 -0.8161
vn 0.1915 0.1915 -0.9626
vn 0.8264 0.1098 -0.5522
vn -0.1915 0.1915 -0.9626
vn 0.5481 0.1632 -0.8203
vn 0.9844 -0.0977 -0.1462
vn 0.9844 -0.1462 -0.0977
vn 0.9844 -0.1724 -0.0343
vn 0.9844 -0.1724 0.0343
vn 0.9844 -0.1462 0.0977
vn 0.9844 -0.0977 0.1462
vn 0.9844 -0.0343 0.1724
vn 0.9844 0.0343 0.1724
vn 0.9844 0.0977 0.1462
vn 0.9844 0.1462 0.0977
vn 0.9844 0.1724 0.0343
vn 0.9844 0.1724 -0.0343
vn 0.9844 0.1462 -0.0977
vn 0.9844 0.0977 -0.1462
vn 0.9844 0.0343 -0.1724
vn 0.9844 -0.0343 -0.1724
usemtl Material
s off
f 1/1/1 4/2/1 3/3/1
f 4/2/2 5/4/2 3/3/2
f 5/4/3 8/5/3 7/6/3
f 7/6/4 10/7/4 9/8/4
f 10/9/5 11/10/5 9/11/5
f 12/12/6 13/13/6 11/10/6
f 14/14/7 15/15/7 13/13/7
f 16/16/8 17/17/8 15/18/8
f 18/19/9 19/20/9 17/17/9
f 20/21/10 21/22/10 19/20/10
f 22/23/11 23/24/11 21/22/11
f 24/25/12 25/26/12 23/24/12
f 25/27/13 28/28/13 27/29/13
f 28/28/14 29/30/14 27/29/14
f 30/31/15 31/32/15 29/30/15
f 32/33/16 1/34/16 31/32/16
f 7/35/17 15/36/17 23/37/17
f 112/38/18 38/39/18 39/40/18
f 128/41/19 37/42/19 33/43/19
f 112/38/20 40/44/20 35/45/20
f 34/46/21 37/47/21 38/39/21
f 39/40/22 43/48/22 44/49/22
f 113/50/23 42/51/23 37/42/23
f 39/40/24 45/52/24 40/44/24
f 38/39/25 42/53/25 43/48/25
f 44/49/26 50/54/26 45/52/26
f 43/48/27 47/55/27 48/56/27
f 43/48/28 49/57/28 44/49/28
f 42/51/29 115/58/29 47/59/29
f 48/56/30 52/60/30 53/61/30
f 48/56/31 54/62/31 49/57/31
f 115/58/32 52/63/32 47/59/32
f 50/54/33 54/62/33 55/64/33
f 54/62/34 58/65/34 59/66/34
f 52/63/35 117/67/35 57/68/35
f 54/62/36 60/69/36 55/64/36
f 53/61/37 57/70/37 58/65/37
f 57/68/38 118/71/38 62/72/38
f 60/69/39 64/73/39 65/74/39
f 57/70/40 63/75/40 58/65/40
f 59/66/41 63/75/41 64/73/41
f 65/74/42 69/76/42 70/77/42
f 62/78/43 68/79/43 63/75/43
f 63/75/44 69/76/44 64/73/44
f 118/71/45 67/80/45 62/72/45
f 68/79/46 74/81/46 69/76/46
f 67/80/47 120/82/47 72/83/47
f 69/76/48 75/84/48 70/77/48
f 67/85/49 73/86/49 68/79/49
f 73/86/50 79/87/50 74/81/50
f 72/83/51 121/88/51 77/89/51
f 74/81/52 80/90/52 75/84/52
f 72/91/53 78/92/53 73/86/53
f 79/87/54 85/93/54 80/90/54
f 77/94/55 83/95/55 78/92/55
f 78/92/56 84/96/56 79/87/56
f 121/88/57 82/97/57 77/89/57
f 85/93/58 89/98/58 90/99/58
f 82/100/59 88/101/59 83/95/59
f 83/95/60 89/98/60 84/96/60
f 122/102/61 87/103/61 82/97/61
f 89/98/62 93/104/62 94/105/62
f 123/106/63 92/107/63 87/103/63
f 89/98/64 95/108/64 90/99/64
f 87/109/65 93/104/65 88/101/65
f 93/110/66 99/111/66 94/112/66
f 92/107/67 125/113/67 97/114/67
f 94/112/68 100/115/68 95/116/68
f 92/117/69 98/118/69 93/110/69
f 99/111/70 105/119/70 100/115/70
f 97/120/71 103/121/71 98/118/71
f 98/118/72 104/122/72 99/111/72
f 97/114/73 126/123/73 102/124/73
f 102/125/74 108/126/74 103/121/74
f 106/127/75 86/128/75 66/129/75
f 103/121/76 109/130/76 104/122/76
f 102/124/77 127/131/77 107/132/77
f 104/122/78 110/133/78 105/119/78
f 109/130/79 34/46/79 112/38/79
f 127/131/80 33/43/80 107/132/80
f 109/130/81 35/45/81 110/133/81
f 108/126/82 33/134/82 34/46/82
f 41/135/83 113/50/83 36/136/83
f 46/137/84 114/138/84 41/135/84
f 51/139/85 115/58/85 46/137/85
f 56/140/86 116/141/86 51/139/86
f 61/142/87 117/67/87 56/140/87
f 66/129/88 118/71/88 61/142/88
f 66/129/89 120/82/89 119/143/89
f 71/144/90 121/88/90 120/82/90
f 81/145/91 121/88/91 76/146/91
f 81/145/92 123/106/92 122/102/92
f 91/147/93 123/106/93 86/128/93
f 96/148/94 124/149/94 91/147/94
f 101/150/95 125/113/95 96/148/95
f 101/150/96 127/131/96 126/123/96
f 111/151/97 127/131/97 106/127/97
f 36/136/98 128/41/98 111/151/98
f 1/1/1 2/152/1 4/2/1
f 4/2/2 6/153/2 5/4/2
f 5/4/3 6/153/3 8/5/3
f 7/6/4 8/5/4 10/7/4
f 10/9/5 12/12/5 11/10/5
f 12/12/6 14/14/6 13/13/6
f 14/14/7 16/154/7 15/15/7
f 16/16/8 18/19/8 17/17/8
f 18/19/9 20/21/9 19/20/9
f 20/21/10 22/23/10 21/22/10
f 22/23/11 24/25/11 23/24/11
f 24/25/12 26/155/12 25/26/12
f 25/27/13 26/156/13 28/28/13
f 28/28/14 30/31/14 29/30/14
f 30/31/15 32/33/15 31/32/15
f 32/33/16 2/157/16 1/34/16
f 31/158/17 1/159/17 3/160/17
f 3/160/17 5/161/17 31/158/17
f 5/161/17 7/35/17 31/158/17
f 7/35/17 9/162/17 11/163/17
f 11/163/17 13/164/17 7/35/17
f 13/164/17 15/36/17 7/35/17
f 15/36/17 17/165/17 23/37/17
f 17/165/17 19/166/17 23/37/17
f 19/166/17 21/167/17 23/37/17
f 23/37/17 25/168/17 27/169/17
f 27/169/17 29/170/17 31/158/17
f 23/37/17 27/169/17 31/158/17
f 31/158/17 7/35/17 23/37/17
f 112/38/18 34/46/18 38/39/18
f 128/41/19 113/50/19 37/42/19
f 112/38/20 39/40/20 40/44/20
f 34/46/21 33/134/21 37/47/21
f 39/40/22 38/39/22 43/48/22
f 113/50/23 114/138/23 42/51/23
f 39/40/24 44/49/24 45/52/24
f 38/39/25 37/47/25 42/53/25
f 44/49/26 49/57/26 50/54/26
f 43/48/27 42/53/27 47/55/27
f 43/48/28 48/56/28 49/57/28
f 42/51/29 114/138/29 115/58/29
f 48/56/30 47/55/30 52/60/30
f 48/56/31 53/61/31 54/62/31
f 115/58/32 116/141/32 52/63/32
f 50/54/33 49/57/33 54/62/33
f 54/62/34 53/61/34 58/65/34
f 52/63/35 116/141/35 117/67/35
f 54/62/36 59/66/36 60/69/36
f 53/61/37 52/60/37 57/70/37
f 57/68/38 117/67/38 118/71/38
f 60/69/39 59/66/39 64/73/39
f 57/70/40 62/78/40 63/75/40
f 59/66/41 58/65/41 63/75/41
f 65/74/42 64/73/42 69/76/42
f 62/78/43 67/85/43 68/79/43
f 63/75/44 68/79/44 69/76/44
f 118/71/45 119/143/45 67/80/45
f 68/79/46 73/86/46 74/81/46
f 67/80/47 119/143/47 120/82/47
f 69/76/48 74/81/48 75/84/48
f 67/85/49 72/91/49 73/86/49
f 73/86/50 78/92/50 79/87/50
f 72/83/51 120/82/51 121/88/51
f 74/81/52 79/87/52 80/90/52
f 72/91/53 77/94/53 78/92/53
f 79/87/54 84/96/54 85/93/54
f 77/94/55 82/100/55 83/95/55
f 78/92/56 83/95/56 84/96/56
f 121/88/57 122/102/57 82/97/57
f 85/93/58 84/96/58 89/98/58
f 82/100/59 87/109/59 88/101/59
f 83/95/60 88/101/60 89/98/60
f 122/102/61 123/106/61 87/103/61
f 89/98/62 88/101/62 93/104/62
f 123/106/63 124/149/63 92/107/63
f 89/98/64 94/105/64 95/108/64
f 87/109/65 92/171/65 93/104/65
f 93/110/66 98/118/66 99/111/66
f 92/107/67 124/149/67 125/113/67
f 94/112/68 99/111/68 100/115/68
f 92/117/69 97/120/69 98/118/69
f 99/111/70 104/122/70 105/119/70
f 97/120/71 102/125/71 103/121/71
f 98/118/72 103/121/72 104/122/72
f 97/114/73 125/113/73 126/123/73
f 102/125/74 107/172/74 108/126/74
f 46/137/75 41/135/75 36/136/75
f 36/136/75 111/151/75 46/137/75
f 111/151/75 106/127/75 46/137/75
f 106/127/75 101/150/75 96/148/75
f 96/148/75 91/147/75 106/127/75
f 91/147/75 86/128/75 106/127/75
f 86/128/75 81/145/75 66/129/75
f 81/145/75 76/146/75 66/129/75
f 76/146/75 71/144/75 66/129/75
f 66/129/75 61/142/75 56/140/75
f 56/140/75 51/139/75 66/129/75
f 51/139/75 46/137/75 66/129/75
f 46/137/75 106/127/75 66/129/75
f 103/121/76 108/126/76 109/130/76
f 102/124/77 126/123/77 127/131/77
f 104/122/78 109/130/78 110/133/78
f 109/130/79 108/126/79 34/46/79
f 127/131/80 128/41/80 33/43/80
f 109/130/81 112/38/81 35/45/81
f 108/126/82 107/172/82 33/134/82
f 41/135/83 114/138/83 113/50/83
f 46/137/84 115/58/84 114/138/84
f 51/139/85 116/141/85 115/58/85
f 56/140/86 117/67/86 116/141/86
f 61/142/87 118/71/87 117/67/87
f 66/129/88 119/143/88 118/71/88
f 66/129/89 71/144/89 120/82/89
f 71/144/90 76/146/90 121/88/90
f 81/145/91 122/102/91 121/88/91
f 81/145/92 86/128/92 123/106/92
f 91/147/93 124/149/93 123/106/93
f 96/148/94 125/113/94 124/149/94
f 101/150/95 126/123/95 125/113/95
f 101/150/96 106/127/96 127/131/96
f 111/151/97 128/41/97 127/131/97
f 36/136/98 113/50/98 128/41/98
