# Blender v2.92.0 OBJ File: 'arm_jacket_boots.blend'
# www.blender.org
mtllib arm_jacket_boots.mtl
o arm_jacket_boot.001_Cube.005
v 0.828946 -0.514476 0.695983
v 0.828946 0.751598 0.695983
v 0.828946 -0.514476 -1.304017
v 0.828946 0.404475 -0.999467
v 1.474890 -0.514476 0.695983
v 1.349879 0.751598 0.695983
v 1.474890 -0.514476 -1.304017
v 1.349879 0.404475 -0.999467
v 0.836921 -0.514476 0.695983
v 0.836921 0.751598 0.695983
v 0.836921 -0.514476 -1.304017
v 0.836921 0.404475 -0.999467
v 0.190977 -0.514476 0.695983
v 0.315988 0.751598 0.695983
v 0.190977 -0.514476 -1.304017
v 0.315988 0.404475 -0.999467
v -0.653350 -0.514476 1.037107
v -0.653350 0.751598 1.037107
v -1.072334 -0.514476 -0.918514
v -1.008533 0.404475 -0.620721
v -0.021740 -0.514476 0.901787
v -0.143977 0.751598 0.927976
v -0.440724 -0.514476 -1.053834
v -0.499160 0.404475 -0.729853
v -0.645552 -0.514476 1.035436
v -0.645552 0.751598 1.035436
v -1.064537 -0.514476 -0.920184
v -1.000736 0.404475 -0.622392
v -1.277162 -0.514476 1.170756
v -1.154925 0.751598 1.144568
v -1.696146 -0.514476 -0.784864
v -1.510109 0.404475 -0.513261
vt 0.662694 0.522192
vt 0.422759 0.079517
vt 0.662694 0.000000
vt 0.236337 0.764120
vt 0.186451 0.860628
vt 0.175343 0.780115
vt 0.996533 0.499745
vt 0.846490 0.431555
vt 0.993752 0.431555
vt 0.230835 0.890357
vt 0.154008 0.786637
vt 0.240888 0.792063
vt 0.709905 0.070268
vt 0.582561 0.007885
vt 0.710828 0.007270
vt 0.997003 0.509485
vt 0.890784 0.529294
vt 0.953229 0.459572
vt 0.662694 0.522192
vt 0.422759 0.079517
vt 0.332126 0.522192
vt 0.236337 0.764120
vt 0.186451 0.860628
vt 0.235106 0.863088
vt 0.846490 0.431555
vt 0.996533 0.499745
vt 0.993752 0.431555
vt 0.154008 0.786637
vt 0.230835 0.890357
vt 0.240888 0.792063
vt 0.582561 0.007885
vt 0.709905 0.070268
vt 0.710828 0.007270
vt 0.890784 0.529294
vt 0.997003 0.509485
vt 0.953229 0.459572
vt 0.662694 0.522192
vt 0.422759 0.079517
vt 0.662694 0.000000
vt 0.236337 0.764120
vt 0.186451 0.860628
vt 0.175343 0.780115
vt 0.996533 0.499745
vt 0.846490 0.431555
vt 0.993752 0.431555
vt 0.230835 0.890357
vt 0.154008 0.786637
vt 0.240888 0.792063
vt 0.710828 0.007270
vt 0.584406 0.060117
vt 0.582561 0.007885
vt 0.997003 0.509485
vt 0.890784 0.529294
vt 0.953229 0.459572
vt 0.662694 0.522192
vt 0.422759 0.079517
vt 0.332126 0.522192
vt 0.236337 0.764120
vt 0.186451 0.860628
vt 0.235106 0.863088
vt 0.846490 0.431555
vt 0.996533 0.499745
vt 0.993752 0.431555
vt 0.154008 0.786637
vt 0.230835 0.890357
vt 0.240888 0.792063
vt 0.582561 0.007885
vt 0.709905 0.070268
vt 0.710828 0.007270
vt 0.890784 0.529294
vt 0.997003 0.509485
vt 0.953229 0.459572
vt 0.332126 0.522192
vt 0.235106 0.863088
vt 0.870113 0.548705
vt 0.162693 0.878638
vt 0.584406 0.060117
vt 0.936632 0.557636
vt 0.662694 0.000000
vt 0.175343 0.780115
vt 0.870113 0.548705
vt 0.162693 0.878638
vt 0.584406 0.060117
vt 0.936632 0.557636
vt 0.332126 0.522192
vt 0.235106 0.863088
vt 0.870113 0.548705
vt 0.162693 0.878638
vt 0.709905 0.070268
vt 0.936632 0.557636
vt 0.662694 0.000000
vt 0.175343 0.780115
vt 0.870113 0.548705
vt 0.162693 0.878638
vt 0.584406 0.060117
vt 0.936632 0.557636
vn -1.0000 0.0000 0.0000
vn 0.0000 0.3146 -0.9492
vn 0.9909 0.1348 0.0000
vn 0.0000 0.0000 1.0000
vn 0.0000 -1.0000 0.0000
vn 0.0000 0.9797 -0.2006
vn 1.0000 0.0000 0.0000
vn -0.9909 0.1348 0.0000
vn -0.9778 0.0000 0.2095
vn -0.1989 0.3146 -0.9282
vn 0.9689 0.1348 -0.2076
vn 0.2095 -0.0000 0.9778
vn -0.0420 0.9797 -0.1961
vn 0.9778 0.0000 -0.2095
vn -0.9689 0.1348 0.2076
vn 0.9950 0.0982 -0.0201
vn -0.9950 0.0982 -0.0201
vn 0.9687 0.0982 -0.2281
vn -0.9771 0.0982 0.1888
usemtl Material
s off
f 1/1/1 4/2/1 3/3/1
f 3/4/2 8/5/2 7/6/2
f 8/7/3 5/8/3 7/9/3
f 6/10/4 1/11/4 5/12/4
f 7/13/5 1/14/5 3/15/5
f 4/16/6 6/17/6 8/18/6
f 9/19/7 12/20/7 10/21/7
f 11/22/2 16/23/2 12/24/2
f 13/25/8 16/26/8 15/27/8
f 9/28/4 14/29/4 13/30/4
f 9/31/5 15/32/5 11/33/5
f 14/34/6 12/35/6 16/36/6
f 17/37/9 20/38/9 19/39/9
f 19/40/10 24/41/10 23/42/10
f 24/43/11 21/44/11 23/45/11
f 22/46/12 17/47/12 21/48/12
f 19/49/5 21/50/5 17/51/5
f 20/52/13 22/53/13 24/54/13
f 25/55/14 28/56/14 26/57/14
f 27/58/10 32/59/10 28/60/10
f 29/61/15 32/62/15 31/63/15
f 25/64/12 30/65/12 29/66/12
f 25/67/5 31/68/5 27/69/5
f 30/70/13 28/71/13 32/72/13
f 1/1/1 2/73/1 4/2/1
f 3/4/2 4/74/2 8/5/2
f 8/7/16 6/75/16 5/8/16
f 6/10/4 2/76/4 1/11/4
f 7/13/5 5/77/5 1/14/5
f 4/16/6 2/78/6 6/17/6
f 9/19/7 11/79/7 12/20/7
f 11/22/2 15/80/2 16/23/2
f 13/25/17 14/81/17 16/26/17
f 9/28/4 10/82/4 14/29/4
f 9/31/5 13/83/5 15/32/5
f 14/34/6 10/84/6 12/35/6
f 17/37/9 18/85/9 20/38/9
f 19/40/10 20/86/10 24/41/10
f 24/43/18 22/87/18 21/44/18
f 22/46/12 18/88/12 17/47/12
f 19/49/5 23/89/5 21/50/5
f 20/52/13 18/90/13 22/53/13
f 25/55/14 27/91/14 28/56/14
f 27/58/10 31/92/10 32/59/10
f 29/61/19 30/93/19 32/62/19
f 25/64/12 26/94/12 30/65/12
f 25/67/5 29/95/5 31/68/5
f 30/70/13 26/96/13 28/71/13
