# Blender v2.92.0 OBJ File: 'arm_seva_legs.blend'
# www.blender.org
mtllib arm_seva_legs.mtl
o arm_jacket_arm_Cube.001
v -0.382147 -1.528685 -0.500000
v 0.138798 1.425738 -0.500000
v -0.382147 -1.528685 0.500000
v 0.138798 1.425738 0.500000
v -1.366954 -1.355037 -0.500000
v -0.846010 1.599386 -0.500000
v -1.366954 -1.355037 0.500000
v -0.846010 1.599386 0.500000
v -1.504861 0.529162 0.236887
v -1.229192 1.557974 0.236887
v -1.504861 0.529162 -0.236887
v -1.229192 1.557974 -0.236887
v -1.120192 0.364134 0.296733
v -0.813544 1.508558 0.296733
v -1.120192 0.364134 -0.296733
v -0.813544 1.508558 -0.296733
v -1.463464 0.456113 -0.296733
v -1.463464 0.456113 0.296733
v -1.156817 1.600538 0.296733
v -1.156817 1.600538 -0.296733
v 0.382147 -1.528685 -0.500000
v -0.138798 1.425738 -0.500000
v 0.382146 -1.528685 0.500000
v -0.138798 1.425738 0.500000
v 1.366954 -1.355037 -0.500000
v 0.846010 1.599386 -0.500000
v 1.366954 -1.355037 0.500000
v 0.846010 1.599386 0.500000
v 1.504861 0.529162 0.236887
v 1.229192 1.557974 0.236887
v 1.504861 0.529162 -0.236887
v 1.229192 1.557974 -0.236887
v 1.120192 0.364134 0.296733
v 0.813544 1.508558 0.296733
v 1.120192 0.364134 -0.296733
v 0.813544 1.508558 -0.296733
v 1.463464 0.456113 -0.296733
v 1.463464 0.456113 0.296733
v 1.156817 1.600538 0.296733
v 1.156817 1.600538 -0.296733
vt 0.400836 0.349535
vt 0.296008 0.001557
vt 0.400732 0.001502
vt 0.733720 0.344121
vt 0.619347 0.001631
vt 0.736820 0.002697
vt 0.497253 0.001985
vt 0.615400 0.344202
vt 0.618495 0.003377
vt 0.515321 0.341370
vt 0.389759 0.003309
vt 0.515321 0.003309
vt 0.743192 0.008097
vt 0.687022 0.064267
vt 0.687022 0.008097
vt 0.735536 0.013134
vt 0.686038 0.062632
vt 0.686038 0.013134
vt 0.400714 0.402598
vt 0.515109 0.481007
vt 0.515109 0.402598
vt 0.351005 0.479332
vt 0.327470 0.400872
vt 0.351005 0.400872
vt 0.303920 0.600901
vt 0.005866 0.005866
vt 0.303920 0.005866
vt 0.350895 0.479720
vt 0.327361 0.401260
vt 0.350895 0.401260
vt 0.370247 0.400165
vt 0.319760 0.484474
vt 0.319760 0.400165
vt 0.320222 0.484991
vt 0.372256 0.398098
vt 0.372256 0.484991
vt 0.521537 0.392694
vt 0.394287 0.392694
vt 0.394287 0.490911
vt 0.400714 0.481007
vt 0.521537 0.490911
vt 0.296008 0.001557
vt 0.400836 0.349535
vt 0.400732 0.001502
vt 0.619347 0.001631
vt 0.733720 0.344121
vt 0.736820 0.002697
vt 0.497253 0.001985
vt 0.615400 0.344202
vt 0.494158 0.342810
vt 0.389759 0.003309
vt 0.515321 0.341370
vt 0.515321 0.003309
vt 0.687022 0.064267
vt 0.743192 0.008097
vt 0.687022 0.008097
vt 0.686038 0.062632
vt 0.735536 0.013134
vt 0.686038 0.013134
vt 0.515109 0.481007
vt 0.400714 0.402598
vt 0.515109 0.402598
vt 0.327470 0.400872
vt 0.351005 0.479332
vt 0.351005 0.400872
vt 0.005866 0.005866
vt 0.303920 0.600901
vt 0.303920 0.005866
vt 0.350895 0.401260
vt 0.327361 0.479720
vt 0.350895 0.479720
vt 0.319760 0.484474
vt 0.370247 0.400165
vt 0.319760 0.400165
vt 0.372256 0.398098
vt 0.320222 0.484991
vt 0.372256 0.484991
vt 0.521537 0.392694
vt 0.394287 0.392694
vt 0.394287 0.490911
vt 0.400714 0.481007
vt 0.521537 0.490911
vt 0.296112 0.349591
vt 0.616247 0.343055
vt 0.494158 0.342810
vt 0.389759 0.341370
vt 0.743192 0.064267
vt 0.735536 0.062632
vt 0.327470 0.479332
vt 0.005866 0.600901
vt 0.327361 0.479720
vt 0.370247 0.484474
vt 0.320222 0.398098
vt 0.296112 0.349591
vt 0.616247 0.343055
vt 0.618495 0.003377
vt 0.389759 0.341370
vt 0.743192 0.064267
vt 0.735536 0.062632
vt 0.327470 0.479332
vt 0.005866 0.600901
vt 0.327361 0.401260
vt 0.370247 0.484474
vt 0.320222 0.398098
vn 0.9848 -0.1736 -0.0000
vn -0.0000 -0.0000 1.0000
vn -0.9848 0.1736 0.0000
vn -0.0000 0.0000 -1.0000
vn -0.1736 -0.9848 -0.0000
vn 0.1736 0.9848 0.0000
vn -0.9659 0.2588 0.0000
vn 0.9659 -0.2588 0.0000
vn -0.2588 -0.9659 0.0000
vn 0.2588 0.9659 0.0000
vn -0.8700 -0.4930 0.0000
vn -0.6885 0.1845 0.7014
vn -0.5069 0.8620 0.0000
vn -0.6885 0.1845 -0.7014
vn -0.9848 -0.1736 -0.0000
vn 0.9848 0.1736 0.0000
vn 0.1736 -0.9848 0.0000
vn -0.1736 0.9848 -0.0000
vn 0.9659 0.2588 0.0000
vn -0.9659 -0.2588 0.0000
vn 0.2588 -0.9659 0.0000
vn -0.2588 0.9659 0.0000
vn 0.8700 -0.4930 0.0000
vn 0.6885 0.1845 0.7014
vn 0.5069 0.8620 0.0000
vn 0.6885 0.1845 -0.7014
usemtl Material
s off
f 2/1/1 3/2/1 1/3/1
f 4/4/2 7/5/2 3/6/2
f 7/7/3 6/8/3 5/9/3
f 6/10/4 1/11/4 5/12/4
f 7/13/5 1/14/5 3/15/5
f 4/16/6 6/17/6 8/18/6
f 10/19/7 11/20/7 9/21/7
f 20/22/4 15/23/4 17/24/4
f 16/25/8 13/26/8 15/27/8
f 14/28/2 18/29/2 13/30/2
f 15/31/9 18/32/9 17/33/9
f 20/34/10 14/35/10 16/36/10
f 11/20/11 18/37/11 9/21/11
f 9/21/12 19/38/12 10/19/12
f 10/19/13 20/39/13 12/40/13
f 12/40/14 17/41/14 11/20/14
f 23/42/15 22/43/15 21/44/15
f 27/45/2 24/46/2 23/47/2
f 27/48/16 26/49/16 28/50/16
f 21/51/4 26/52/4 25/53/4
f 21/54/17 27/55/17 23/56/17
f 26/57/18 24/58/18 28/59/18
f 31/60/19 30/61/19 29/62/19
f 35/63/4 40/64/4 37/65/4
f 33/66/20 36/67/20 35/68/20
f 33/69/2 39/70/2 34/71/2
f 38/72/21 35/73/21 37/74/21
f 34/75/22 40/76/22 36/77/22
f 38/78/23 31/60/23 29/62/23
f 39/79/24 29/62/24 30/61/24
f 40/80/25 30/61/25 32/81/25
f 37/82/26 32/81/26 31/60/26
f 2/1/1 4/83/1 3/2/1
f 4/4/2 8/84/2 7/5/2
f 7/7/3 8/85/3 6/8/3
f 6/10/4 2/86/4 1/11/4
f 7/13/5 5/87/5 1/14/5
f 4/16/6 2/88/6 6/17/6
f 10/19/7 12/40/7 11/20/7
f 20/22/4 16/89/4 15/23/4
f 16/25/8 14/90/8 13/26/8
f 14/28/2 19/91/2 18/29/2
f 15/31/9 13/92/9 18/32/9
f 20/34/10 19/93/10 14/35/10
f 11/20/11 17/41/11 18/37/11
f 9/21/12 18/37/12 19/38/12
f 10/19/13 19/38/13 20/39/13
f 12/40/14 20/39/14 17/41/14
f 23/42/15 24/94/15 22/43/15
f 27/45/2 28/95/2 24/46/2
f 27/48/16 25/96/16 26/49/16
f 21/51/4 22/97/4 26/52/4
f 21/54/17 25/98/17 27/55/17
f 26/57/18 22/99/18 24/58/18
f 31/60/19 32/81/19 30/61/19
f 35/63/4 36/100/4 40/64/4
f 33/66/20 34/101/20 36/67/20
f 33/69/2 38/102/2 39/70/2
f 38/72/21 33/103/21 35/73/21
f 34/75/22 39/104/22 40/76/22
f 38/78/23 37/82/23 31/60/23
f 39/79/24 38/78/24 29/62/24
f 40/80/25 39/79/25 30/61/25
f 37/82/26 40/80/26 32/81/26
