# Blender v2.92.0 OBJ File: 'arm_cape.blend'
# www.blender.org
mtllib arm_cape_chest.mtl
o arm_cape_chest_Cube.001
v -0.003062 -2.076524 0.420447
v -0.003062 0.819277 0.420447
v -0.003062 0.819277 -0.648690
v 0.853605 -2.076524 0.420447
v 0.853605 0.819277 0.420447
v 0.853605 -2.076524 -0.648690
v 0.853605 0.819277 -0.648690
v 0.074952 0.819277 -0.648690
v 0.416774 -2.076524 -0.648690
v 0.337016 -0.152307 -0.648690
v 0.378794 -1.101814 -0.648690
v -0.004331 0.783521 -0.583433
v -0.004331 -2.040742 -0.583433
v 0.369435 -2.040742 -0.583433
v 0.074838 0.783521 -0.583433
v 0.300696 -0.164061 -0.583433
v 0.336702 -1.090111 -0.583433
v -0.004331 -1.367550 -0.583433
v -0.004331 -1.484735 -0.583433
v 0.346255 -1.367550 -0.583433
v 0.350290 -1.484735 -0.583433
v 0.003062 -2.076524 0.420447
v 0.003062 0.819277 0.420447
v 0.003062 0.819277 -0.648690
v -0.853605 -2.076524 0.420447
v -0.853605 0.819277 0.420447
v -0.853605 -2.076524 -0.648690
v -0.853605 0.819277 -0.648690
v -0.074952 0.819277 -0.648690
v -0.416774 -2.076524 -0.648690
v -0.337016 -0.152307 -0.648690
v -0.378794 -1.101814 -0.648690
v 0.004331 0.783521 -0.583433
v 0.004331 -2.040742 -0.583433
v -0.369435 -2.040742 -0.583433
v -0.074838 0.783521 -0.583433
v -0.300696 -0.164061 -0.583433
v -0.336702 -1.090111 -0.583433
v 0.004331 -1.367550 -0.583433
v 0.004331 -1.484735 -0.583433
v -0.346255 -1.367550 -0.583433
v -0.350290 -1.484735 -0.583433
vt 0.385409 0.349461
vt 0.402858 0.194637
vt 0.412345 0.347313
vt 0.463116 0.673443
vt 0.173070 0.006192
vt 0.463116 0.006192
vt 0.440157 0.460652
vt 0.224112 0.016314
vt 0.440158 0.016314
vt 0.175968 0.801277
vt 0.191364 0.970344
vt 0.022298 0.970344
vt 0.332946 0.170566
vt 0.345318 0.305312
vt 0.192336 0.421657
vt 0.917219 0.619614
vt 0.864903 0.642419
vt 0.863734 0.611186
vt 0.364396 0.031999
vt 0.394234 0.038099
vt 0.399278 0.129655
vt 0.454453 0.519690
vt 0.471850 0.512005
vt 0.775665 0.005891
vt 0.753154 0.038923
vt 0.753154 0.005360
vt 0.270402 0.130494
vt 0.277204 0.136823
vt 0.277204 0.195163
vt 0.003988 0.716300
vt 0.089020 0.723510
vt 0.090827 0.698979
vt 0.868269 0.716698
vt 0.865733 0.664586
vt 0.915318 0.656906
vt 0.385409 0.349461
vt 0.402858 0.194637
vt 0.374402 0.192701
vt 0.173070 0.006192
vt 0.463116 0.673443
vt 0.463116 0.006192
vt 0.224112 0.016314
vt 0.440157 0.460652
vt 0.440158 0.016314
vt 0.191364 0.970344
vt 0.191364 0.801277
vt 0.175968 0.801277
vt 0.332946 0.170566
vt 0.192336 0.015614
vt 0.192336 0.421657
vt 0.917219 0.619614
vt 0.864903 0.642419
vt 0.915649 0.650415
vt 0.399278 0.129655
vt 0.394234 0.038099
vt 0.364396 0.031999
vt 0.454453 0.519690
vt 0.412345 0.347313
vt 0.775665 0.005891
vt 0.753154 0.038923
vt 0.775665 0.038964
vt 0.270402 0.130494
vt 0.270402 0.080576
vt 0.163396 0.080715
vt 0.089020 0.723510
vt 0.003988 0.716300
vt 0.090827 0.698979
vt 0.915318 0.656906
vt 0.868269 0.716698
vt 0.909242 0.776069
vt 0.374402 0.192701
vt 0.173070 0.673443
vt 0.224112 0.460652
vt 0.022298 0.801277
vt 0.191364 0.801277
vt 0.192336 0.015614
vt 0.321698 0.032432
vt 0.422925 0.451635
vt 0.915649 0.650415
vt 0.400341 0.148952
vt 0.775665 0.038964
vt 0.163396 0.195125
vt 0.163396 0.080715
vt 0.270402 0.080576
vt 0.003170 0.740633
vt 0.865149 0.649002
vt 0.909242 0.776069
vt 0.897913 0.774284
vt 0.173070 0.673443
vt 0.224112 0.460652
vt 0.022298 0.801277
vt 0.022298 0.970344
vt 0.321698 0.032432
vt 0.422925 0.451635
vt 0.345318 0.305312
vt 0.863734 0.611186
vt 0.400341 0.148952
vt 0.471850 0.512005
vt 0.753154 0.005360
vt 0.163396 0.195125
vt 0.277204 0.195163
vt 0.277204 0.136823
vt 0.003170 0.740633
vt 0.865149 0.649002
vt 0.865733 0.664586
vt 0.897913 0.774284
vn -0.8707 -0.0339 -0.4907
vn 1.0000 0.0000 0.0000
vn 0.0000 0.0000 1.0000
vn 0.0000 1.0000 0.0000
vn -0.0000 0.0000 -1.0000
vn -0.8164 -0.0281 -0.5768
vn -0.9648 -0.2300 -0.1277
vn 0.0000 -0.8770 -0.4805
vn 0.0000 -0.8768 0.4808
vn 0.8428 -0.0371 -0.5370
vn -1.0000 0.0000 0.0000
vn 0.8164 -0.0281 -0.5768
vn 0.8336 -0.2249 -0.5045
vn 0.0000 -0.9994 -0.0356
vn -0.8428 -0.0371 -0.5370
vn -0.8424 -0.0290 -0.5381
vn -0.8321 -0.0324 -0.5537
vn -0.8336 -0.2249 -0.5045
vn -0.0737 -0.9973 0.0000
vn 0.8707 -0.0339 -0.4907
vn 0.8321 -0.0324 -0.5537
vn 0.8424 -0.0290 -0.5381
vn 0.9648 -0.2300 -0.1277
vn 0.0737 -0.9973 0.0000
usemtl Material
s off
f 10/1/1 17/2/1 16/3/1
f 7/4/2 4/5/2 6/6/2
f 5/7/3 1/8/3 4/9/3
f 8/10/4 2/11/4 5/12/4
f 11/13/5 10/14/5 7/15/5
f 13/16/5 21/17/5 14/18/5
f 9/19/6 14/20/6 21/21/6
f 8/22/7 16/3/7 15/23/7
f 3/24/8 15/25/8 12/26/8
f 14/27/9 9/28/9 6/29/9
f 19/30/5 20/31/5 21/32/5
f 16/33/5 17/34/5 18/35/5
f 31/36/10 38/37/10 32/38/10
f 25/39/11 28/40/11 27/41/11
f 22/42/3 26/43/3 25/44/3
f 23/45/4 24/46/4 29/47/4
f 32/48/5 27/49/5 28/50/5
f 34/51/5 42/52/5 40/53/5
f 42/54/12 35/55/12 30/56/12
f 29/57/13 37/58/13 31/36/13
f 24/59/8 36/60/8 29/61/8
f 35/62/14 34/63/14 22/64/14
f 41/65/5 40/66/5 42/67/5
f 39/68/5 37/69/5 33/70/5
f 10/1/15 11/71/15 17/2/15
f 7/4/2 5/72/2 4/5/2
f 5/7/3 2/73/3 1/8/3
f 5/12/4 7/74/4 8/10/4
f 8/10/4 3/75/4 2/11/4
f 6/76/5 9/77/5 11/13/5
f 10/14/5 8/78/5 7/15/5
f 6/76/5 11/13/5 7/15/5
f 13/16/5 19/79/5 21/17/5
f 17/2/16 11/71/16 20/80/16
f 11/71/17 9/19/17 21/21/17
f 20/80/16 11/71/16 21/21/16
f 8/22/18 10/1/18 16/3/18
f 3/24/8 8/81/8 15/25/8
f 6/29/19 4/82/19 14/27/19
f 4/82/14 1/83/14 14/27/14
f 1/83/14 13/84/14 14/27/14
f 19/30/5 18/85/5 20/31/5
f 17/34/5 20/86/5 18/35/5
f 18/35/5 12/87/5 16/33/5
f 12/87/5 15/88/5 16/33/5
f 31/36/20 37/58/20 38/37/20
f 25/39/11 26/89/11 28/40/11
f 22/42/3 23/90/3 26/43/3
f 29/47/4 28/91/4 26/92/4
f 26/92/4 23/45/4 29/47/4
f 32/48/5 30/93/5 27/49/5
f 28/50/5 29/94/5 31/95/5
f 31/95/5 32/48/5 28/50/5
f 34/51/5 35/96/5 42/52/5
f 30/56/21 32/38/21 42/54/21
f 32/38/22 38/37/22 41/97/22
f 42/54/22 32/38/22 41/97/22
f 29/57/23 36/98/23 37/58/23
f 24/59/8 33/99/8 36/60/8
f 22/64/14 25/100/14 35/62/14
f 25/100/24 27/101/24 35/62/24
f 27/101/9 30/102/9 35/62/9
f 41/65/5 39/103/5 40/66/5
f 39/68/5 41/104/5 38/105/5
f 38/105/5 37/69/5 39/68/5
f 37/69/5 36/106/5 33/70/5
