# Blender v2.92.0 OBJ File: 'arm_jacket.blend'
# www.blender.org
mtllib arm_jacket_chest.mtl
o arm_jacket_chest_Cube
v 0.466353 -0.103472 0.768111
v 0.999197 -2.074505 0.345094
v -0.467702 -0.103472 0.768111
v -1.000803 -2.074505 0.345095
v 0.999196 0.820182 -0.654906
v 0.999196 -2.074505 -0.654906
v -1.000804 0.820182 -0.654905
v -1.000804 -2.074505 -0.654905
v 0.685300 -1.634277 0.768111
v -0.686649 -1.634277 0.768111
v -0.000674 -0.103472 0.768111
v -0.000803 -2.074505 0.345095
v -0.000674 -1.634277 0.768111
v -0.000675 0.604420 0.345095
v -0.834440 0.604420 0.345095
v 0.833091 0.604420 0.345094
v 0.833091 -1.830372 0.345094
v -0.834440 -1.830372 0.345095
v -0.000675 -1.830372 0.345095
v -0.000804 0.820182 -0.654905
v -1.000803 0.820182 -0.154905
v -0.713739 0.604420 0.345095
v 0.861549 0.820182 -0.654906
v 0.999197 0.820182 -0.154906
v 0.718326 0.604420 0.345095
v -0.856037 0.820182 -0.654905
v -0.000803 0.820182 -0.154905
v 0.861550 0.820182 -0.154906
v -0.856037 0.820182 -0.154905
v 0.547101 0.820182 -0.654905
v -0.541889 0.820182 -0.654905
v 0.547102 0.820182 -0.154905
v -0.451813 0.604420 0.345095
v -0.541889 0.820182 -0.154905
v 0.456150 0.604420 0.345095
v -0.520782 0.680747 0.297869
v -0.686918 0.680747 0.297869
v 0.618893 0.865332 -0.517162
v 0.785311 0.865332 -0.517162
v 0.618893 0.916233 -0.154905
v 0.785311 0.916233 -0.154906
v 0.685311 0.680747 0.297869
v -0.786918 0.916233 -0.154905
v -0.786918 0.865332 -0.517162
v -0.620782 0.865332 -0.517162
v -0.620782 0.916233 -0.154905
v 0.518894 0.680747 0.297869
v 0.833091 -1.063112 0.345094
v 0.713304 -1.179818 -0.654905
v -0.714911 -1.179818 -0.654905
v -0.834440 -1.063112 0.345095
v 0.758626 -1.299350 -0.702366
v 0.758626 -1.099350 -0.702366
v 0.842677 -1.299350 0.338019
v 0.842677 -1.099350 0.338019
v -0.753036 -1.299350 -0.702366
v -0.753036 -1.099350 -0.702366
v -0.837087 -1.299350 0.338019
v -0.837087 -1.099350 0.338019
v 0.002795 -1.299350 -0.702366
v 0.002795 -1.099350 -0.702366
vt 0.741232 0.891592
vt 0.707167 0.852664
vt 0.696303 0.891592
vt 0.579145 0.378234
vt 0.505667 0.418960
vt 0.503824 0.363651
vt 0.341480 0.172517
vt 0.055762 0.014340
vt 0.389135 0.014340
vt 0.417977 0.697335
vt 0.417977 0.622646
vt 0.566912 0.622646
vt 0.239430 0.684264
vt 0.159701 0.877217
vt 0.122324 0.684264
vt 0.582832 0.417165
vt 0.497894 0.425671
vt 0.498014 0.374498
vt 0.223196 0.025661
vt 0.066706 0.066658
vt 0.035476 0.025661
vt 0.379734 0.066658
vt 0.410915 0.025661
vt 0.160350 0.877217
vt 0.240079 0.684264
vt 0.122973 0.684264
vt 0.237444 0.849769
vt 0.237703 0.951116
vt 0.144213 0.951116
vt 0.121691 0.774730
vt 0.185815 0.764897
vt 0.185608 0.806185
vt 0.118263 0.856529
vt 0.184756 0.896409
vt 0.185206 0.806676
vt 0.143483 0.849769
vt 0.091008 0.951116
vt 0.145339 0.951116
vt 0.169770 0.720911
vt 0.232025 0.683616
vt 0.232025 0.720911
vt 0.170227 0.720911
vt 0.232481 0.683616
vt 0.156814 0.683616
vt 0.402911 0.272056
vt 0.423020 0.095378
vt 0.426997 0.275493
vt 0.402060 0.449794
vt 0.377974 0.446357
vt 0.536265 0.451024
vt 0.604675 0.517090
vt 0.536216 0.517090
vt 0.593349 0.384331
vt 0.604724 0.451024
vt 0.740644 0.750254
vt 0.743666 0.620490
vt 0.753501 0.606569
vt 0.426765 0.276702
vt 0.376634 0.447409
vt 0.401966 0.451023
vt 0.422774 0.096586
vt 0.401434 0.273089
vt 0.716077 0.606569
vt 0.719928 0.620490
vt 0.479901 0.384331
vt 0.468658 0.451024
vt 0.741176 0.749259
vt 0.730945 0.852664
vt 0.468609 0.517090
vt 0.710126 0.617075
vt 0.721846 0.778345
vt 0.692481 0.778345
vt 0.721776 0.905519
vt 0.692410 0.905519
vt 0.722591 0.778345
vt 0.693246 0.905519
vt 0.722661 0.905519
vt 0.710882 0.617075
vt 0.693176 0.778345
vt 0.696247 0.749259
vt 0.707110 0.749861
vt 0.695701 0.892587
vt 0.729345 0.853659
vt 0.740587 0.892587
vt 0.745200 0.619496
vt 0.730888 0.749861
vt 0.695758 0.750254
vt 0.705607 0.853659
vt 0.716724 0.605574
vt 0.754184 0.605574
vt 0.721422 0.619496
vt 0.729402 0.750855
vt 0.705664 0.750855
vt 0.579250 0.427079
vt 0.579477 0.533236
vt 0.541362 0.547931
vt 0.584504 0.552282
vt 0.541628 0.552282
vt 0.365004 0.526107
vt 0.312640 0.526107
vt 0.578111 0.363651
vt 0.103416 0.172517
vt 0.566912 0.772024
vt 0.417977 0.772024
vt 0.239430 0.877217
vt 0.499206 0.359218
vt 0.584958 0.359218
vt 0.223220 0.066658
vt 0.240079 0.877217
vt 0.064921 0.951116
vt 0.140662 0.849769
vt 0.089934 0.951116
vt 0.185158 0.895918
vt 0.118667 0.856039
vt 0.185414 0.765389
vt 0.121290 0.775221
vt 0.240007 0.951116
vt 0.240266 0.849769
vt 0.067225 0.951116
vt 0.156358 0.683616
vt 0.232481 0.720911
vt 0.402938 0.092513
vt 0.536270 0.384331
vt 0.401653 0.093573
vt 0.739492 0.617075
vt 0.740296 0.617075
vt 0.504219 0.547931
vt 0.497632 0.536889
vt 0.055762 0.526107
vt 0.078706 0.526107
vt 0.222448 0.526107
vt 0.131120 0.526107
vt 0.389135 0.526107
vt 0.996650 0.644210
vt 0.958502 0.812018
vt 0.958502 0.644210
vt 0.625000 0.250000
vt 0.375000 0.500000
vt 0.375000 0.250000
vt 0.998045 0.628749
vt 0.957108 0.811642
vt 0.957108 0.628749
vt 0.998503 0.548390
vt 0.951692 0.739696
vt 0.951692 0.548390
vt 0.413861 0.886668
vt 0.413861 0.969459
vt 0.372465 0.969459
vt 0.413330 0.891911
vt 0.413330 0.982818
vt 0.367877 0.982818
vt 0.995278 0.809673
vt 0.957847 0.671772
vt 0.957847 0.809673
vt 0.996650 0.812018
vt 0.625000 0.500000
vt 0.998045 0.811642
vt 0.998503 0.739696
vt 0.331070 0.969459
vt 0.331070 0.886668
vt 0.322424 0.982818
vt 0.322424 0.891911
vt 0.995278 0.671772
vn -0.0000 0.9503 -0.3115
vn -0.9492 0.3033 0.0839
vn -0.0000 0.0000 -1.0000
vn 0.0000 -1.0000 -0.0000
vn 0.0000 0.0000 1.0000
vn 0.9929 0.0000 -0.1189
vn 0.0000 0.5130 0.8584
vn 0.9440 0.0000 0.3298
vn -0.7556 0.0000 0.6551
vn 0.0000 -0.9073 0.4206
vn 0.0000 0.9182 0.3962
vn 0.0000 1.0000 0.0000
vn 0.6667 0.7205 0.1908
vn 0.0000 0.5262 0.8504
vn -0.5324 0.8465 0.0000
vn 0.0000 0.8872 0.4614
vn -0.0000 0.9903 -0.1391
vn 0.7803 0.6193 -0.0870
vn -0.7938 0.5933 0.1333
vn -0.5469 0.8372 0.0000
vn 0.6887 0.5729 0.4445
vn 0.7697 0.6322 -0.0888
vn -0.7309 0.5259 0.4350
vn -0.9489 0.0000 0.3157
vn 0.9899 -0.1415 -0.0000
vn -0.8264 0.5631 0.0000
vn -0.9929 0.0000 -0.1187
vn 0.8268 0.5625 -0.0000
vn 0.9492 0.3033 0.0836
vn 0.7556 0.0000 0.6551
vn 0.8721 0.1247 0.4731
vn -0.9440 0.0000 0.3298
vn -0.8721 0.1247 0.4731
vn 0.7631 0.6268 0.1575
vn -0.7982 0.5966 -0.0838
vn 0.5096 0.8604 0.0000
vn -0.7084 0.6857 0.1670
vn -0.8090 0.5821 -0.0818
vn 0.7016 0.5569 0.4446
vn 0.4967 0.8679 -0.0000
vn -0.7309 0.5260 0.4350
vn -0.9899 -0.1415 0.0000
vn -0.9878 -0.1150 -0.1046
vn 0.9490 0.0000 0.3153
vn 0.9878 -0.1150 -0.1049
vn 0.9968 0.0000 -0.0805
vn -0.9968 0.0000 -0.0805
usemtl Material
s off
f 30/1/1 39/2/1 23/3/1
f 18/4/2 50/5/2 8/6/2
f 50/7/3 6/8/3 8/9/3
f 12/10/4 4/11/4 8/12/4
f 13/13/5 3/14/5 10/15/5
f 49/16/6 48/17/6 17/18/6
f 12/19/5 18/20/5 4/21/5
f 17/22/5 12/19/5 2/23/5
f 1/24/5 13/25/5 9/26/5
f 11/27/7 14/28/7 33/29/7
f 9/30/8 17/31/8 48/32/8
f 3/33/9 15/34/9 51/35/9
f 1/36/7 25/37/7 35/38/7
f 10/39/10 19/40/10 13/41/10
f 9/42/10 19/43/10 17/44/10
f 28/45/11 16/46/11 24/47/11
f 28/45/12 5/48/12 23/49/12
f 27/50/12 30/51/12 20/52/12
f 27/50/11 35/53/11 32/54/11
f 34/55/13 36/56/13 33/57/13
f 21/58/12 26/59/12 7/60/12
f 15/61/11 29/62/11 21/58/11
f 22/63/14 36/56/14 37/64/14
f 33/65/11 27/50/11 34/66/11
f 32/67/15 38/68/15 30/1/15
f 34/66/12 20/52/12 31/69/12
f 37/70/16 46/71/16 43/72/16
f 43/72/17 45/73/17 44/74/17
f 40/75/17 39/76/17 38/77/17
f 40/75/16 42/78/16 41/79/16
f 28/80/18 39/2/18 41/81/18
f 26/82/1 45/83/1 31/84/1
f 32/67/19 47/85/19 40/86/19
f 29/87/20 44/88/20 26/82/20
f 25/89/14 47/85/14 35/90/14
f 28/80/21 42/91/21 25/89/21
f 34/55/22 45/83/22 46/92/22
f 29/87/23 37/64/23 43/93/23
f 51/94/24 15/95/24 21/96/24
f 49/16/25 5/97/25 24/98/25
f 50/7/3 26/99/3 31/100/3
f 30/1/1 38/68/1 39/2/1
f 8/6/26 4/101/26 18/4/26
f 18/4/27 51/94/27 50/5/27
f 50/7/3 49/102/3 6/8/3
f 8/12/4 6/103/4 12/10/4
f 6/103/4 2/104/4 12/10/4
f 13/13/5 11/105/5 3/14/5
f 2/106/28 6/107/28 17/18/28
f 6/107/29 49/16/29 17/18/29
f 12/19/5 19/108/5 18/20/5
f 17/22/5 19/108/5 12/19/5
f 1/24/5 11/109/5 13/25/5
f 15/110/7 3/111/7 22/112/7
f 3/111/7 11/27/7 33/29/7
f 22/112/7 3/111/7 33/29/7
f 16/113/30 1/114/30 48/32/30
f 1/114/31 9/30/31 48/32/31
f 18/115/32 10/116/32 51/35/32
f 10/116/33 3/33/33 51/35/33
f 14/117/7 11/118/7 35/38/7
f 11/118/7 1/36/7 35/38/7
f 1/36/7 16/119/7 25/37/7
f 10/39/10 18/120/10 19/40/10
f 9/42/10 13/121/10 19/43/10
f 28/45/11 25/122/11 16/46/11
f 28/45/12 24/47/12 5/48/12
f 27/50/12 32/54/12 30/51/12
f 27/50/11 14/123/11 35/53/11
f 34/55/34 46/92/34 36/56/34
f 21/58/12 29/62/12 26/59/12
f 15/61/11 22/124/11 29/62/11
f 22/63/14 33/57/14 36/56/14
f 33/65/11 14/123/11 27/50/11
f 32/67/35 40/86/35 38/68/35
f 34/66/12 27/50/12 20/52/12
f 37/70/16 36/125/16 46/71/16
f 43/72/17 46/71/17 45/73/17
f 40/75/17 41/79/17 39/76/17
f 40/75/16 47/126/16 42/78/16
f 28/80/36 23/3/36 39/2/36
f 26/82/1 44/88/1 45/83/1
f 32/67/37 35/90/37 47/85/37
f 29/87/38 43/93/38 44/88/38
f 25/89/14 42/91/14 47/85/14
f 28/80/39 41/81/39 42/91/39
f 34/55/40 31/84/40 45/83/40
f 29/87/41 22/63/41 37/64/41
f 7/127/42 50/5/42 21/96/42
f 50/5/43 51/94/43 21/96/43
f 16/128/44 48/17/44 24/98/44
f 48/17/45 49/16/45 24/98/45
f 5/129/3 49/102/3 23/130/3
f 49/102/3 50/7/3 20/131/3
f 23/130/3 49/102/3 30/132/3
f 50/7/3 7/133/3 26/99/3
f 31/100/3 20/131/3 50/7/3
f 20/131/3 30/132/3 49/102/3
f 53/134/46 54/135/46 52/136/46
f 55/137/5 58/138/5 54/139/5
f 59/140/47 56/141/47 58/142/47
f 61/143/3 52/144/3 60/145/3
f 58/146/4 56/147/4 60/148/4
f 55/149/12 53/150/12 61/151/12
f 57/152/3 60/153/3 56/154/3
f 53/134/46 55/155/46 54/135/46
f 55/137/5 59/156/5 58/138/5
f 59/140/47 57/157/47 56/141/47
f 61/143/3 53/158/3 52/144/3
f 52/159/4 54/160/4 60/148/4
f 54/160/4 58/146/4 60/148/4
f 57/161/12 59/162/12 61/151/12
f 59/162/12 55/149/12 61/151/12
f 57/152/3 61/163/3 60/153/3
