# Blender v2.92.0 OBJ File: 'arm_cape_legs.blend'
# www.blender.org
mtllib arm_cape_legs.mtl
o arm_jacket_arm.001_Cube.002
v -0.132636 -1.537870 -0.500000
v 0.128831 1.450714 -0.500000
v -0.132636 -1.537870 0.500000
v 0.128831 1.450714 0.500000
v -1.128831 -1.450714 -0.500000
v -0.867364 1.537870 -0.500000
v -1.128831 -1.450714 0.500000
v -0.867364 1.537870 0.500000
v 1.128831 -1.450714 -0.500000
v 0.867364 1.537870 -0.500000
v 1.128831 -1.450714 0.500000
v 0.867364 1.537870 0.500000
v 0.132636 -1.537870 -0.500000
v -0.128831 1.450714 -0.500000
v 0.132636 -1.537870 0.500000
v -0.128831 1.450714 0.500000
vt 0.979095 0.578124
vt 0.887758 0.272058
vt 0.979004 0.272009
vt 0.841004 0.579195
vt 0.757621 0.268949
vt 0.861894 0.276137
vt 0.884277 0.575414
vt 0.985956 0.253231
vt 0.886808 0.251910
vt 0.726046 0.578763
vt 0.671735 0.281486
vt 0.775347 0.299797
vt 0.795866 0.703776
vt 0.712154 0.787488
vt 0.712154 0.703776
vt 0.784456 0.711283
vt 0.710688 0.785051
vt 0.710688 0.711283
vt 0.981309 0.586710
vt 0.882742 0.256416
vt 0.981211 0.256364
vt 0.841004 0.579195
vt 0.757621 0.268949
vt 0.861894 0.276137
vt 0.889180 0.567656
vt 0.983400 0.269107
vt 0.891525 0.267882
vt 0.775347 0.299797
vt 0.622433 0.560451
vt 0.671735 0.281486
vt 0.712154 0.703776
vt 0.795866 0.787488
vt 0.712154 0.787488
vt 0.784456 0.711283
vt 0.710688 0.785051
vt 0.710688 0.711283
vt 0.887848 0.578172
vt 0.736731 0.572008
vt 0.983425 0.576735
vt 0.622433 0.560451
vt 0.795866 0.787488
vt 0.784456 0.785051
vt 0.882839 0.586762
vt 0.736731 0.572008
vt 0.981055 0.568881
vt 0.726046 0.578763
vt 0.795866 0.703776
vt 0.784456 0.785051
vn 0.9962 -0.0872 -0.0000
vn -0.0000 -0.0000 1.0000
vn -0.9962 0.0872 0.0000
vn -0.0000 0.0000 -1.0000
vn -0.0872 -0.9962 -0.0000
vn 0.0872 0.9962 0.0000
vn 0.9962 0.0872 0.0000
vn -0.9962 -0.0872 0.0000
vn 0.0872 -0.9962 0.0000
vn -0.0872 0.9962 0.0000
usemtl Material
s off
f 2/1/1 3/2/1 1/3/1
f 4/4/2 7/5/2 3/6/2
f 8/7/3 5/8/3 7/9/3
f 6/10/4 1/11/4 5/12/4
f 7/13/5 1/14/5 3/15/5
f 4/16/6 6/17/6 8/18/6
f 10/19/7 11/20/7 9/21/7
f 12/22/2 15/23/2 11/24/2
f 16/25/8 13/26/8 15/27/8
f 13/28/4 10/29/4 9/30/4
f 11/31/9 13/32/9 9/33/9
f 12/34/10 14/35/10 16/36/10
f 2/1/1 4/37/1 3/2/1
f 4/4/2 8/38/2 7/5/2
f 8/7/3 6/39/3 5/8/3
f 6/10/4 2/40/4 1/11/4
f 7/13/5 5/41/5 1/14/5
f 4/16/6 2/42/6 6/17/6
f 10/19/7 12/43/7 11/20/7
f 12/22/2 16/44/2 15/23/2
f 16/25/8 14/45/8 13/26/8
f 13/28/4 14/46/4 10/29/4
f 11/31/9 15/47/9 13/32/9
f 12/34/10 10/48/10 14/35/10
