# Blender v2.92.0 OBJ File: 'art_box_1.blend'
# www.blender.org
mtllib art_box_1.mtl
o Cube
v -0.198957 1.100000 -0.900000
v -0.198957 -1.100000 -0.900000
v -0.198957 1.100000 0.900000
v -0.198957 -1.100000 0.900000
v -1.998957 1.100000 -0.900000
v -1.998957 -1.100000 -0.900000
v -1.998957 1.100000 0.900000
v -1.998957 -1.100000 0.900000
v -2.198956 -0.900000 -0.900000
v -2.198956 -0.900000 0.900000
v 0.001043 -0.900000 -0.900000
v 0.001043 0.900000 0.900000
v -2.198956 0.900000 0.900000
v 0.001043 0.900000 -0.900000
v 0.001043 -0.900000 0.900000
v -2.198956 0.900000 -0.900000
v -1.998957 -0.900000 -1.100000
v -1.998957 -0.900000 1.100000
v -0.198957 0.900000 -1.100000
v -0.198957 -0.900000 -1.100000
v -1.998957 0.900000 1.100000
v -0.198957 0.900000 1.100000
v -0.198957 -0.900000 1.100000
v -1.998957 0.900000 -1.100000
v -0.098957 -1.000000 -1.000000
v -2.098957 -1.000000 -1.000000
v -0.098957 1.000000 -1.000000
v -2.098957 -1.000000 1.000000
v -2.098957 1.000000 1.000000
v -0.098957 1.000000 1.000000
v -0.098957 -1.000000 1.000000
v -2.098957 1.000000 -1.000000
v 1.996967 1.100000 -0.900000
v 1.996967 -1.100000 -0.900000
v 1.996967 1.100000 0.900000
v 1.996967 -1.100000 0.900000
v 0.196967 1.100000 -0.900000
v 0.196967 -1.100000 -0.900000
v 0.196967 1.100000 0.900000
v 0.196967 -1.100000 0.900000
v -0.003033 -0.900000 -0.900000
v -0.003033 -0.900000 0.900000
v 2.196967 -0.900000 -0.900000
v 2.196967 0.900000 0.900000
v -0.003033 0.900000 0.900000
v 2.196967 0.900000 -0.900000
v 2.196967 -0.900000 0.900000
v -0.003033 0.900000 -0.900000
v 0.196967 -0.900000 -1.100000
v 0.196967 -0.900000 1.100000
v 1.996967 0.900000 -1.100000
v 1.996967 -0.900000 -1.100000
v 0.196967 0.900000 1.100000
v 1.996967 0.900000 1.100000
v 1.996967 -0.900000 1.100000
v 0.196967 0.900000 -1.100000
v 2.096967 -1.000000 -1.000000
v 0.096967 -1.000000 -1.000000
v 2.096967 1.000000 -1.000000
v 0.096967 -1.000000 1.000000
v 0.096967 1.000000 1.000000
v 2.096967 1.000000 1.000000
v 2.096967 -1.000000 1.000000
v 0.096967 1.000000 -1.000000
vt 0.463512 0.467521
vt 0.023606 0.027615
vt 0.463512 0.027615
vt 0.463512 0.968989
vt 0.023606 0.529083
vt 0.463512 0.529083
vt 0.463512 0.467521
vt 0.023606 0.027615
vt 0.463512 0.027615
vt 0.023606 0.027615
vt 0.463512 0.467521
vt 0.023606 0.467521
vt 0.463512 0.467521
vt 0.023606 0.027615
vt 0.463512 0.027615
vt 0.463512 0.968989
vt 0.023606 0.529083
vt 0.463512 0.529083
vt 0.513407 0.769281
vt 0.513407 0.219000
vt 0.599875 0.219000
vt 0.599874 0.219000
vt 0.599875 0.769281
vt 0.513407 0.219000
vt 0.599875 0.219000
vt 0.599875 0.769281
vt 0.513407 0.769281
vt 0.599875 0.219000
vt 0.599875 0.769281
vt 0.513407 0.769281
vt 0.513407 0.769281
vt 0.513407 0.219000
vt 0.599874 0.219000
vt 0.513407 0.769281
vt 0.513407 0.219000
vt 0.599875 0.219000
vt 0.599875 0.219000
vt 0.599875 0.769281
vt 0.513407 0.769281
vt 0.513407 0.769281
vt 0.513407 0.219000
vt 0.599875 0.219000
vt 0.513407 0.769281
vt 0.513407 0.219000
vt 0.599875 0.769281
vt 0.599875 0.219000
vt 0.599875 0.769281
vt 0.513407 0.769281
vt 0.513407 0.769281
vt 0.513407 0.219000
vt 0.599875 0.219000
vt 0.599875 0.219000
vt 0.599874 0.769281
vt 0.513407 0.769281
vt 0.463512 0.467521
vt 0.023606 0.027615
vt 0.463512 0.027615
vt 0.463512 0.968989
vt 0.023606 0.529083
vt 0.463512 0.529083
vt 0.463512 0.467521
vt 0.023606 0.027615
vt 0.463512 0.027615
vt 0.023606 0.027615
vt 0.463512 0.467521
vt 0.023606 0.467521
vt 0.463512 0.467521
vt 0.023606 0.027615
vt 0.463512 0.027615
vt 0.463512 0.968989
vt 0.023606 0.529083
vt 0.463512 0.529083
vt 0.513407 0.769281
vt 0.513407 0.219000
vt 0.599875 0.219000
vt 0.599874 0.219000
vt 0.599875 0.769281
vt 0.513407 0.219000
vt 0.599875 0.219000
vt 0.599875 0.769281
vt 0.513407 0.769281
vt 0.599875 0.219000
vt 0.599875 0.769281
vt 0.513406 0.219000
vt 0.513407 0.769281
vt 0.513407 0.219000
vt 0.599874 0.219000
vt 0.513407 0.769281
vt 0.513407 0.219000
vt 0.599875 0.769281
vt 0.599875 0.219000
vt 0.599875 0.769281
vt 0.513407 0.769281
vt 0.513407 0.769281
vt 0.513407 0.219000
vt 0.599875 0.219000
vt 0.513407 0.769281
vt 0.513407 0.219000
vt 0.599875 0.769281
vt 0.599875 0.219000
vt 0.599875 0.769281
vt 0.513407 0.769281
vt 0.513407 0.769281
vt 0.513407 0.219000
vt 0.599875 0.219000
vt 0.599875 0.219000
vt 0.599874 0.769281
vt 0.513407 0.769281
vt 0.023606 0.467521
vt 0.023606 0.968989
vt 0.023606 0.467521
vt 0.463512 0.027615
vt 0.023606 0.467521
vt 0.023606 0.968989
vt 0.556641 0.188429
vt 0.599875 0.769281
vt 0.556641 0.799852
vt 0.556641 0.799852
vt 0.513407 0.769281
vt 0.556641 0.188429
vt 0.556640 0.799852
vt 0.513407 0.219000
vt 0.556641 0.799852
vt 0.513406 0.219000
vt 0.556640 0.188429
vt 0.599875 0.769281
vt 0.556641 0.188429
vt 0.599875 0.769281
vt 0.556641 0.799852
vt 0.513407 0.219000
vt 0.556640 0.188429
vt 0.599875 0.769281
vt 0.556641 0.188429
vt 0.599875 0.219000
vt 0.556641 0.799852
vt 0.513407 0.219000
vt 0.556641 0.188429
vt 0.599875 0.769281
vt 0.556641 0.799852
vt 0.513407 0.219000
vt 0.023606 0.467521
vt 0.023606 0.968989
vt 0.023606 0.467521
vt 0.463512 0.027615
vt 0.023606 0.467521
vt 0.023606 0.968989
vt 0.556641 0.188429
vt 0.599875 0.769281
vt 0.556641 0.799852
vt 0.556641 0.799852
vt 0.513407 0.769281
vt 0.556641 0.188429
vt 0.556640 0.799852
vt 0.513407 0.219000
vt 0.556641 0.799852
vt 0.513407 0.769281
vt 0.556640 0.188429
vt 0.599875 0.769281
vt 0.556641 0.188429
vt 0.599875 0.219000
vt 0.556641 0.799852
vt 0.513407 0.219000
vt 0.556640 0.188429
vt 0.599875 0.769281
vt 0.556641 0.188429
vt 0.599875 0.219000
vt 0.556641 0.799852
vt 0.513407 0.219000
vt 0.556641 0.188429
vt 0.599875 0.769281
vt 0.556641 0.799852
vt 0.513407 0.219000
vn 0.0000 1.0000 0.0000
vn 0.0000 0.0000 1.0000
vn -1.0000 0.0000 0.0000
vn 0.0000 -1.0000 0.0000
vn 1.0000 0.0000 0.0000
vn 0.0000 0.0000 -1.0000
vn 0.7071 0.0000 -0.7071
vn -0.7071 0.0000 0.7071
vn 0.0000 0.7071 -0.7071
vn -0.7071 -0.7071 0.0000
vn 0.0000 0.7071 0.7071
vn -0.7071 0.7071 0.0000
vn 0.7071 0.0000 0.7071
vn 0.7071 -0.7071 0.0000
vn -0.7071 0.0000 -0.7071
vn 0.0000 -0.7071 0.7071
vn 0.0000 -0.7071 -0.7071
vn 0.7071 0.7071 0.0000
usemtl Material
s off
f 5/1/1 3/2/1 1/3/1
f 22/4/2 18/5/2 23/6/2
f 13/7/3 9/8/3 10/9/3
f 2/10/4 8/11/4 6/12/4
f 14/13/5 15/14/5 11/15/5
f 24/16/6 20/17/6 17/18/6
f 20/19/7 19/20/7 14/21/7
f 18/22/8 21/23/8 10/24/8
f 19/25/9 24/26/9 5/27/9
f 10/28/10 9/29/10 6/30/10
f 21/31/11 22/32/11 3/33/11
f 16/34/12 13/35/12 7/36/12
f 22/37/13 23/38/13 15/39/13
f 11/40/14 15/41/14 4/42/14
f 24/43/15 17/44/15 16/45/15
f 23/46/16 18/47/16 8/48/16
f 17/49/17 20/50/17 2/51/17
f 12/52/18 14/53/18 1/54/18
f 37/55/1 35/56/1 33/57/1
f 54/58/2 50/59/2 55/60/2
f 45/61/3 41/62/3 42/63/3
f 34/64/4 40/65/4 38/66/4
f 46/67/5 47/68/5 43/69/5
f 56/70/6 52/71/6 49/72/6
f 52/73/7 51/74/7 46/75/7
f 50/76/8 53/77/8 42/78/8
f 51/79/9 56/80/9 37/81/9
f 42/82/10 41/83/10 40/84/10
f 53/85/11 54/86/11 35/87/11
f 48/88/12 45/89/12 37/90/12
f 54/91/13 55/92/13 47/93/13
f 43/94/14 47/95/14 36/96/14
f 56/97/15 49/98/15 48/99/15
f 55/100/16 50/101/16 40/102/16
f 49/103/17 52/104/17 34/105/17
f 44/106/18 46/107/18 33/108/18
f 5/1/1 7/109/1 3/2/1
f 22/4/2 21/110/2 18/5/2
f 13/7/3 16/111/3 9/8/3
f 2/10/4 4/112/4 8/11/4
f 14/13/5 12/113/5 15/14/5
f 24/16/6 19/114/6 20/17/6
f 27/115/7 14/21/7 19/20/7
f 14/21/7 11/116/7 20/19/7
f 11/116/7 25/117/7 20/19/7
f 29/118/8 13/119/8 21/23/8
f 13/119/8 10/24/8 21/23/8
f 10/24/8 28/120/8 18/22/8
f 32/121/9 5/27/9 24/26/9
f 5/27/9 1/122/9 19/25/9
f 1/122/9 27/115/9 19/25/9
f 26/123/10 6/30/10 9/29/10
f 6/30/10 8/124/10 10/28/10
f 8/124/10 28/120/10 10/28/10
f 30/125/11 3/33/11 22/32/11
f 3/33/11 7/126/11 21/31/11
f 7/126/11 29/118/11 21/31/11
f 29/127/12 7/36/12 13/35/12
f 7/36/12 5/128/12 16/34/12
f 5/128/12 32/121/12 16/34/12
f 31/129/13 15/39/13 23/38/13
f 15/39/13 12/130/13 22/37/13
f 12/130/13 30/125/13 22/37/13
f 31/131/14 4/42/14 15/41/14
f 4/42/14 2/132/14 11/40/14
f 2/132/14 25/117/14 11/40/14
f 26/133/15 9/134/15 17/44/15
f 9/134/15 16/45/15 17/44/15
f 16/45/15 32/121/15 24/43/15
f 28/135/16 8/48/16 18/47/16
f 8/48/16 4/136/16 23/46/16
f 4/136/16 31/131/16 23/46/16
f 25/137/17 2/51/17 20/50/17
f 2/51/17 6/138/17 17/49/17
f 6/138/17 26/123/17 17/49/17
f 27/139/18 1/54/18 14/53/18
f 1/54/18 3/140/18 12/52/18
f 3/140/18 30/125/18 12/52/18
f 37/55/1 39/141/1 35/56/1
f 54/58/2 53/142/2 50/59/2
f 45/61/3 48/143/3 41/62/3
f 34/64/4 36/144/4 40/65/4
f 46/67/5 44/145/5 47/68/5
f 56/70/6 51/146/6 52/71/6
f 59/147/7 46/75/7 51/74/7
f 46/75/7 43/148/7 52/73/7
f 43/148/7 57/149/7 52/73/7
f 61/150/8 45/151/8 53/77/8
f 45/151/8 42/78/8 53/77/8
f 42/78/8 60/152/8 50/76/8
f 64/153/9 37/81/9 56/80/9
f 37/81/9 33/154/9 51/79/9
f 33/154/9 59/147/9 51/79/9
f 58/155/10 38/156/10 41/83/10
f 38/156/10 40/84/10 41/83/10
f 40/84/10 60/152/10 42/82/10
f 62/157/11 35/87/11 54/86/11
f 35/87/11 39/158/11 53/85/11
f 39/158/11 61/150/11 53/85/11
f 61/159/12 39/160/12 45/89/12
f 39/160/12 37/90/12 45/89/12
f 37/90/12 64/153/12 48/88/12
f 63/161/13 47/93/13 55/92/13
f 47/93/13 44/162/13 54/91/13
f 44/162/13 62/157/13 54/91/13
f 63/163/14 36/96/14 47/95/14
f 36/96/14 34/164/14 43/94/14
f 34/164/14 57/149/14 43/94/14
f 58/165/15 41/166/15 49/98/15
f 41/166/15 48/99/15 49/98/15
f 48/99/15 64/153/15 56/97/15
f 60/167/16 40/102/16 50/101/16
f 40/102/16 36/168/16 55/100/16
f 36/168/16 63/163/16 55/100/16
f 57/169/17 34/105/17 52/104/17
f 34/105/17 38/170/17 49/103/17
f 38/170/17 58/155/17 49/103/17
f 59/171/18 33/108/18 46/107/18
f 33/108/18 35/172/18 44/106/18
f 35/172/18 62/157/18 44/106/18
o Cylinder
v -0.000847 2.198756 -0.132195
v 0.955330 2.198756 -0.132195
v -0.000847 2.105281 -0.093476
v 0.955330 2.105281 -0.093476
v -0.000847 2.066562 0.000000
v 0.955330 2.066562 -0.000000
v -0.000847 2.105281 0.093476
v 0.955330 2.105281 0.093476
v -0.000847 2.198756 0.132195
v 0.955330 2.198756 0.132195
v -0.000847 2.292232 0.093476
v 0.955330 2.292232 0.093476
v -0.000847 2.330951 0.000000
v 0.955330 2.330951 -0.000000
v -0.000847 2.292232 -0.093476
v 0.955330 2.292232 -0.093476
v 1.086489 2.026077 -0.078025
v 1.141661 2.081249 -0.110344
v 1.063636 2.003224 -0.000000
v 1.086489 2.026077 0.078025
v 1.141661 2.081249 0.110344
v 1.196833 2.136420 0.078025
v 1.219686 2.159273 -0.000000
v 1.196833 2.136420 -0.078025
v 1.147865 1.921844 -0.085981
v 1.233846 1.921844 -0.121596
v 1.112250 1.921844 0.000000
v 1.147865 1.921844 0.085981
v 1.233846 1.921844 0.121596
v 1.319827 1.921844 0.085981
v 1.355442 1.921844 0.000000
v 1.319827 1.921844 -0.085981
v 1.147865 1.066902 -0.085981
v 1.233846 1.066902 -0.121596
v 1.112251 1.066902 -0.000000
v 1.147865 1.066902 0.085981
v 1.233846 1.066902 0.121596
v 1.319828 1.066902 0.085981
v 1.355442 1.066902 -0.000000
v 1.319828 1.066902 -0.085981
v 0.000847 2.198756 -0.132195
v -0.955330 2.198756 -0.132195
v 0.000847 2.105281 -0.093476
v -0.955330 2.105281 -0.093476
v 0.000847 2.066562 0.000000
v -0.955330 2.066562 -0.000000
v 0.000847 2.105281 0.093476
v -0.955330 2.105281 0.093476
v 0.000847 2.198756 0.132195
v -0.955330 2.198756 0.132195
v 0.000847 2.292232 0.093476
v -0.955330 2.292232 0.093476
v 0.000847 2.330951 0.000000
v -0.955330 2.330951 -0.000000
v 0.000847 2.292232 -0.093476
v -0.955330 2.292232 -0.093476
v -1.086489 2.026077 -0.078025
v -1.141661 2.081249 -0.110344
v -1.063636 2.003224 -0.000000
v -1.086489 2.026077 0.078025
v -1.141661 2.081249 0.110344
v -1.196833 2.136420 0.078025
v -1.219686 2.159273 -0.000000
v -1.196833 2.136420 -0.078025
v -1.147865 1.921844 -0.085981
v -1.233846 1.921844 -0.121596
v -1.112250 1.921844 0.000000
v -1.147865 1.921844 0.085981
v -1.233846 1.921844 0.121596
v -1.319827 1.921844 0.085981
v -1.355442 1.921844 0.000000
v -1.319827 1.921844 -0.085981
v -1.147865 1.066902 -0.085981
v -1.233846 1.066902 -0.121596
v -1.112251 1.066902 -0.000000
v -1.147865 1.066902 0.085981
v -1.233846 1.066902 0.121596
v -1.319828 1.066902 0.085981
v -1.355442 1.066902 -0.000000
v -1.319828 1.066902 -0.085981
vt 0.629232 0.732168
vt 0.793411 0.613572
vt 0.793411 0.732167
vt 0.629232 0.613572
vt 0.793411 0.494976
vt 0.629232 0.494977
vt 0.793411 0.376381
vt 0.629232 0.376381
vt 0.793411 0.257786
vt 0.629232 0.257786
vt 0.793411 0.139190
vt 0.629232 0.020594
vt 0.793410 0.020596
vt 0.716623 0.855090
vt 0.772902 0.801921
vt 0.776973 0.843133
vt 0.629232 0.969359
vt 0.793411 0.850763
vt 0.793411 0.969359
vt 0.629232 0.850763
vt 0.838714 0.679706
vt 0.838714 0.740497
vt 0.795729 0.783482
vt 0.769482 0.767434
vt 0.695472 0.814531
vt 0.669267 0.771255
vt 0.746523 0.777232
vt 0.648766 0.735138
vt 0.768631 0.741296
vt 0.668267 0.769301
vt 0.783219 0.719803
vt 0.776474 0.760662
vt 0.697742 0.809210
vt 0.705401 0.850188
vt 0.657540 0.804972
vt 0.721457 0.811171
vt 0.645980 0.700031
vt 0.777424 0.700031
vt 0.654503 0.769886
vt 0.642270 0.727044
vt 0.786496 0.678520
vt 0.858532 0.797443
vt 0.838707 0.021937
vt 0.858532 0.021937
vt 0.673346 0.805505
vt 0.712916 0.844203
vt 0.673540 0.840722
vt 0.655663 0.701487
vt 0.762343 0.739589
vt 0.659198 0.736526
vt 0.779784 0.722696
vt 0.645325 0.726688
vt 0.761341 0.812617
vt 0.709758 0.863064
vt 0.667101 0.770846
vt 0.723875 0.806974
vt 0.743976 0.773777
vt 0.784392 0.677018
vt 0.635715 0.677018
vt 0.702672 0.486872
vt 0.742212 0.447333
vt 0.798128 0.582327
vt 0.957656 0.797443
vt 0.977480 0.021937
vt 0.977481 0.797442
vt 0.918006 0.797443
vt 0.937831 0.021937
vt 0.937831 0.797443
vt 0.878357 0.797443
vt 0.898181 0.021937
vt 0.898182 0.797443
vt 0.818882 0.797443
vt 0.838707 0.797443
vt 0.957655 0.021937
vt 0.918006 0.021937
vt 0.878357 0.021937
vt 0.793411 0.613572
vt 0.629232 0.732168
vt 0.793411 0.732167
vt 0.793411 0.494976
vt 0.629232 0.613572
vt 0.793411 0.376381
vt 0.629232 0.494977
vt 0.793411 0.257786
vt 0.629232 0.376381
vt 0.793411 0.139190
vt 0.629232 0.257786
vt 0.629232 0.020594
vt 0.629232 0.139190
vt 0.716623 0.855090
vt 0.772902 0.801921
vt 0.697742 0.809210
vt 0.793411 0.850763
vt 0.629232 0.969359
vt 0.793411 0.969359
vt 0.629232 0.850763
vt 0.691953 0.679706
vt 0.691953 0.740496
vt 0.838714 0.679706
vt 0.769482 0.767434
vt 0.695472 0.814531
vt 0.761341 0.812617
vt 0.648766 0.735138
vt 0.746523 0.777232
vt 0.768631 0.741296
vt 0.668267 0.769301
vt 0.783219 0.719803
vt 0.642270 0.727044
vt 0.776474 0.760662
vt 0.657540 0.804972
vt 0.705401 0.850188
vt 0.721457 0.811171
vt 0.645980 0.700031
vt 0.777424 0.700031
vt 0.654503 0.769886
vt 0.786496 0.678520
vt 0.631930 0.678520
vt 0.858532 0.797443
vt 0.838707 0.021937
vt 0.838707 0.797443
vt 0.712916 0.844203
vt 0.673346 0.805505
vt 0.673540 0.840722
vt 0.762343 0.739589
vt 0.655663 0.701487
vt 0.659198 0.736526
vt 0.779784 0.722696
vt 0.669267 0.771255
vt 0.709758 0.863064
vt 0.761088 0.858526
vt 0.723875 0.806974
vt 0.667101 0.770846
vt 0.743976 0.773777
vt 0.784392 0.677018
vt 0.645325 0.726688
vt 0.702672 0.542788
vt 0.798128 0.582327
vt 0.837667 0.486872
vt 0.977480 0.021937
vt 0.957656 0.797443
vt 0.977481 0.797442
vt 0.937831 0.021937
vt 0.918006 0.797443
vt 0.937831 0.797443
vt 0.898181 0.021937
vt 0.878357 0.797443
vt 0.898182 0.797443
vt 0.818882 0.797443
vt 0.957655 0.021937
vt 0.918006 0.021937
vt 0.878357 0.021937
vt 0.629232 0.139190
vt 0.734938 0.783482
vt 0.691953 0.740496
vt 0.691953 0.679706
vt 0.734938 0.636721
vt 0.795729 0.636721
vt 0.654078 0.840019
vt 0.631930 0.678520
vt 0.769714 0.701487
vt 0.761088 0.858526
vt 0.798128 0.447333
vt 0.837667 0.486872
vt 0.837667 0.542789
vt 0.742212 0.582327
vt 0.702672 0.542788
vt 0.818882 0.021937
vt 0.793410 0.020596
vt 0.776973 0.843133
vt 0.734938 0.783482
vt 0.795729 0.783482
vt 0.838714 0.740497
vt 0.795729 0.636721
vt 0.734938 0.636721
vt 0.654078 0.840019
vt 0.858532 0.021937
vt 0.769714 0.701487
vt 0.635715 0.677018
vt 0.798128 0.447333
vt 0.742212 0.447333
vt 0.702672 0.486872
vt 0.742212 0.582327
vt 0.837667 0.542789
vt 0.818882 0.021937
vn -0.0000 -0.3827 -0.9239
vn 0.0000 -0.9239 -0.3827
vn 0.0000 -0.9239 0.3827
vn 0.0000 -0.3827 0.9239
vn 0.0000 0.3827 0.9239
vn 0.0000 0.9239 0.3827
vn -0.4686 -0.8013 -0.3719
vn -0.0000 0.9239 -0.3827
vn -0.0000 0.3827 -0.9239
vn -1.0000 -0.0000 0.0000
vn -0.3781 -0.1542 0.9128
vn 0.2926 0.3659 0.8834
vn 0.2757 0.2654 -0.9239
vn -0.1335 -0.3981 -0.9076
vn -0.4563 -0.8221 0.3405
vn 0.5145 0.7922 0.3281
vn -0.1318 -0.3793 0.9158
vn 0.5191 0.7672 -0.3767
vn 0.3827 0.0000 -0.9239
vn -0.7966 -0.4759 -0.3727
vn 0.7992 0.4719 -0.3723
vn 0.3709 0.2458 0.8955
vn -0.8214 -0.4577 0.3402
vn -0.3801 -0.1542 -0.9120
vn 0.3013 0.2394 -0.9230
vn 0.8169 0.4671 0.3384
vn 0.0000 -1.0000 0.0000
vn 0.9239 0.0000 0.3827
vn -0.3827 -0.0000 0.9239
vn -0.9239 -0.0000 -0.3827
vn 0.9239 0.0000 -0.3827
vn 0.3827 -0.0000 0.9239
vn -0.9239 -0.0000 0.3827
vn -0.3827 0.0000 -0.9239
vn 0.4563 -0.8221 -0.3405
vn 1.0000 -0.0000 0.0000
vn 0.3801 -0.1542 0.9120
vn -0.2926 0.3659 0.8834
vn -0.2926 0.3659 -0.8834
vn 0.1318 -0.3793 -0.9158
vn 0.4563 -0.8221 0.3405
vn -0.5145 0.7922 0.3281
vn 0.1318 -0.3793 0.9158
vn -0.5145 0.7922 -0.3281
vn 0.7966 -0.4759 -0.3727
vn -0.7992 0.4719 -0.3723
vn -0.3013 0.2394 0.9230
vn 0.7966 -0.4759 0.3727
vn 0.3801 -0.1542 -0.9120
vn -0.3013 0.2394 -0.9230
vn -0.7992 0.4719 0.3723
vn -0.4563 -0.8221 -0.3405
vn -0.3801 -0.1542 0.9120
vn 0.2757 0.2654 0.9239
vn 0.2926 0.3659 -0.8834
vn -0.1318 -0.3793 -0.9158
vn -0.4686 -0.8013 0.3719
vn 0.5191 0.7672 0.3768
vn -0.1335 -0.3981 0.9076
vn 0.5145 0.7922 -0.3281
vn -0.8214 -0.4577 -0.3402
vn 0.8169 0.4671 -0.3384
vn 0.3013 0.2394 0.9230
vn -0.7966 -0.4759 0.3727
vn -0.3781 -0.1542 -0.9128
vn 0.3709 0.2458 -0.8955
vn 0.7992 0.4719 0.3723
vn 0.4686 -0.8013 -0.3719
vn 0.3781 -0.1542 0.9128
vn -0.2757 0.2654 0.9239
vn -0.2757 0.2654 -0.9239
vn 0.1335 -0.3981 -0.9076
vn 0.4686 -0.8013 0.3719
vn -0.5191 0.7672 0.3768
vn 0.1335 -0.3981 0.9076
vn -0.5191 0.7672 -0.3767
vn 0.8214 -0.4577 -0.3402
vn -0.8169 0.4671 -0.3384
vn -0.3709 0.2458 0.8955
vn 0.8214 -0.4577 0.3402
vn 0.3781 -0.1542 -0.9128
vn -0.3709 0.2458 -0.8955
vn -0.8169 0.4671 0.3384
usemtl Material
s off
f 66/173/19 67/174/19 65/175/19
f 68/176/20 69/177/20 67/174/20
f 70/178/21 71/179/21 69/177/21
f 72/180/22 73/181/22 71/179/22
f 74/182/23 75/183/23 73/181/23
f 75/183/24 78/184/24 77/185/24
f 70/186/25 81/187/25 83/188/25
f 78/189/26 79/190/26 77/191/26
f 80/192/27 65/175/27 79/190/27
f 75/193/28 77/194/28 79/195/28
f 85/196/29 92/197/29 93/198/29
f 74/199/30 86/200/30 76/201/30
f 66/202/31 88/203/31 82/204/31
f 68/205/32 82/204/32 81/187/32
f 70/206/33 84/207/33 72/208/33
f 76/201/34 87/209/34 78/210/34
f 72/208/35 85/211/35 74/199/35
f 80/212/36 87/213/36 88/203/36
f 90/214/37 104/215/37 98/216/37
f 81/217/38 91/218/38 83/219/38
f 87/220/39 96/221/39 88/222/39
f 86/223/40 93/198/40 94/224/40
f 84/225/41 91/226/41 92/197/41
f 82/227/42 89/228/42 81/217/42
f 88/222/43 90/229/43 82/227/43
f 87/230/44 94/224/44 95/231/44
f 100/232/45 99/233/45 103/234/45
f 94/235/46 103/236/46 95/237/46
f 92/238/47 101/239/47 93/240/47
f 89/241/48 99/242/48 91/243/48
f 95/244/49 104/215/49 96/245/49
f 93/240/50 102/246/50 94/235/50
f 91/243/51 100/247/51 92/238/51
f 90/214/52 97/248/52 89/241/52
f 107/249/19 106/250/19 105/251/19
f 109/252/20 108/253/20 107/249/20
f 111/254/21 110/255/21 109/252/21
f 113/256/22 112/257/22 111/254/22
f 115/258/23 114/259/23 113/256/23
f 115/258/24 118/260/24 116/261/24
f 110/262/53 121/263/53 108/264/53
f 119/265/26 118/266/26 117/267/26
f 105/251/27 120/268/27 119/265/27
f 109/269/54 107/270/54 115/271/54
f 125/272/55 132/273/55 124/274/55
f 126/275/56 114/276/56 116/277/56
f 106/278/57 128/279/57 120/280/57
f 108/264/58 122/281/58 106/278/58
f 124/282/59 110/283/59 112/284/59
f 127/285/60 116/277/60 118/286/60
f 125/287/61 112/284/61 114/276/61
f 120/280/62 127/288/62 118/289/62
f 130/290/52 144/291/52 136/292/52
f 131/293/63 121/294/63 123/295/63
f 136/296/64 127/297/64 128/298/64
f 126/299/65 133/300/65 125/272/65
f 124/274/66 131/301/66 123/302/66
f 129/303/67 122/304/67 121/294/67
f 130/305/68 128/298/68 122/304/68
f 127/306/69 134/307/69 126/299/69
f 141/308/45 143/309/45 138/310/45
f 143/311/51 134/312/51 135/313/51
f 141/314/50 132/315/50 133/316/50
f 139/317/49 129/318/49 131/319/49
f 144/291/48 135/320/48 136/292/48
f 142/321/47 133/316/47 134/312/47
f 140/322/46 131/319/46 132/315/46
f 137/323/37 130/290/37 129/318/37
f 66/173/19 68/176/19 67/174/19
f 68/176/20 70/178/20 69/177/20
f 70/178/21 72/180/21 71/179/21
f 72/180/22 74/182/22 73/181/22
f 74/182/23 76/324/23 75/183/23
f 75/183/24 76/324/24 78/184/24
f 70/186/70 68/205/70 81/187/70
f 78/189/26 80/192/26 79/190/26
f 80/192/27 66/173/27 65/175/27
f 79/195/28 65/325/28 67/326/28
f 67/326/28 69/327/28 79/195/28
f 69/327/28 71/328/28 79/195/28
f 71/328/28 73/329/28 79/195/28
f 73/329/28 75/193/28 79/195/28
f 85/196/71 84/225/71 92/197/71
f 74/199/72 85/211/72 86/200/72
f 66/202/73 80/212/73 88/203/73
f 68/205/74 66/202/74 82/204/74
f 70/206/75 83/330/75 84/207/75
f 76/201/76 86/200/76 87/209/76
f 72/208/77 84/207/77 85/211/77
f 80/212/78 78/331/78 87/213/78
f 90/214/37 96/245/37 104/215/37
f 81/217/79 89/228/79 91/218/79
f 87/220/80 95/332/80 96/221/80
f 86/223/81 85/196/81 93/198/81
f 84/225/82 83/333/82 91/226/82
f 82/227/83 90/229/83 89/228/83
f 88/222/84 96/221/84 90/229/84
f 87/230/85 86/223/85 94/224/85
f 99/233/45 97/334/45 103/234/45
f 97/334/45 98/335/45 103/234/45
f 98/335/45 104/336/45 103/234/45
f 103/234/45 102/337/45 101/338/45
f 101/338/45 100/232/45 103/234/45
f 94/235/46 102/246/46 103/236/46
f 92/238/47 100/247/47 101/239/47
f 89/241/48 97/248/48 99/242/48
f 95/244/49 103/339/49 104/215/49
f 93/240/50 101/239/50 102/246/50
f 91/243/51 99/242/51 100/247/51
f 90/214/52 98/216/52 97/248/52
f 107/249/19 108/253/19 106/250/19
f 109/252/20 110/255/20 108/253/20
f 111/254/21 112/257/21 110/255/21
f 113/256/22 114/259/22 112/257/22
f 115/258/23 116/261/23 114/259/23
f 115/258/24 117/340/24 118/260/24
f 110/262/86 123/341/86 121/263/86
f 119/265/26 120/268/26 118/266/26
f 105/251/27 106/250/27 120/268/27
f 107/270/54 105/342/54 115/271/54
f 105/342/54 119/343/54 115/271/54
f 119/343/54 117/344/54 115/271/54
f 115/271/54 113/345/54 111/346/54
f 111/346/54 109/269/54 115/271/54
f 125/272/87 133/300/87 132/273/87
f 126/275/88 125/287/88 114/276/88
f 106/278/89 122/281/89 128/279/89
f 108/264/90 121/263/90 122/281/90
f 124/282/91 123/347/91 110/283/91
f 127/285/92 126/275/92 116/277/92
f 125/287/93 124/282/93 112/284/93
f 120/280/94 128/279/94 127/288/94
f 130/290/52 138/348/52 144/291/52
f 131/293/95 129/303/95 121/294/95
f 136/296/96 135/349/96 127/297/96
f 126/299/97 134/307/97 133/300/97
f 124/274/98 132/273/98 131/301/98
f 129/303/99 130/305/99 122/304/99
f 130/305/100 136/296/100 128/298/100
f 127/306/101 135/350/101 134/307/101
f 138/310/45 137/351/45 139/352/45
f 139/352/45 140/353/45 138/310/45
f 140/353/45 141/308/45 138/310/45
f 141/308/45 142/354/45 143/309/45
f 143/309/45 144/355/45 138/310/45
f 143/311/51 142/321/51 134/312/51
f 141/314/50 140/322/50 132/315/50
f 139/317/49 137/323/49 129/318/49
f 144/291/48 143/356/48 135/320/48
f 142/321/47 141/314/47 133/316/47
f 140/322/46 139/317/46 131/319/46
f 137/323/37 138/348/37 130/290/37
