# Blender v2.92.0 OBJ File: 'art_slug.blend'
# www.blender.org
mtllib art_slug.mtl
o art_slug_Cube
v -0.960393 1.773656 0.602890
v -0.619568 1.630031 1.047186
v -1.208936 1.020047 1.908334
v -1.275882 1.086355 2.220431
v 0.109319 1.722457 1.497598
v 0.190191 1.625124 2.189481
v 2.045013 1.494749 -0.870856
v 1.803471 0.963415 0.620150
v 0.393325 1.721825 0.821517
v 0.277800 1.729810 0.894855
v 1.467201 1.288021 0.588602
v 1.499160 1.305412 -0.652451
v 1.856099 1.111089 -1.146229
v -1.827762 0.356743 -1.306416
v -1.551795 0.313976 -1.997443
v -1.910771 0.487036 1.410627
v -1.487966 0.527311 2.176816
v -1.459533 -0.682425 1.735885
v -1.851241 -0.646360 1.409945
v 0.668868 -0.871721 1.790788
v -1.098302 -0.906967 2.119622
v -0.896909 -1.556253 1.300669
v 2.128214 -1.180960 1.151551
v 1.748577 -0.909509 -0.785596
v 0.904315 -1.422120 2.071373
v 2.039506 -1.445070 -1.028722
v -1.882682 -1.162527 0.676353
v -1.177027 -1.784534 0.579909
v 1.134766 2.116550 -0.533941
v 0.749259 1.689418 -0.272430
v 1.555624 1.141389 -1.355785
v 1.422560 1.184348 -2.057884
v -2.146631 1.264330 -1.306887
v -1.065835 0.866671 -1.716472
v -0.562412 1.371070 -2.114393
v -0.371619 2.025937 -0.831871
v 0.900938 0.805385 2.165014
v 2.073686 0.628420 1.137695
v 1.167108 -0.387290 1.639948
v 1.583169 -0.091124 1.263883
v -0.060891 -2.192627 1.557122
v 1.629068 -1.001237 0.706433
v 1.453141 -1.052357 1.179066
v 0.560656 -1.882293 1.789218
v 1.515721 -1.143040 -1.178918
v 1.457033 -1.372035 -0.748820
v 2.008512 -1.633712 -0.845181
v 0.639931 -1.713738 -0.120669
v 1.089469 -0.251246 -1.776017
v 0.508383 -0.693067 -2.141924
v 0.773504 -0.894512 -1.993398
v 1.260915 -0.950896 -1.518624
v -1.303903 -0.551581 -1.683325
v -1.756878 -0.077177 -1.287455
v -1.564322 -2.117838 -0.017851
v -1.803831 -1.373085 0.091225
v -0.948960 -2.295747 -0.610185
v -1.064957 -1.298246 -1.895412
v -1.123748 -1.028307 -1.994473
v -1.026518 1.780392 0.771559
v -1.107445 2.110441 -0.466083
v -1.904171 1.018102 -0.820681
v -1.284467 1.432698 1.727052
v -1.219193 0.999606 1.636494
v -2.113033 0.740106 1.548861
v -1.835939 1.130675 0.817997
v -1.837845 1.691421 1.149338
vt 0.256844 0.289811
vt 0.191427 0.330932
vt 0.174408 0.276447
vt 0.056804 0.144402
vt 0.031042 0.265367
vt 0.006767 0.123058
vt 0.335781 0.405984
vt 0.318320 0.402578
vt 0.311294 0.350883
vt 0.687580 0.350367
vt 0.579614 0.340585
vt 0.690539 0.302306
vt 0.479879 0.563872
vt 0.405151 0.547698
vt 0.475076 0.495714
vt 0.534470 0.405297
vt 0.458237 0.363616
vt 0.480831 0.323083
vt 0.022088 0.103018
vt 0.954015 0.664441
vt 0.935430 0.692395
vt 0.937124 0.623210
vt 0.062928 0.257273
vt 0.127938 0.171993
vt 0.163585 0.270139
vt 0.230506 0.114169
vt 0.049225 0.082942
vt 0.242445 0.006457
vt 0.840237 0.313412
vt 0.793569 0.237811
vt 0.831847 0.286533
vt 0.287990 0.048589
vt 0.389622 0.077988
vt 0.367804 0.126079
vt 0.802442 0.459277
vt 0.836874 0.418212
vt 0.912296 0.424249
vt 0.117400 0.405984
vt 0.006457 0.317601
vt 0.719380 0.267766
vt 0.555685 0.310648
vt 0.640202 0.088495
vt 0.528141 0.067683
vt 0.572064 0.006457
vt 0.364304 0.540364
vt 0.364304 0.597159
vt 0.336076 0.551443
vt 0.336076 0.447209
vt 0.383312 0.418898
vt 0.383312 0.527449
vt 0.522003 0.106932
vt 0.449080 0.107638
vt 0.416143 0.200095
vt 0.449272 0.153408
vt 0.498703 0.161740
vt 0.172338 0.745321
vt 0.110724 0.749848
vt 0.062853 0.693511
vt 0.319120 0.676050
vt 0.200515 0.581737
vt 0.323161 0.630114
vt 0.993543 0.641704
vt 0.984184 0.630923
vt 0.236145 0.446383
vt 0.262068 0.505817
vt 0.981967 0.257398
vt 0.938292 0.107255
vt 0.961970 0.085354
vt 0.917897 0.272897
vt 0.912619 0.051130
vt 0.981967 0.042761
vt 0.707005 0.521308
vt 0.652913 0.546407
vt 0.685582 0.481587
vt 0.500441 0.425572
vt 0.299296 0.144679
vt 0.366211 0.273449
vt 0.293988 0.261840
vt 0.287454 0.246755
vt 0.452449 0.667628
vt 0.683662 0.593152
vt 0.318990 0.352923
vt 0.311133 0.375303
vt 0.734736 0.739077
vt 0.719919 0.715169
vt 0.795115 0.756520
vt 0.392237 0.344694
vt 0.372451 0.336095
vt 0.589418 0.377770
vt 0.454421 0.595097
vt 0.093313 0.143082
vt 0.872670 0.702254
vt 0.734905 0.696565
vt 0.750623 0.633864
vt 0.751445 0.614024
vt 0.972631 0.654136
vt 0.059747 0.018312
vt 0.756518 0.334078
vt 0.993543 0.453235
vt 0.719919 0.580561
vt 0.185484 0.395286
vt 0.732212 0.125923
vt 0.732212 0.267380
vt 0.440223 0.097446
vt 0.416852 0.053494
vt 0.405152 0.265761
vt 0.006457 0.650349
vt 0.038969 0.580381
vt 0.238622 0.749848
vt 0.299817 0.480502
vt 0.978878 0.492257
vt 0.020890 0.476829
vt 0.184082 0.418898
vt 0.261679 0.467856
vt 0.955288 0.259955
vt 0.745126 0.185918
vt 0.782322 0.006457
vt 0.648689 0.418212
vt 0.478425 0.441090
vt 0.369152 0.295704
vt 0.707005 0.664548
vt 0.643240 0.744315
vt 0.640273 0.775627
vt 0.563569 0.755872
vt 0.405195 0.668273
vt 0.780870 0.795073
vt 0.724344 0.795073
vn -0.1138 0.9933 -0.0197
vn -0.2036 0.9322 0.2992
vn -0.9216 0.3608 -0.1431
vn -0.8542 -0.1956 0.4817
vn -0.8030 -0.3927 -0.4483
vn -0.5592 -0.7027 0.4399
vn -0.4653 0.6558 -0.5945
vn 0.8244 0.1124 -0.5548
vn 0.3913 0.9148 0.1002
vn 0.2597 0.8439 -0.4695
vn -0.6365 0.7113 -0.2982
vn 0.4137 0.8786 0.2386
vn 0.5830 -0.5086 -0.6336
vn 0.4760 0.7784 0.4093
vn 0.5680 0.1219 0.8140
vn 0.6072 -0.2838 0.7421
vn -0.3318 -0.8132 -0.4782
vn 0.7327 -0.6567 0.1786
vn 0.7214 -0.1571 0.6744
vn -0.6892 0.0727 0.7209
vn -0.6247 -0.6411 0.4458
vn 0.5231 -0.8460 0.1032
vn -0.1614 0.0233 -0.9866
vn -0.0017 -0.8775 -0.4796
vn 0.0712 -0.5295 -0.8453
vn -0.2439 0.0183 -0.9696
vn 0.6889 -0.0955 -0.7186
vn -0.7041 -0.3193 0.6342
vn -0.9170 -0.1945 -0.3484
vn -0.5988 0.7633 0.2427
vn 0.0091 0.9842 0.1768
vn -0.9901 -0.0859 -0.1109
vn 0.2981 0.9513 0.0789
vn -0.9861 -0.1589 0.0492
vn -0.2925 0.8851 0.3621
vn 0.0445 0.9983 -0.0386
vn -0.0468 0.9394 0.3396
vn 0.6929 0.7205 0.0279
vn -0.2823 0.7875 0.5479
vn -0.6134 -0.6951 0.3750
vn -0.6411 -0.0341 0.7667
vn -0.9193 -0.1658 -0.3569
vn -0.7192 -0.6196 0.3144
vn -0.5319 -0.6263 0.5699
vn -0.5723 -0.6589 0.4881
vn 0.2371 0.9501 -0.2025
vn 0.9107 0.4125 -0.0231
vn 0.8326 0.0002 -0.5539
vn 0.9463 -0.2579 -0.1951
vn 0.5749 0.0539 -0.8165
vn 0.7737 -0.1510 -0.6153
vn 0.5128 0.5700 -0.6420
vn 0.4654 0.8848 0.0244
vn 0.4872 0.0920 0.8684
vn 0.4110 0.7114 0.5700
vn 0.3671 0.9110 -0.1876
vn -0.7148 0.2439 -0.6554
vn 0.0923 0.9948 0.0434
vn -0.3953 -0.1394 -0.9079
vn -0.5383 0.5885 -0.6033
vn -0.2624 0.6798 -0.6849
vn -0.7673 0.6101 -0.1974
vn 0.8844 0.4536 -0.1098
vn 0.9985 -0.0485 0.0257
vn 0.9835 -0.1262 0.1298
vn 0.8998 -0.4361 -0.0097
vn 0.6851 0.7203 0.1085
vn 0.4077 0.8218 0.3981
vn 0.6676 0.7184 0.1954
vn 0.7556 0.6550 0.0038
vn 0.1823 -0.2381 0.9540
vn 0.4979 -0.2539 0.8292
vn -0.1099 0.1021 0.9887
vn -0.1341 -0.1455 0.9802
vn 0.8936 -0.3599 0.2682
vn -0.7725 -0.2334 0.5906
vn 0.7171 -0.1405 0.6827
vn 0.5880 0.5526 0.5907
vn -0.6854 -0.4052 0.6050
vn 0.5391 -0.3107 0.7829
vn 0.9312 -0.1551 0.3298
vn 0.1334 -0.7604 0.6356
vn -0.2967 -0.0050 0.9549
vn -0.3661 0.0378 0.9298
vn 0.1373 -0.9003 0.4130
vn 0.1959 -0.8868 0.4185
vn -0.0804 -0.9491 -0.3045
vn 0.6664 -0.7446 -0.0381
vn 0.4634 -0.8842 -0.0588
vn 0.2728 -0.8658 0.4196
vn -0.2731 -0.9586 -0.0808
vn 0.9394 0.3293 0.0955
vn 0.4067 -0.1852 0.8946
vn 0.4317 -0.6933 -0.5770
vn 0.1785 -0.9061 -0.3836
vn 0.2588 -0.8916 -0.3716
vn -0.0330 -0.8803 -0.4732
vn -0.3780 -0.5129 -0.7707
vn -0.0134 -0.3471 -0.9377
vn -0.1777 0.4899 -0.8535
vn 0.5945 -0.1184 -0.7953
vn -0.4556 -0.2248 -0.8613
vn 0.0096 -0.1948 -0.9808
vn 0.3963 0.2175 -0.8920
vn 0.5109 0.0392 -0.8587
vn -0.6357 -0.7497 0.1841
vn -0.7066 -0.1252 -0.6964
vn -0.8053 -0.4181 -0.4204
vn -0.9532 -0.2625 -0.1497
vn -0.8037 -0.5030 -0.3179
vn -0.8068 0.5907 -0.0070
vn -0.4155 0.4617 -0.7837
vn 0.2612 0.9636 0.0564
vn 0.2377 0.9353 0.2620
vn 0.5475 0.8168 0.1820
vn -0.9955 -0.0523 0.0795
vn -0.7907 -0.3624 -0.4934
vn -0.9030 -0.3171 0.2897
vn -0.9949 0.0263 -0.0971
vn -0.9990 0.0179 0.0404
vn -0.9914 -0.0768 -0.1060
vn -0.9855 -0.1583 0.0606
vn 0.0637 0.9322 0.3564
vn 0.0964 0.9267 0.3632
vn -0.1865 0.9772 0.1013
vn 0.4763 0.8753 -0.0838
vn -0.3214 0.3309 0.8872
vn -0.1761 0.9717 0.1573
vn -0.7525 -0.2415 0.6127
vn -0.7806 -0.3199 0.5370
usemtl Material
s off
f 2/1/1 5/2/1 10/3/1
f 12/4/2 8/5/2 7/6/2
f 17/7/3 4/8/3 64/9/3
f 16/10/4 18/11/4 17/12/4
f 54/13/5 15/14/5 53/15/5
f 27/16/6 28/17/6 22/18/6
f 12/4/7 7/6/7 13/19/7
f 45/20/8 52/21/8 24/22/8
f 11/23/9 30/24/9 9/25/9
f 36/26/10 31/27/10 35/28/10
f 14/29/11 34/30/11 15/31/11
f 34/32/12 33/33/12 62/34/12
f 8/35/13 38/36/13 40/37/13
f 37/38/14 38/39/14 11/23/14
f 3/40/15 17/12/15 21/41/15
f 37/42/16 40/43/16 38/44/16
f 45/45/17 26/46/17 46/47/17
f 25/48/18 44/49/18 43/50/18
f 40/43/19 39/51/19 43/52/19
f 44/53/20 25/54/20 20/55/20
f 41/56/21 22/57/21 28/58/21
f 43/59/22 48/60/22 42/61/22
f 47/62/23 46/63/23 24/22/23
f 52/64/24 46/65/24 48/60/24
f 58/66/25 50/67/25 51/68/25
f 53/69/26 34/30/26 50/67/26
f 51/68/27 49/70/27 52/71/27
f 28/72/28 56/73/28 55/74/28
f 56/73/29 53/15/29 58/75/29
f 61/76/30 66/77/30 60/78/30
f 1/79/31 9/25/31 36/26/31
f 62/80/32 54/13/32 27/81/32
f 2/1/33 1/79/33 60/78/33
f 63/82/34 64/9/34 3/83/34
f 66/84/35 65/85/35 64/86/35
f 10/3/36 9/25/36 1/79/36
f 1/79/37 2/1/37 10/3/37
f 12/4/38 11/23/38 8/5/38
f 64/9/39 65/87/39 17/7/39
f 65/87/40 16/88/40 17/7/40
f 16/10/41 19/89/41 18/11/41
f 54/13/42 14/90/42 15/14/42
f 22/18/43 21/41/43 18/11/43
f 18/11/44 19/89/44 22/18/44
f 19/89/45 27/16/45 22/18/45
f 13/19/46 31/27/46 12/4/46
f 31/27/47 29/91/47 12/4/47
f 52/21/48 49/92/48 24/22/48
f 49/92/49 32/93/49 31/94/49
f 31/94/50 13/95/50 49/92/50
f 13/95/51 24/22/51 49/92/51
f 24/22/52 26/96/52 45/20/52
f 11/23/53 12/4/53 30/24/53
f 12/4/54 29/91/54 30/24/54
f 9/25/55 10/3/55 11/23/55
f 36/26/56 30/24/56 31/27/56
f 30/24/57 29/91/57 31/27/57
f 31/27/58 32/97/58 35/28/58
f 14/29/59 33/98/59 34/30/59
f 62/34/60 61/76/60 34/32/60
f 61/76/61 36/26/61 34/32/61
f 36/26/62 35/28/62 34/32/62
f 23/99/63 24/22/63 40/37/63
f 24/22/64 13/95/64 8/35/64
f 40/37/65 24/22/65 8/35/65
f 13/95/66 7/100/66 8/35/66
f 8/5/67 11/23/67 38/39/67
f 11/23/68 10/3/68 37/38/68
f 10/3/69 5/2/69 37/38/69
f 5/2/70 6/101/70 37/38/70
f 21/41/71 20/55/71 37/42/71
f 20/55/72 39/51/72 37/42/72
f 21/41/73 37/42/73 3/40/73
f 37/42/74 6/102/74 3/40/74
f 3/40/75 4/103/75 17/12/75
f 18/11/76 21/41/76 17/12/76
f 37/42/77 39/51/77 40/43/77
f 20/55/78 25/54/78 43/52/78
f 42/104/79 23/105/79 40/43/79
f 20/55/80 43/52/80 39/51/80
f 43/52/81 42/104/81 40/43/81
f 21/41/82 22/18/82 20/55/82
f 22/18/83 41/106/83 20/55/83
f 41/106/84 44/53/84 20/55/84
f 55/107/85 57/108/85 28/58/85
f 57/108/86 48/60/86 28/58/86
f 48/60/87 41/56/87 28/58/87
f 43/59/88 44/109/88 48/60/88
f 44/109/89 41/56/89 48/60/89
f 48/60/90 47/110/90 42/61/90
f 24/22/91 23/99/91 42/111/91
f 24/22/92 42/111/92 47/62/92
f 46/63/93 26/96/93 24/22/93
f 57/108/94 58/112/94 48/60/94
f 58/112/95 51/113/95 48/60/95
f 51/113/96 52/64/96 48/60/96
f 52/64/97 45/114/97 46/65/97
f 46/65/98 47/110/98 48/60/98
f 58/66/99 59/115/99 50/67/99
f 59/115/100 53/69/100 50/67/100
f 53/69/101 15/31/101 34/30/101
f 34/30/102 35/116/102 50/67/102
f 35/116/103 32/117/103 49/70/103
f 49/70/104 50/67/104 35/116/104
f 51/68/105 50/67/105 49/70/105
f 28/72/106 27/81/106 56/73/106
f 57/118/107 55/74/107 56/73/107
f 56/73/108 54/13/108 53/15/108
f 53/15/109 59/119/109 58/75/109
f 58/75/110 57/118/110 56/73/110
f 62/34/111 66/77/111 61/76/111
f 66/77/112 67/120/112 60/78/112
f 9/25/113 30/24/113 36/26/113
f 36/26/114 61/76/114 1/79/114
f 61/76/115 60/78/115 1/79/115
f 27/81/116 19/121/116 16/122/116
f 16/122/117 65/123/117 66/124/117
f 62/80/118 33/125/118 14/90/118
f 16/122/119 66/124/119 27/81/119
f 66/124/120 62/80/120 27/81/120
f 56/73/121 27/81/121 54/13/121
f 14/90/122 54/13/122 62/80/122
f 60/78/123 67/120/123 63/82/123
f 63/82/124 2/1/124 60/78/124
f 5/2/125 2/1/125 63/82/125
f 64/9/126 4/8/126 3/83/126
f 3/83/127 6/101/127 63/82/127
f 6/101/128 5/2/128 63/82/128
f 64/86/129 63/126/129 67/127/129
f 67/127/130 66/84/130 64/86/130
