# Blender v2.92.0 OBJ File: 'doc_2.blend'
# www.blender.org
mtllib doc_2.mtl
o doc_2_Cube
v -0.700000 0.020000 1.050000
v -0.700000 -0.020000 1.050000
v -0.700000 0.020000 -1.050000
v -0.700000 -0.020000 -1.050000
v 0.700000 0.020000 1.050000
v 0.700000 -0.020000 1.050000
v 0.700000 0.020000 -1.050000
v 0.700000 -0.020000 -1.050000
vt 0.497688 0.206672
vt 0.007158 0.994816
vt 0.007158 0.206672
vt 0.778657 0.175129
vt 0.527453 0.140041
vt 0.778657 0.140041
vt 0.555839 0.915967
vt 0.602873 0.264390
vt 0.602873 0.915967
vt 0.991263 0.209810
vt 0.512459 0.992786
vt 0.512459 0.209810
vt 0.490208 0.267926
vt 0.463916 0.781755
vt 0.463916 0.267926
vt 0.745194 0.167725
vt 0.533355 0.138135
vt 0.745194 0.138135
vt 0.497688 0.994816
vt 0.527453 0.175129
vt 0.555839 0.264390
vt 0.991263 0.992786
vt 0.490208 0.781755
vt 0.533355 0.167725
vn 0.0000 1.0000 -0.0000
vn -0.0000 0.0000 -1.0000
vn 1.0000 0.0000 -0.0000
vn 0.0000 -1.0000 -0.0000
vn -1.0000 0.0000 0.0000
vn 0.0000 0.0000 1.0000
usemtl Material
s off
f 5/1/1 3/2/1 1/3/1
f 3/4/2 8/5/2 4/6/2
f 7/7/3 6/8/3 8/9/3
f 2/10/4 8/11/4 6/12/4
f 1/13/5 4/14/5 2/15/5
f 5/16/6 2/17/6 6/18/6
f 5/1/1 7/19/1 3/2/1
f 3/4/2 7/20/2 8/5/2
f 7/7/3 5/21/3 6/8/3
f 2/10/4 4/22/4 8/11/4
f 1/13/5 3/23/5 4/14/5
f 5/16/6 1/24/6 2/17/6
