# Blender v2.92.0 OBJ File: 'sardines.blend'
# www.blender.org
mtllib sardines.mtl
o Cylinder_Cylinder.002
v 0.000000 -0.400000 -1.000000
v 0.000000 0.400000 -1.000000
v 0.195090 -0.400000 -0.980785
v 0.195090 0.400000 -0.980785
v 0.382683 -0.400000 -0.923880
v 0.382683 0.400000 -0.923880
v 0.555570 -0.400000 -0.831470
v 0.555570 0.400000 -0.831470
v 0.707107 -0.400000 -0.707107
v 0.707107 0.400000 -0.707107
v 0.831470 -0.400000 -0.555570
v 0.831470 0.400000 -0.555570
v 0.923880 -0.400000 -0.382683
v 0.923880 0.400000 -0.382683
v 0.980785 -0.400000 -0.195090
v 0.980785 0.400000 -0.195090
v 1.000000 -0.400000 -0.000000
v 1.000000 0.400000 -0.000000
v 0.980785 -0.400000 0.195090
v 0.980785 0.400000 0.195090
v 0.923880 -0.400000 0.382683
v 0.923880 0.400000 0.382683
v 0.831470 -0.400000 0.555570
v 0.831470 0.400000 0.555570
v 0.707107 -0.400000 0.707107
v 0.707107 0.400000 0.707107
v 0.555570 -0.400000 0.831470
v 0.555570 0.400000 0.831470
v 0.382683 -0.400000 0.923880
v 0.382683 0.400000 0.923880
v 0.195090 -0.400000 0.980785
v 0.195090 0.400000 0.980785
v -0.000000 -0.400000 1.000000
v -0.000000 0.400000 1.000000
v -0.195091 -0.400000 0.980785
v -0.195091 0.400000 0.980785
v -0.382684 -0.400000 0.923879
v -0.382684 0.400000 0.923879
v -0.555571 -0.400000 0.831469
v -0.555571 0.400000 0.831469
v -0.707107 -0.400000 0.707106
v -0.707107 0.400000 0.707106
v -0.831470 -0.400000 0.555570
v -0.831470 0.400000 0.555570
v -0.923880 -0.400000 0.382683
v -0.923880 0.400000 0.382683
v -0.980785 -0.400000 0.195089
v -0.980785 0.400000 0.195089
v -1.000000 -0.400000 -0.000001
v -1.000000 0.400000 -0.000001
v -0.980785 -0.400000 -0.195091
v -0.980785 0.400000 -0.195091
v -0.923879 -0.400000 -0.382684
v -0.923879 0.400000 -0.382684
v -0.831469 -0.400000 -0.555571
v -0.831469 0.400000 -0.555571
v -0.707106 -0.400000 -0.707108
v -0.707106 0.400000 -0.707108
v -0.555569 -0.400000 -0.831470
v -0.555569 0.400000 -0.831470
v -0.382682 -0.400000 -0.923880
v -0.382682 0.400000 -0.923880
v -0.195089 -0.400000 -0.980786
v -0.195089 0.400000 -0.980786
vt 0.283303 0.370570
vt 0.267957 0.199673
vt 0.283303 0.199673
vt 0.267957 0.370570
vt 0.252905 0.199673
vt 0.252905 0.370570
vt 0.238727 0.199673
vt 0.238727 0.370570
vt 0.225967 0.199673
vt 0.225967 0.370570
vt 0.215115 0.199673
vt 0.214718 0.370981
vt 0.201958 0.200083
vt 0.214718 0.200083
vt 0.201958 0.370981
vt 0.187780 0.200083
vt 0.187780 0.370981
vt 0.172728 0.200083
vt 0.172728 0.370981
vt 0.157381 0.200083
vt 0.157381 0.370981
vt 0.142330 0.200083
vt 0.142330 0.370981
vt 0.128152 0.200083
vt 0.128152 0.370981
vt 0.115391 0.200083
vt 0.115084 0.370981
vt 0.102324 0.200084
vt 0.115084 0.200084
vt 0.102324 0.370981
vt 0.088146 0.200084
vt 0.088146 0.370981
vt 0.073094 0.200084
vt 0.073094 0.370981
vt 0.057748 0.200084
vt 0.057748 0.370981
vt 0.042696 0.200084
vt 0.042696 0.370981
vt 0.028518 0.200084
vt 0.028518 0.370981
vt 0.015757 0.200084
vt 0.015757 0.370981
vt 0.004906 0.200083
vt 0.446387 0.370640
vt 0.433627 0.199743
vt 0.446387 0.199743
vt 0.433627 0.370640
vt 0.419449 0.199743
vt 0.419449 0.370640
vt 0.404397 0.199743
vt 0.404397 0.370640
vt 0.389051 0.199743
vt 0.389050 0.370640
vt 0.373999 0.199743
vt 0.373999 0.370640
vt 0.359821 0.199743
vt 0.359821 0.370640
vt 0.347060 0.199743
vt 0.347060 0.370640
vt 0.336209 0.199742
vt 0.336145 0.370570
vt 0.325293 0.199673
vt 0.336145 0.199673
vt 0.325293 0.370570
vt 0.312533 0.199673
vt 0.651459 0.209613
vt 0.741148 0.283219
vt 0.667542 0.372909
vt 0.312533 0.370570
vt 0.298355 0.199673
vt 0.298355 0.370570
vt 0.620825 0.218905
vt 0.731856 0.252586
vt 0.698175 0.363617
vt 0.215115 0.370570
vt 0.115391 0.370981
vt 0.004906 0.370981
vt 0.336209 0.370640
vt 0.577852 0.299302
vt 0.577852 0.283219
vt 0.580990 0.267445
vt 0.587144 0.252586
vt 0.596080 0.239213
vt 0.607452 0.227841
vt 0.620825 0.218905
vt 0.635684 0.212750
vt 0.667542 0.209613
vt 0.683316 0.212750
vt 0.698175 0.218905
vt 0.711548 0.227841
vt 0.722920 0.239213
vt 0.731856 0.252586
vt 0.738011 0.267445
vt 0.741148 0.299302
vt 0.738011 0.315077
vt 0.731856 0.329936
vt 0.722921 0.343309
vt 0.711548 0.354681
vt 0.698175 0.363617
vt 0.683316 0.369771
vt 0.651459 0.372909
vt 0.635684 0.369771
vt 0.620825 0.363617
vt 0.607453 0.354681
vt 0.596080 0.343309
vt 0.587145 0.329936
vt 0.580990 0.315077
vt 0.587144 0.329936
vt 0.580990 0.315077
vt 0.577852 0.299303
vt 0.577852 0.283219
vt 0.580990 0.267445
vt 0.587145 0.252586
vt 0.596080 0.239213
vt 0.607453 0.227841
vt 0.635684 0.212750
vt 0.651459 0.209613
vt 0.667542 0.209613
vt 0.683316 0.212750
vt 0.698175 0.218905
vt 0.711548 0.227841
vt 0.722921 0.239213
vt 0.738011 0.267445
vt 0.741148 0.283219
vt 0.741148 0.299302
vt 0.738011 0.315077
vt 0.731856 0.329936
vt 0.722921 0.343309
vt 0.711548 0.354681
vt 0.683316 0.369771
vt 0.667542 0.372909
vt 0.651459 0.372909
vt 0.635684 0.369771
vt 0.620825 0.363617
vt 0.607453 0.354681
vt 0.596080 0.343308
vn 0.0980 0.0000 -0.9952
vn 0.2903 0.0000 -0.9569
vn 0.4714 0.0000 -0.8819
vn 0.6344 0.0000 -0.7730
vn 0.7730 0.0000 -0.6344
vn 0.8819 0.0000 -0.4714
vn 0.9569 0.0000 -0.2903
vn 0.9952 0.0000 -0.0980
vn 0.9952 0.0000 0.0980
vn 0.9569 0.0000 0.2903
vn 0.8819 0.0000 0.4714
vn 0.7730 0.0000 0.6344
vn 0.6344 0.0000 0.7730
vn 0.4714 0.0000 0.8819
vn 0.2903 0.0000 0.9569
vn 0.0980 0.0000 0.9952
vn -0.0980 0.0000 0.9952
vn -0.2903 0.0000 0.9569
vn -0.4714 0.0000 0.8819
vn -0.6344 0.0000 0.7730
vn -0.7730 0.0000 0.6344
vn -0.8819 0.0000 0.4714
vn -0.9569 0.0000 0.2903
vn -0.9952 0.0000 0.0980
vn -0.9952 0.0000 -0.0980
vn -0.9569 0.0000 -0.2903
vn -0.8819 0.0000 -0.4714
vn -0.7730 0.0000 -0.6344
vn -0.6344 0.0000 -0.7730
vn -0.4714 0.0000 -0.8819
vn 0.0000 1.0000 0.0000
vn -0.2903 0.0000 -0.9569
vn -0.0980 0.0000 -0.9952
vn 0.0000 -1.0000 0.0000
usemtl Material
s off
f 2/1/1 3/2/1 1/3/1
f 4/4/2 5/5/2 3/2/2
f 6/6/3 7/7/3 5/5/3
f 8/8/4 9/9/4 7/7/4
f 10/10/5 11/11/5 9/9/5
f 12/12/6 13/13/6 11/14/6
f 14/15/7 15/16/7 13/13/7
f 16/17/8 17/18/8 15/16/8
f 18/19/9 19/20/9 17/18/9
f 20/21/10 21/22/10 19/20/10
f 22/23/11 23/24/11 21/22/11
f 24/25/12 25/26/12 23/24/12
f 26/27/13 27/28/13 25/29/13
f 28/30/14 29/31/14 27/28/14
f 30/32/15 31/33/15 29/31/15
f 32/34/16 33/35/16 31/33/16
f 34/36/17 35/37/17 33/35/17
f 36/38/18 37/39/18 35/37/18
f 38/40/19 39/41/19 37/39/19
f 40/42/20 41/43/20 39/41/20
f 42/44/21 43/45/21 41/46/21
f 44/47/22 45/48/22 43/45/22
f 46/49/23 47/50/23 45/48/23
f 48/51/24 49/52/24 47/50/24
f 50/53/25 51/54/25 49/52/25
f 52/55/26 53/56/26 51/54/26
f 54/57/27 55/58/27 53/56/27
f 56/59/28 57/60/28 55/58/28
f 58/61/29 59/62/29 57/63/29
f 60/64/30 61/65/30 59/62/30
f 54/66/31 38/67/31 22/68/31
f 62/69/32 63/70/32 61/65/32
f 64/71/33 1/3/33 63/70/33
f 15/72/34 31/73/34 47/74/34
f 2/1/1 4/4/1 3/2/1
f 4/4/2 6/6/2 5/5/2
f 6/6/3 8/8/3 7/7/3
f 8/8/4 10/10/4 9/9/4
f 10/10/5 12/75/5 11/11/5
f 12/12/6 14/15/6 13/13/6
f 14/15/7 16/17/7 15/16/7
f 16/17/8 18/19/8 17/18/8
f 18/19/9 20/21/9 19/20/9
f 20/21/10 22/23/10 21/22/10
f 22/23/11 24/25/11 23/24/11
f 24/25/12 26/76/12 25/26/12
f 26/27/13 28/30/13 27/28/13
f 28/30/14 30/32/14 29/31/14
f 30/32/15 32/34/15 31/33/15
f 32/34/16 34/36/16 33/35/16
f 34/36/17 36/38/17 35/37/17
f 36/38/18 38/40/18 37/39/18
f 38/40/19 40/42/19 39/41/19
f 40/42/20 42/77/20 41/43/20
f 42/44/21 44/47/21 43/45/21
f 44/47/22 46/49/22 45/48/22
f 46/49/23 48/51/23 47/50/23
f 48/51/24 50/53/24 49/52/24
f 50/53/25 52/55/25 51/54/25
f 52/55/26 54/57/26 53/56/26
f 54/57/27 56/59/27 55/58/27
f 56/59/28 58/78/28 57/60/28
f 58/61/29 60/64/29 59/62/29
f 60/64/30 62/69/30 61/65/30
f 6/79/31 4/80/31 2/81/31
f 2/81/31 64/82/31 6/79/31
f 64/82/31 62/83/31 6/79/31
f 62/83/31 60/84/31 58/85/31
f 58/85/31 56/86/31 54/66/31
f 54/66/31 52/87/31 50/88/31
f 50/88/31 48/89/31 54/66/31
f 48/89/31 46/90/31 54/66/31
f 46/90/31 44/91/31 38/67/31
f 44/91/31 42/92/31 38/67/31
f 42/92/31 40/93/31 38/67/31
f 38/67/31 36/94/31 34/95/31
f 34/95/31 32/96/31 30/97/31
f 30/97/31 28/98/31 26/99/31
f 26/99/31 24/100/31 22/68/31
f 22/68/31 20/101/31 18/102/31
f 18/102/31 16/103/31 22/68/31
f 16/103/31 14/104/31 22/68/31
f 14/104/31 12/105/31 10/106/31
f 10/106/31 8/107/31 6/79/31
f 62/83/31 58/85/31 6/79/31
f 58/85/31 54/66/31 6/79/31
f 38/67/31 34/95/31 22/68/31
f 34/95/31 30/97/31 22/68/31
f 30/97/31 26/99/31 22/68/31
f 14/104/31 10/106/31 22/68/31
f 10/106/31 6/79/31 22/68/31
f 54/66/31 46/90/31 38/67/31
f 6/79/31 54/66/31 22/68/31
f 62/69/32 64/71/32 63/70/32
f 64/71/33 2/1/33 1/3/33
f 63/108/34 1/109/34 3/110/34
f 3/110/34 5/111/34 7/112/34
f 7/112/34 9/113/34 11/114/34
f 11/114/34 13/115/34 7/112/34
f 13/115/34 15/72/34 7/112/34
f 15/72/34 17/116/34 19/117/34
f 19/117/34 21/118/34 15/72/34
f 21/118/34 23/119/34 15/72/34
f 23/119/34 25/120/34 31/73/34
f 25/120/34 27/121/34 31/73/34
f 27/121/34 29/122/34 31/73/34
f 31/73/34 33/123/34 35/124/34
f 35/124/34 37/125/34 39/126/34
f 39/126/34 41/127/34 43/128/34
f 43/128/34 45/129/34 47/74/34
f 47/74/34 49/130/34 51/131/34
f 51/131/34 53/132/34 55/133/34
f 55/133/34 57/134/34 63/108/34
f 57/134/34 59/135/34 63/108/34
f 59/135/34 61/136/34 63/108/34
f 63/108/34 3/110/34 7/112/34
f 31/73/34 35/124/34 47/74/34
f 35/124/34 39/126/34 47/74/34
f 39/126/34 43/128/34 47/74/34
f 47/74/34 51/131/34 63/108/34
f 51/131/34 55/133/34 63/108/34
f 63/108/34 7/112/34 15/72/34
f 15/72/34 23/119/34 31/73/34
f 63/108/34 15/72/34 47/74/34
