# Blender v2.92.0 OBJ File: 'bag.blend'
# www.blender.org
mtllib bag.mtl
o Bag_Cube
v 0.323254 0.047487 -0.799131
v 0.500000 -0.258212 -0.780671
v 0.400000 -0.052214 0.687301
v 0.500000 -0.258212 0.751141
v -0.323254 0.047487 -0.799131
v -0.500000 -0.258212 -0.780671
v -0.400000 -0.052214 0.687301
v -0.500000 -0.258212 0.751141
v -0.500000 0.258212 -0.093925
v 0.500000 0.258212 -0.093925
v 0.000000 0.219481 -0.784116
v 0.000000 0.041819 0.795206
v 0.000000 0.258212 -0.093925
v -0.500000 0.258212 -0.484158
v 0.000000 0.258212 -0.484158
v 0.500000 0.258212 -0.484158
v 0.000000 -0.258212 0.949007
v 0.700000 -0.258212 0.300000
v 0.700000 -0.258212 -0.300001
v -0.700000 -0.258212 -0.300000
v -0.700000 -0.258212 0.300001
v 0.000000 -0.258212 -1.000000
vt 0.777093 0.829264
vt 0.917654 0.728062
vt 0.961312 0.876200
vt 0.057731 0.974506
vt 0.057731 0.668030
vt 0.258071 0.954294
vt 0.284136 0.703765
vt 0.375002 0.565980
vt 0.375002 0.765498
vt 0.865547 0.176448
vt 0.961433 0.495082
vt 0.652209 0.048013
vt 0.241633 0.068810
vt 0.281385 0.402054
vt 0.019344 0.597868
vt 0.065217 0.059351
vt 0.501275 0.986712
vt 0.599239 0.870808
vt 0.755369 0.803774
vt 0.736535 0.986356
vt 0.982728 0.471716
vt 0.763162 0.050346
vt 0.967842 0.020034
vt 0.730534 0.057569
vt 0.496715 0.473201
vt 0.516516 0.147306
vt 0.499403 0.475073
vt 0.747191 0.476800
vt 0.746583 0.675854
vt 0.498795 0.674127
vt 0.748586 0.019723
vt 0.994980 0.478527
vt 0.505037 0.688726
vt 0.731055 0.845696
vt 0.372425 0.869341
vt 0.746061 0.846924
vt 0.994372 0.677581
vt 0.235392 0.579413
vt 0.235392 0.982009
vt 0.054700 0.837601
vt 0.243862 0.091648
vt 0.243862 0.503529
vt 0.105845 0.498602
vt 0.031655 0.084073
vt 0.244074 0.567906
vt 0.244074 0.974135
vt 0.035880 0.713488
vt 0.280102 0.150789
vt 0.215069 0.497943
vt 0.044102 0.508372
vt 0.044247 0.021607
vt 0.238421 0.049804
vt 0.290872 0.587350
vt 0.018417 0.384051
vt 0.028847 0.057039
vt 0.647211 0.938651
vt 0.380019 0.937151
vt 0.385017 0.046514
vt 0.070795 0.490083
vt 0.183402 0.172620
vt 0.179832 0.808790
vt 0.861977 0.812618
vt 0.791651 0.216196
vt 0.811233 0.052312
vt 0.920479 0.063845
vt 0.033325 0.602199
vt 0.261646 0.634387
vt 0.233780 0.974213
vt 0.893577 0.866530
vt 0.956548 0.980095
vt 0.258071 0.507920
vt 0.054700 0.561182
vn 0.3347 0.6856 -0.6465
vn 0.3334 0.4230 0.8426
vn -0.7944 0.4948 0.3522
vn 0.0000 -1.0000 -0.0000
vn 0.8408 0.2696 -0.4695
vn -0.2877 0.2946 -0.9113
vn 0.3084 0.8698 0.3851
vn -0.3084 0.8698 0.3851
vn 0.0000 1.0000 0.0000
vn -0.0000 0.9716 0.2365
vn -0.3347 0.6856 -0.6465
vn -0.0000 0.9918 -0.1281
vn -0.3281 0.4309 0.8406
vn 0.9325 0.3611 0.0000
vn 0.7790 0.5421 0.3151
vn -0.9325 0.3611 0.0000
vn -0.8408 0.2696 -0.4695
vn 0.7944 0.4948 0.3522
vn -0.7790 0.5421 0.3151
vn 0.2877 0.2946 -0.9113
vn 0.3281 0.4309 0.8406
vn -0.3334 0.4230 0.8426
usemtl Material
s off
f 1/1/1 11/2/1 16/3/1
f 4/4/2 3/5/2 17/6/2
f 8/7/3 7/8/3 21/9/3
f 6/10/4 22/11/4 20/12/4
f 2/13/5 1/14/5 16/15/5 19/16/5
f 6/17/6 5/18/6 11/19/6 22/20/6
f 10/21/7 12/22/7 3/23/7
f 12/24/8 9/25/8 7/26/8
f 9/27/9 13/28/9 15/29/9 14/30/9
f 9/27/10 12/31/10 13/28/10
f 12/31/10 10/32/10 13/28/10
f 14/33/11 11/34/11 5/35/11
f 11/36/12 14/30/12 15/29/12
f 16/37/9 15/29/9 13/28/9 10/32/9
f 15/29/12 16/37/12 11/36/12
f 17/38/13 12/39/13 7/40/13
f 19/41/14 16/42/14 10/43/14 18/44/14
f 18/45/15 10/46/15 3/47/15
f 21/48/16 9/49/16 14/50/16 20/51/16
f 20/52/17 14/53/17 5/54/17 6/55/17
f 20/12/4 19/56/4 18/57/4 21/58/4
f 21/58/4 18/57/4 17/59/4
f 17/59/4 8/60/4 21/58/4
f 17/59/4 18/57/4 4/61/4
f 20/12/4 22/11/4 19/56/4
f 19/56/4 22/11/4 2/62/4
f 3/63/18 4/64/18 18/65/18
f 21/66/19 7/67/19 9/68/19
f 22/20/20 11/19/20 1/69/20 2/70/20
f 17/6/21 3/5/21 12/71/21
f 7/40/22 8/72/22 17/38/22
