# Blender v2.92.0 OBJ File: 'hedg.blend'
# www.blender.org
mtllib hedg.mtl
o Cylinder.001
v 3.372514 -3.847829 0.969409
v -2.363250 3.849682 -1.832255
v 3.662128 -3.607181 1.037666
v -2.073636 4.090330 -1.763999
v 3.782090 -3.407326 1.341168
v -1.953674 4.290185 -1.460497
v 3.662128 -3.365336 1.702129
v -2.073636 4.332175 -1.099536
v 3.372514 -3.505809 1.909102
v -2.363250 4.191703 -0.892563
v 3.082901 -3.746457 1.840845
v -2.652864 3.951055 -0.960819
v 2.962939 -3.946312 1.537343
v -2.772826 3.751199 -1.264322
v 3.082901 -3.988302 1.176382
v -2.652864 3.709210 -1.625282
v -3.591544 -3.812184 2.020613
v 2.144221 3.885328 -0.781052
v -3.301930 -3.952656 2.227586
v 2.433835 3.744855 -0.574078
v -3.181968 -3.910666 2.588547
v 2.553797 3.786845 -0.213118
v -3.301930 -3.710811 2.892049
v 2.433835 3.986700 0.090385
v -3.591544 -3.470164 2.960306
v 2.144221 4.227348 0.158641
v -3.881159 -3.329691 2.753333
v 1.854607 4.367820 -0.048332
v -4.001120 -3.371681 2.392372
v 1.734645 4.325830 -0.409293
v -3.881158 -3.571536 2.088870
v 1.854607 4.125976 -0.712795
v -0.251453 -3.710222 -4.782471
v -0.251453 4.481298 0.953294
v -0.105006 -3.507433 -5.072084
v -0.105007 4.684088 0.663680
v 0.248547 -3.423434 -5.192047
v 0.248547 4.768086 0.543718
v 0.602100 -3.507432 -5.072084
v 0.602100 4.684089 0.663680
v 0.748547 -3.710222 -4.782471
v 0.748547 4.481298 0.953294
v 0.602100 -3.913012 -4.492857
v 0.602100 4.278508 1.242908
v 0.248547 -3.997010 -4.372895
v 0.248546 4.194510 1.362870
v -0.105006 -3.913012 -4.492857
v -0.105007 4.278508 1.242908
vt 0.837996 0.003014
vt 0.742801 0.996986
vt 0.742801 0.003014
vt 0.608175 0.003014
vt 0.586840 0.996986
vt 0.491645 0.003014
vt 0.586840 0.003014
vt 0.357019 0.996986
vt 0.357019 0.003014
vt 0.335683 0.996986
vt 0.240489 0.003014
vt 0.335684 0.003014
vt 0.105862 0.996986
vt 0.105863 0.003014
vt 0.623774 0.735394
vt 0.519031 0.988266
vt 0.266160 0.883523
vt 0.010668 0.003014
vt 0.993957 0.003014
vt 0.859331 0.996986
vt 0.859331 0.003014
vt 0.887279 0.988266
vt 0.739150 0.988266
vt 0.634407 0.883523
vt 0.837996 0.996986
vt 0.742801 0.003014
vt 0.837996 0.003014
vt 0.742801 0.996986
vt 0.608175 0.003014
vt 0.586840 0.996986
vt 0.491645 0.003014
vt 0.586840 0.003014
vt 0.357019 0.996986
vt 0.357019 0.003014
vt 0.335684 0.003014
vt 0.240488 0.996986
vt 0.240489 0.003014
vt 0.105863 0.003014
vt 0.519031 0.988266
vt 0.370902 0.988266
vt 0.266160 0.883523
vt 0.105862 0.996986
vt 0.010668 0.003014
vt 0.993957 0.996986
vt 0.859331 0.003014
vt 0.993957 0.003014
vt 0.739150 0.988266
vt 0.634407 0.883523
vt 0.992022 0.735394
vt 0.837996 0.003014
vt 0.742801 0.996986
vt 0.742801 0.003014
vt 0.608175 0.996986
vt 0.608175 0.003014
vt 0.586840 0.996986
vt 0.491645 0.003014
vt 0.586840 0.003014
vt 0.357019 0.996986
vt 0.357019 0.003014
vt 0.335683 0.996986
vt 0.240489 0.003014
vt 0.335684 0.003014
vt 0.240488 0.996986
vt 0.105863 0.003014
vt 0.623774 0.735394
vt 0.519031 0.988266
vt 0.266160 0.883523
vt 0.010667 0.996986
vt 0.010668 0.003014
vt 0.993957 0.996986
vt 0.859331 0.003014
vt 0.993957 0.003014
vt 0.739150 0.630651
vt 0.992022 0.735394
vt 0.887279 0.988266
vt 0.837996 0.996986
vt 0.608175 0.996986
vt 0.491645 0.996986
vt 0.240488 0.996986
vt 0.266160 0.735394
vt 0.370902 0.630651
vt 0.519031 0.630651
vt 0.623774 0.883523
vt 0.370902 0.988266
vt 0.010667 0.996986
vt 0.993957 0.996986
vt 0.634407 0.735394
vt 0.739150 0.630651
vt 0.887279 0.630651
vt 0.992022 0.735394
vt 0.992022 0.883523
vt 0.608175 0.996986
vt 0.491645 0.996986
vt 0.335683 0.996986
vt 0.266160 0.735394
vt 0.623774 0.735394
vt 0.370902 0.630651
vt 0.519031 0.630651
vt 0.623774 0.883523
vt 0.010667 0.996986
vt 0.859331 0.996986
vt 0.634407 0.735394
vt 0.739150 0.630651
vt 0.887279 0.630651
vt 0.992022 0.883523
vt 0.887279 0.988266
vt 0.837996 0.996986
vt 0.491645 0.996986
vt 0.105862 0.996986
vt 0.266160 0.735394
vt 0.370902 0.630651
vt 0.519031 0.630651
vt 0.623774 0.883523
vt 0.370902 0.988266
vt 0.859331 0.996986
vt 0.634407 0.883523
vt 0.634407 0.735394
vt 0.887279 0.630651
vt 0.992022 0.883523
vt 0.739150 0.988266
vn 0.3135 -0.1097 -0.9432
vn 0.7568 0.3671 -0.5408
vn 0.7568 0.6288 0.1784
vn 0.3135 0.5222 0.7931
vn -0.3135 0.1097 0.9432
vn -0.7568 -0.3671 0.5408
vn -0.5736 0.7698 -0.2802
vn -0.7568 -0.6288 -0.1784
vn -0.3135 -0.5222 -0.7931
vn 0.5736 -0.7697 0.2802
vn 0.3135 -0.5222 -0.7931
vn 0.7568 -0.6288 -0.1784
vn 0.7568 -0.3671 0.5408
vn 0.3135 0.1097 0.9432
vn -0.3135 0.5222 0.7931
vn -0.7568 0.6288 0.1784
vn 0.5736 0.7698 -0.2802
vn -0.7568 0.3671 -0.5408
vn -0.3135 -0.1097 -0.9432
vn -0.5736 -0.7698 0.2802
vn -0.9239 0.2195 -0.3135
vn -0.3827 0.5299 -0.7568
vn 0.3827 0.5299 -0.7568
vn 0.9239 0.2195 -0.3135
vn 0.9239 -0.2195 0.3135
vn 0.3827 -0.5299 0.7568
vn -0.0000 0.8192 0.5736
vn -0.3827 -0.5299 0.7568
vn -0.9239 -0.2195 0.3135
vn 0.0000 -0.8192 -0.5736
vn 0.5736 -0.7698 0.2802
usemtl Material
s off
f 1/1/1 4/2/1 3/3/1
f 4/2/2 5/4/2 3/3/2
f 6/5/3 7/6/3 5/7/3
f 7/6/4 10/8/4 9/9/4
f 10/10/5 11/11/5 9/12/5
f 11/11/6 14/13/6 13/14/6
f 14/15/7 10/16/7 6/17/7
f 14/13/8 15/18/8 13/14/8
f 15/19/9 2/20/9 1/21/9
f 11/22/10 13/23/10 15/24/10
f 18/25/11 19/26/11 17/27/11
f 20/28/12 21/29/12 19/26/12
f 22/30/13 23/31/13 21/32/13
f 23/31/14 26/33/14 25/34/14
f 25/35/15 28/36/15 27/37/15
f 28/36/16 29/38/16 27/37/16
f 26/39/17 24/40/17 22/41/17
f 30/42/18 31/43/18 29/38/18
f 32/44/19 17/45/19 31/46/19
f 29/47/20 31/48/20 23/49/20
f 33/50/21 36/51/21 35/52/21
f 35/52/22 38/53/22 37/54/22
f 38/55/23 39/56/23 37/57/23
f 39/56/24 42/58/24 41/59/24
f 42/60/25 43/61/25 41/62/25
f 44/63/26 45/64/26 43/61/26
f 46/65/27 42/66/27 38/67/27
f 45/64/28 48/68/28 47/69/28
f 48/70/29 33/71/29 47/72/29
f 35/73/30 39/74/30 43/75/30
f 1/1/1 2/76/1 4/2/1
f 4/2/2 6/77/2 5/4/2
f 6/5/3 8/78/3 7/6/3
f 7/6/4 8/78/4 10/8/4
f 10/10/5 12/79/5 11/11/5
f 11/11/6 12/79/6 14/13/6
f 6/17/7 4/80/7 14/15/7
f 4/80/7 2/81/7 14/15/7
f 2/81/7 16/82/7 14/15/7
f 14/15/7 12/83/7 10/16/7
f 10/16/7 8/84/7 6/17/7
f 14/13/8 16/85/8 15/18/8
f 15/19/9 16/86/9 2/20/9
f 15/24/31 1/87/31 3/88/31
f 3/88/31 5/89/31 15/24/31
f 5/89/31 7/90/31 15/24/31
f 7/90/31 9/91/31 15/24/31
f 9/91/31 11/22/31 15/24/31
f 18/25/11 20/28/11 19/26/11
f 20/28/12 22/92/12 21/29/12
f 22/30/13 24/93/13 23/31/13
f 23/31/14 24/93/14 26/33/14
f 25/35/15 26/94/15 28/36/15
f 28/36/16 30/42/16 29/38/16
f 22/41/17 20/95/17 30/96/17
f 20/95/17 18/97/17 30/96/17
f 18/97/17 32/98/17 30/96/17
f 30/96/17 28/99/17 22/41/17
f 28/99/17 26/39/17 22/41/17
f 30/42/18 32/100/18 31/43/18
f 32/44/19 18/101/19 17/45/19
f 31/48/20 17/102/20 23/49/20
f 17/102/20 19/103/20 23/49/20
f 19/103/20 21/104/20 23/49/20
f 23/49/20 25/105/20 27/106/20
f 27/106/20 29/47/20 23/49/20
f 33/50/21 34/107/21 36/51/21
f 35/52/22 36/51/22 38/53/22
f 38/55/23 40/108/23 39/56/23
f 39/56/24 40/108/24 42/58/24
f 42/60/25 44/63/25 43/61/25
f 44/63/26 46/109/26 45/64/26
f 38/67/27 36/110/27 46/65/27
f 36/110/27 34/111/27 46/65/27
f 34/111/27 48/112/27 46/65/27
f 46/65/27 44/113/27 42/66/27
f 42/66/27 40/114/27 38/67/27
f 45/64/28 46/109/28 48/68/28
f 48/70/29 34/115/29 33/71/29
f 47/116/30 33/117/30 35/73/30
f 35/73/30 37/118/30 39/74/30
f 39/74/30 41/119/30 43/75/30
f 43/75/30 45/120/30 47/116/30
f 47/116/30 35/73/30 43/75/30
