# Blender v2.92.0 OBJ File: 'rad_sign.blend'
# www.blender.org
mtllib rad_sign.mtl
o Cube.001_Cube.002
v -1.065024 1.604905 0.129141
v 0.299330 3.479914 0.129141
v -1.065024 1.604905 0.029141
v 0.299330 3.479914 0.029141
v 1.291891 1.372183 0.129141
v 0.320584 3.477816 0.129141
v 1.291891 1.372183 0.029141
v 0.320584 3.477816 0.029141
v -0.372428 -2.673666 0.033024
v 0.074768 2.437813 0.033024
v -0.372428 -2.673666 -0.166976
v 0.074768 2.437813 -0.166976
v -0.173189 -2.691096 0.033024
v 0.274007 2.420381 0.033024
v -0.173189 -2.691096 -0.166976
v 0.274007 2.420381 -0.166976
v 0.027466 1.897149 0.033024
v 0.027466 1.897149 -0.166976
v 0.226705 1.879718 -0.166976
v 0.226705 1.879718 0.033024
v 0.037944 2.016913 0.033024
v 0.037944 2.016913 -0.166976
v 0.237183 1.999482 -0.166976
v 0.237183 1.999482 0.033024
v 0.536242 1.973318 0.021502
v 0.525764 1.853554 0.021502
v 0.536242 1.973318 0.033024
v 0.525764 1.853554 0.033024
v -0.235512 2.040837 0.021502
v -0.245990 1.921074 0.021502
v -0.245990 1.921074 0.033024
v -0.235512 2.040837 0.033024
v 0.037944 2.016913 -0.207012
v 0.027466 1.897149 -0.207012
v 0.237183 1.999482 -0.207012
v 0.226705 1.879718 -0.207012
v 0.536242 1.973318 -0.018534
v 0.525764 1.853554 -0.018534
v -0.235512 2.040837 -0.018534
v -0.245990 1.921074 -0.018534
vt 0.295068 0.796920
vt 0.058614 0.611570
vt 0.067946 0.600765
vt 0.788605 0.577262
vt 0.970801 0.883986
vt 0.609747 0.883986
vt 0.299252 0.789765
vt 0.060914 0.602789
vt 0.070246 0.591983
vt 0.991373 0.003170
vt 0.497776 0.866763
vt 0.004605 0.003169
vt 0.055131 0.609484
vt 0.320364 0.819689
vt 0.311032 0.830494
vt 0.316027 0.595451
vt 0.308712 0.579042
vt 0.319060 0.593241
vt 0.300851 0.951858
vt 0.227031 0.986998
vt 0.227031 0.951858
vt 0.213375 0.952365
vt 0.139140 0.987296
vt 0.139140 0.952365
vt 0.145609 0.950710
vt 0.071758 0.985850
vt 0.071758 0.950710
vt 0.449841 0.973174
vt 0.471914 0.962725
vt 0.471914 0.973174
vt 0.258575 0.951576
vt 0.223435 0.986716
vt 0.223435 0.951576
vt 0.178983 0.986716
vt 0.214123 0.951576
vt 0.214123 0.986716
vt 0.478195 0.973174
vt 0.717907 0.962725
vt 0.717907 0.973174
vt 0.912134 0.951647
vt 0.200862 0.982811
vt 0.200862 0.951647
vt 0.912132 0.954159
vt 0.197171 0.985138
vt 0.197171 0.954159
vt 0.909366 0.954056
vt 0.198401 0.985221
vt 0.198401 0.954056
vt 0.478195 0.962725
vt 0.613404 0.726595
vt 0.622744 0.707934
vt 0.623445 0.708320
vt 0.308237 0.581160
vt 0.326299 0.594000
vt 0.320614 0.598143
vt 0.606715 0.738771
vt 0.596832 0.755097
vt 0.594539 0.732082
vt 0.306601 0.582353
vt 0.478195 0.988857
vt 0.471914 0.988857
vt 0.594395 0.753758
vt 0.592102 0.730743
vt 0.601481 0.716590
vt 0.613175 0.697365
vt 0.614569 0.723878
vt 0.323313 0.592473
vt 0.309306 0.576691
vt 0.310942 0.575498
vt 0.601229 0.719906
vt 0.620306 0.706595
vt 0.478195 0.948384
vt 0.594193 0.729677
vt 0.584944 0.748060
vt 0.584190 0.747640
vt 0.298089 0.570243
vt 0.298381 0.548218
vt 0.307920 0.564475
vt 0.288550 0.553986
vt 0.283076 0.522135
vt 0.310195 0.590875
vt 0.609900 0.738425
vt 0.607281 0.736966
vt 0.615795 0.698824
vt 0.617189 0.725337
vt 0.587564 0.749519
vt 0.598791 0.718567
vt 0.321677 0.593666
vt 0.303621 0.580834
vt 0.285736 0.807725
vt 0.791861 0.577262
vt 0.289920 0.800570
vt 0.506503 0.866763
vt 0.064463 0.598679
vt 0.305679 0.581252
vt 0.300851 0.986998
vt 0.213375 0.987296
vt 0.145609 0.985850
vt 0.449841 0.962725
vt 0.258575 0.986716
vt 0.178983 0.951576
vt 0.912134 0.982811
vt 0.912132 0.985138
vt 0.909366 0.985221
vt 0.313922 0.577017
vt 0.597534 0.755482
vt 0.318978 0.599335
vt 0.612421 0.696945
vt 0.471914 0.948384
vt 0.273246 0.527904
vt 0.320026 0.585107
vt 0.315992 0.597809
vn -0.8086 0.5884 0.0000
vn -0.0000 0.0000 -1.0000
vn 0.9080 0.4189 0.0000
vn -0.0000 0.0000 1.0000
vn -0.0983 -0.9952 0.0000
vn 0.0983 0.9952 0.0000
vn -0.9962 0.0872 0.0000
vn 0.9962 -0.0872 0.0000
vn -0.0872 -0.9962 0.0000
vn 0.0872 0.9962 0.0000
vn 0.5297 -0.0463 -0.8469
vn -0.5639 0.0493 -0.8244
usemtl Material
s off
f 2/1/1 3/2/1 1/3/1
f 4/4/2 7/5/2 3/6/2
f 8/7/3 5/8/3 7/9/3
f 5/10/4 2/11/4 1/12/4
f 7/13/5 1/14/5 3/15/5
f 4/16/6 6/17/6 8/18/6
f 10/19/7 22/20/7 21/21/7
f 12/22/2 23/23/2 22/24/2
f 16/25/8 24/26/8 23/27/8
f 14/28/4 21/29/4 24/30/4
f 15/31/9 9/32/9 11/33/9
f 12/34/10 14/35/10 16/36/10
f 20/37/4 9/38/4 13/39/4
f 19/40/8 13/41/8 15/42/8
f 18/43/2 15/44/2 11/45/2
f 17/46/7 11/47/7 9/48/7
f 20/37/4 21/29/4 17/49/4
f 20/50/9 26/51/9 28/52/9
f 26/53/8 37/54/8 25/55/8
f 17/56/9 30/57/9 18/58/9
f 25/55/8 28/59/8 26/53/8
f 24/30/4 28/60/4 27/61/4
f 18/58/9 40/62/9 34/63/9
f 24/64/10 25/65/10 23/66/10
f 32/67/7 30/68/7 31/69/7
f 19/70/9 38/71/9 26/51/9
f 21/29/4 31/72/4 17/49/4
f 21/73/10 29/74/10 32/75/10
f 33/76/2 36/77/2 34/78/2
f 35/79/11 38/80/11 36/77/11
f 34/78/12 39/81/12 33/76/12
f 23/66/10 33/82/10 22/83/10
f 23/66/10 37/84/10 35/85/10
f 22/83/10 39/86/10 29/74/10
f 18/58/9 36/87/9 19/70/9
f 29/88/7 40/89/7 30/68/7
f 2/1/1 4/90/1 3/2/1
f 4/4/2 8/91/2 7/5/2
f 8/7/3 6/92/3 5/8/3
f 5/10/4 6/93/4 2/11/4
f 7/13/5 5/94/5 1/14/5
f 4/16/6 2/95/6 6/17/6
f 10/19/7 12/96/7 22/20/7
f 12/22/2 16/97/2 23/23/2
f 16/25/8 14/98/8 24/26/8
f 14/28/4 10/99/4 21/29/4
f 15/31/9 13/100/9 9/32/9
f 12/34/10 10/101/10 14/35/10
f 20/37/4 17/49/4 9/38/4
f 19/40/8 20/102/8 13/41/8
f 18/43/2 19/103/2 15/44/2
f 17/46/7 18/104/7 11/47/7
f 20/37/4 24/30/4 21/29/4
f 20/50/9 19/70/9 26/51/9
f 26/53/8 38/105/8 37/54/8
f 17/56/9 31/106/9 30/57/9
f 25/55/8 27/107/8 28/59/8
f 24/30/4 20/37/4 28/60/4
f 18/58/9 30/57/9 40/62/9
f 24/64/10 27/108/10 25/65/10
f 32/67/7 29/88/7 30/68/7
f 19/70/9 36/87/9 38/71/9
f 21/29/4 32/109/4 31/72/4
f 21/73/10 22/83/10 29/74/10
f 33/76/2 35/79/2 36/77/2
f 35/79/11 37/110/11 38/80/11
f 34/78/12 40/111/12 39/81/12
f 23/66/10 35/85/10 33/82/10
f 23/66/10 25/65/10 37/84/10
f 22/83/10 33/82/10 39/86/10
f 18/58/9 34/63/9 36/87/9
f 29/88/7 39/112/7 40/89/7
