# Blender v2.92.0 OBJ File: 'roadblock.blend'
# www.blender.org
mtllib roadblock.mtl
o Cube_Cube.006
v -2.500000 -1.000000 1.000000
v -2.281576 1.000000 0.532795
v -2.500000 -1.000000 -1.000000
v -2.281576 1.000000 -0.678361
v 2.500000 -1.000000 1.000000
v 2.281576 1.000000 0.532795
v 2.500000 -1.000000 -1.000000
v 2.281576 1.000000 -0.678361
v -2.281576 1.356104 0.532795
v -2.281576 1.356104 -0.678361
v 2.281576 1.356104 -0.678361
v 2.281576 1.356104 0.532795
v -2.500000 -1.192565 -1.000000
v -2.500000 -1.192565 1.000000
v 2.500000 -1.192565 -1.000000
v 2.500000 -1.192565 1.000000
vt 0.304459 0.852310
vt 0.007688 0.550532
vt 0.305940 0.553462
vt 0.994813 0.853848
vt 0.007559 0.550867
vt 0.994029 0.553967
vt 0.305480 0.551189
vt 0.009083 0.851677
vt 0.002885 0.550210
vt 0.997930 0.855304
vt 0.005621 0.544775
vt 0.998093 0.540984
vt 0.378628 0.541125
vt 0.609268 0.500133
vt 0.609268 0.541125
vt 0.005822 0.891637
vt 0.992837 0.856022
vt 0.992837 0.891637
vt 0.008240 0.991670
vt 0.993015 0.904610
vt 0.993015 0.991670
vt 0.755149 0.892849
vt 0.995928 0.858399
vt 0.995928 0.892849
vt 0.996417 0.858671
vt 0.753315 0.893662
vt 0.753315 0.858671
vt 0.996269 0.856719
vt 0.006521 0.893167
vt 0.006521 0.856718
vt 0.630874 0.902812
vt 0.352171 0.972488
vt 0.352171 0.902812
vt 0.004406 0.544149
vt 0.996862 0.499920
vt 0.997170 0.540984
vt 0.004369 0.539122
vt 0.996369 0.501072
vt 0.996369 0.539122
vt 0.644194 0.549519
vt 0.992798 0.502321
vt 0.993689 0.548109
vt 0.012290 0.851333
vt 0.006776 0.853848
vt 0.304605 0.852347
vt 0.006339 0.852278
vt 0.378628 0.500133
vt 0.005822 0.856022
vt 0.008240 0.904610
vt 0.755149 0.858399
vt 0.996417 0.893662
vt 0.996269 0.893167
vt 0.630874 0.972488
vt 0.004406 0.498689
vt 0.004369 0.501072
vt 0.644033 0.503481
vn -0.9941 0.1086 0.0000
vn 0.0000 0.1588 -0.9873
vn 0.9941 0.1086 0.0000
vn 0.0000 0.2275 0.9738
vn 1.0000 0.0000 0.0000
vn 0.0000 0.0000 -1.0000
vn 0.0000 1.0000 0.0000
vn -1.0000 0.0000 0.0000
vn 0.0000 0.0000 1.0000
vn 0.0000 -1.0000 0.0000
usemtl Material
s off
f 2/1/1 3/2/1 1/3/1
f 4/4/2 7/5/2 3/6/2
f 7/7/3 6/8/3 5/9/3
f 6/10/4 1/11/4 5/12/4
f 5/13/5 15/14/5 7/15/5
f 4/16/6 11/17/6 8/18/6
f 10/19/7 12/20/7 11/21/7
f 8/22/5 12/23/5 6/24/5
f 2/25/8 10/26/8 4/27/8
f 6/28/9 9/29/9 2/30/9
f 15/31/10 14/32/10 13/33/10
f 1/34/9 16/35/9 5/36/9
f 7/37/6 13/38/6 3/39/6
f 3/40/8 14/41/8 1/42/8
f 2/1/1 4/43/1 3/2/1
f 4/4/2 8/44/2 7/5/2
f 7/7/3 8/45/3 6/8/3
f 6/10/4 2/46/4 1/11/4
f 5/13/5 16/47/5 15/14/5
f 4/16/6 10/48/6 11/17/6
f 10/19/7 9/49/7 12/20/7
f 8/22/5 11/50/5 12/23/5
f 2/25/8 9/51/8 10/26/8
f 6/28/9 12/52/9 9/29/9
f 15/31/10 16/53/10 14/32/10
f 1/34/9 14/54/9 16/35/9
f 7/37/6 15/55/6 13/38/6
f 3/40/8 13/56/8 14/41/8
