# Blender v2.92.0 OBJ File: 'safe_3.blend'
# www.blender.org
mtllib safe_3.mtl
o Cube_Cube.002
v -1.285776 -0.514311 0.514311
v -1.285776 0.514311 0.514311
v -1.285776 -0.514311 -0.514311
v -1.285776 0.514311 -0.514311
v 1.285776 -0.514311 0.514311
v 1.285776 0.514311 0.514311
v 1.285776 -0.514311 -0.514311
v 1.285776 0.514311 -0.514311
v -1.285776 0.636341 0.000000
v 1.285776 0.636341 0.000000
vt 0.563713 0.832738
vt 0.477633 0.816223
vt 0.477633 0.677012
vt 0.994517 0.787071
vt 0.657895 0.676284
vt 0.994517 0.676284
vt 0.563713 0.832738
vt 0.477633 0.816223
vt 0.477633 0.677012
vt 0.997026 0.788256
vt 0.647699 0.676911
vt 0.997026 0.676911
vt 0.647404 0.841491
vt 0.480096 0.909279
vt 0.480096 0.841491
vt 0.994315 0.911011
vt 0.659155 0.993762
vt 0.659155 0.911011
vt 0.994315 0.828260
vt 0.659155 0.828260
vt 0.649793 0.677012
vt 0.649793 0.816223
vt 0.657895 0.787071
vt 0.649793 0.677012
vt 0.649793 0.816223
vt 0.647699 0.788256
vt 0.647404 0.909279
vt 0.994315 0.993762
vn -1.0000 0.0000 0.0000
vn 0.0000 0.0000 -1.0000
vn 1.0000 0.0000 0.0000
vn 0.0000 0.0000 1.0000
vn 0.0000 -1.0000 0.0000
vn 0.0000 0.9730 0.2309
vn 0.0000 0.9730 -0.2309
usemtl Material
s off
f 9/1/1 4/2/1 3/3/1
f 4/4/2 7/5/2 3/6/2
f 10/7/3 6/8/3 5/9/3
f 6/10/4 1/11/4 5/12/4
f 7/13/5 1/14/5 3/15/5
f 9/16/6 6/17/6 10/18/6
f 4/19/7 10/18/7 8/20/7
f 3/3/1 1/21/1 9/1/1
f 1/21/1 2/22/1 9/1/1
f 4/4/2 8/23/2 7/5/2
f 5/9/3 7/24/3 10/7/3
f 7/24/3 8/25/3 10/7/3
f 6/10/4 2/26/4 1/11/4
f 7/13/5 5/27/5 1/14/5
f 9/16/6 2/28/6 6/17/6
f 4/19/7 9/16/7 10/18/7
