# Blender v2.92.0 OBJ File: 'arm_jacket_leg.blend'
# www.blender.org
mtllib arm_jacket_leg.mtl
o arm_jacket_arm_Cube.001
v 0.500000 -1.500000 -0.500000
v 0.500000 1.500000 -0.500000
v 0.500000 -1.500000 0.500000
v 0.500000 1.500000 0.500000
v -0.500000 -1.500000 -0.500000
v -0.500000 1.500000 -0.500000
v -0.500000 -1.500000 0.500000
v -0.500000 1.500000 0.500000
vt 0.842259 0.960630
vt 0.725647 0.569869
vt 0.842144 0.569807
vt 0.757338 0.920014
vt 0.673954 0.609768
vt 0.778227 0.616955
vt 0.727463 0.947267
vt 0.847756 0.566101
vt 0.730457 0.564538
vt 0.932010 0.949865
vt 0.788133 0.562492
vt 0.932010 0.562492
vt 0.929707 0.794158
vt 0.812671 0.911194
vt 0.812671 0.794158
vt 0.913755 0.804653
vt 0.810621 0.907787
vt 0.810621 0.804653
vt 0.725763 0.960692
vt 0.653065 0.912826
vt 0.844762 0.948830
vt 0.788133 0.949865
vt 0.929707 0.911194
vt 0.913755 0.907787
vn 1.0000 0.0000 -0.0000
vn 0.0000 0.0000 1.0000
vn -1.0000 0.0000 0.0000
vn 0.0000 0.0000 -1.0000
vn 0.0000 -1.0000 0.0000
vn 0.0000 1.0000 0.0000
usemtl Material
s off
f 2/1/1 3/2/1 1/3/1
f 4/4/2 7/5/2 3/6/2
f 8/7/3 5/8/3 7/9/3
f 6/10/4 1/11/4 5/12/4
f 7/13/5 1/14/5 3/15/5
f 4/16/6 6/17/6 8/18/6
f 2/1/1 4/19/1 3/2/1
f 4/4/2 8/20/2 7/5/2
f 8/7/3 6/21/3 5/8/3
f 6/10/4 2/22/4 1/11/4
f 7/13/5 5/23/5 1/14/5
f 4/16/6 2/24/6 6/17/6
