# Blender v2.92.0 OBJ File: 'arm_cape_leg.blend'
# www.blender.org
mtllib arm_cape_leg.mtl
o arm_cape_leg_Cube.001
v 0.500000 -1.500000 -0.500000
v 0.500000 1.500000 -0.500000
v 0.500000 -1.500000 0.500000
v 0.500000 1.500000 0.500000
v -0.500000 -1.500000 -0.500000
v -0.500000 1.500000 -0.500000
v -0.500000 -1.500000 0.500000
v -0.500000 1.500000 0.500000
v -0.617650 -1.500000 0.623828
v -0.617650 1.500000 0.623828
v -0.617650 -1.500000 0.563828
v -0.617650 1.500000 0.563828
v 0.617650 -1.500000 0.623828
v 0.617650 1.500000 0.623828
v 0.617650 -1.500000 0.563828
v 0.617650 1.500000 0.563828
v 0.628728 -1.500000 0.613538
v 0.628728 1.500000 0.613538
v 0.568728 -1.500000 0.613538
v 0.568728 1.500000 0.613538
v 0.628728 -1.500000 -0.621762
v 0.628728 1.500000 -0.621762
v 0.568728 -1.500000 -0.621762
v 0.568728 1.500000 -0.621762
v 0.611839 -1.500000 -0.663091
v 0.611839 1.500000 -0.663091
v 0.611839 -1.500000 -0.603091
v 0.611839 1.500000 -0.603091
v -0.005811 -1.500000 -0.663091
v -0.005811 1.500000 -0.663091
v -0.005811 -1.500000 -0.603091
v -0.005811 1.500000 -0.603091
vt 0.716594 0.547460
vt 0.669671 0.293586
vt 0.743006 0.301442
vt 0.837416 0.578217
vt 0.754033 0.267971
vt 0.858305 0.275158
vt 0.887635 0.580984
vt 0.984460 0.274181
vt 0.890045 0.272923
vt 0.951758 0.584914
vt 0.830884 0.259474
vt 0.951758 0.259474
vt 0.373865 0.715048
vt 0.256828 0.832085
vt 0.256828 0.715048
vt 0.357913 0.725544
vt 0.254779 0.828678
vt 0.254779 0.725544
vt 0.283650 0.112842
vt 0.161380 0.235112
vt 0.161380 0.112842
vt 0.413891 0.459963
vt 0.427325 0.029178
vt 0.549423 0.074058
vt 0.283650 0.357382
vt 0.161380 0.479652
vt 0.161380 0.357382
vt 0.373161 0.379905
vt 0.126006 0.032336
vt 0.302858 0.016274
vt 0.925847 0.036511
vt 0.755328 0.207029
vt 0.755328 0.036511
vt 0.928004 0.032354
vt 0.746712 0.213646
vt 0.746712 0.032354
vt 0.283650 0.112842
vt 0.161380 0.235112
vt 0.161380 0.112842
vt 0.413891 0.459963
vt 0.427325 0.029178
vt 0.549423 0.074058
vt 0.283650 0.357382
vt 0.161380 0.479652
vt 0.161380 0.357382
vt 0.373161 0.379905
vt 0.126006 0.032336
vt 0.302858 0.016274
vt 0.925847 0.036511
vt 0.755328 0.207029
vt 0.755328 0.036511
vt 0.928004 0.032354
vt 0.746712 0.213646
vt 0.746712 0.032354
vt 0.283650 0.112842
vt 0.161380 0.235112
vt 0.161380 0.112842
vt 0.413891 0.459963
vt 0.427325 0.029178
vt 0.549423 0.074058
vt 0.283650 0.357382
vt 0.161380 0.479652
vt 0.161380 0.357382
vt 0.373161 0.379905
vt 0.126006 0.032336
vt 0.302858 0.016274
vt 0.925847 0.036511
vt 0.755328 0.207029
vt 0.755328 0.036511
vt 0.928004 0.032354
vt 0.746712 0.213646
vt 0.746712 0.032354
vt 0.643259 0.539604
vt 0.733143 0.571030
vt 0.982049 0.582242
vt 0.830884 0.584914
vt 0.373865 0.832085
vt 0.357913 0.828678
vt 0.283650 0.235112
vt 0.291792 0.415083
vt 0.283650 0.479652
vt 0.196310 0.395966
vt 0.925847 0.207029
vt 0.928004 0.213646
vt 0.283650 0.235112
vt 0.291792 0.415083
vt 0.283650 0.479652
vt 0.196310 0.395966
vt 0.925847 0.207029
vt 0.928004 0.213646
vt 0.283650 0.235112
vt 0.291792 0.415083
vt 0.283650 0.479652
vt 0.196310 0.395966
vt 0.925847 0.207029
vt 0.928004 0.213646
vn 1.0000 0.0000 -0.0000
vn 0.0000 0.0000 1.0000
vn -1.0000 0.0000 0.0000
vn 0.0000 0.0000 -1.0000
vn 0.0000 -1.0000 0.0000
vn 0.0000 1.0000 0.0000
usemtl Material
s off
f 2/1/1 3/2/1 1/3/1
f 4/4/2 7/5/2 3/6/2
f 8/7/3 5/8/3 7/9/3
f 6/10/4 1/11/4 5/12/4
f 7/13/5 1/14/5 3/15/5
f 4/16/6 6/17/6 8/18/6
f 10/19/3 11/20/3 9/21/3
f 12/22/4 15/23/4 11/24/4
f 16/25/1 13/26/1 15/27/1
f 14/28/2 9/29/2 13/30/2
f 15/31/5 9/32/5 11/33/5
f 12/34/6 14/35/6 16/36/6
f 18/37/2 19/38/2 17/39/2
f 20/40/3 23/41/3 19/42/3
f 24/43/4 21/44/4 23/45/4
f 22/46/1 17/47/1 21/48/1
f 23/49/5 17/50/5 19/51/5
f 20/52/6 22/53/6 24/54/6
f 26/55/1 27/56/1 25/57/1
f 28/58/2 31/59/2 27/60/2
f 32/61/3 29/62/3 31/63/3
f 30/64/4 25/65/4 29/66/4
f 31/67/5 25/68/5 27/69/5
f 28/70/6 30/71/6 32/72/6
f 2/1/1 4/73/1 3/2/1
f 4/4/2 8/74/2 7/5/2
f 8/7/3 6/75/3 5/8/3
f 6/10/4 2/76/4 1/11/4
f 7/13/5 5/77/5 1/14/5
f 4/16/6 2/78/6 6/17/6
f 10/19/3 12/79/3 11/20/3
f 12/22/4 16/80/4 15/23/4
f 16/25/1 14/81/1 13/26/1
f 14/28/2 10/82/2 9/29/2
f 15/31/5 13/83/5 9/32/5
f 12/34/6 10/84/6 14/35/6
f 18/37/2 20/85/2 19/38/2
f 20/40/3 24/86/3 23/41/3
f 24/43/4 22/87/4 21/44/4
f 22/46/1 18/88/1 17/47/1
f 23/49/5 21/89/5 17/50/5
f 20/52/6 18/90/6 22/53/6
f 26/55/1 28/91/1 27/56/1
f 28/58/2 32/92/2 31/59/2
f 32/61/3 30/93/3 29/62/3
f 30/64/4 26/94/4 25/65/4
f 31/67/5 29/95/5 25/68/5
f 28/70/6 26/96/6 30/71/6
