# Blender v2.92.0 OBJ File: 'arm_seva_boot.blend'
# www.blender.org
mtllib arm_seva_boot.mtl
o arm_jacket_boot_Cube.004
v -0.003987 -0.633037 1.000000
v -0.003987 0.633037 1.000000
v -0.003987 -0.633037 -1.000000
v -0.003987 0.285914 -0.695450
v 0.641956 -0.633037 1.000000
v 0.516945 0.633037 1.000000
v 0.641956 -0.633037 -1.000000
v 0.516945 0.285914 -0.695450
v 0.003987 -0.633037 1.000000
v 0.003987 0.633037 1.000000
v 0.003987 -0.633037 -1.000000
v 0.003987 0.285914 -0.695450
v -0.641956 -0.633037 1.000000
v -0.516945 0.633037 1.000000
v -0.641956 -0.633037 -1.000000
v -0.516945 0.285914 -0.695450
vt 0.662694 0.522192
vt 0.422759 0.079517
vt 0.662694 0.000000
vt 0.170098 0.059353
vt 0.107569 0.035585
vt 0.156046 0.023158
vt 0.258305 0.077382
vt 0.003664 0.009191
vt 0.253585 0.009191
vt 0.094790 0.127325
vt 0.017963 0.023606
vt 0.104843 0.029031
vt 0.330594 0.581862
vt 0.388713 0.711209
vt 0.289639 0.629740
vt 0.205643 0.079944
vt 0.105034 0.040539
vt 0.194915 0.014427
vt 0.662694 0.522192
vt 0.422759 0.079517
vt 0.332126 0.522192
vt 0.170098 0.059353
vt 0.107569 0.035585
vt 0.109467 0.065522
vt 0.003664 0.009191
vt 0.258305 0.077382
vt 0.253585 0.009191
vt 0.017963 0.023606
vt 0.094790 0.127325
vt 0.104843 0.029031
vt 0.388713 0.711209
vt 0.330594 0.581862
vt 0.289639 0.629740
vt 0.105034 0.040539
vt 0.205643 0.079944
vt 0.194915 0.014427
vt 0.332126 0.522192
vt 0.109467 0.065522
vt 0.043755 0.126342
vt 0.026648 0.115606
vt 0.420661 0.669845
vt 0.128937 0.088850
vt 0.662694 0.000000
vt 0.156046 0.023158
vt 0.043755 0.126342
vt 0.026648 0.115606
vt 0.420661 0.669845
vt 0.128937 0.088850
vn -1.0000 0.0000 0.0000
vn 0.0000 0.3146 -0.9492
vn 0.9909 0.1348 0.0000
vn 0.0000 0.0000 1.0000
vn 0.0000 -1.0000 0.0000
vn 0.0000 0.9797 -0.2006
vn 1.0000 0.0000 -0.0000
vn -0.9909 0.1348 0.0000
vn 0.9950 0.0982 -0.0201
vn -0.9950 0.0982 -0.0201
usemtl Material
s off
f 1/1/1 4/2/1 3/3/1
f 3/4/2 8/5/2 7/6/2
f 8/7/3 5/8/3 7/9/3
f 6/10/4 1/11/4 5/12/4
f 7/13/5 1/14/5 3/15/5
f 4/16/6 6/17/6 8/18/6
f 9/19/7 12/20/7 10/21/7
f 11/22/2 16/23/2 12/24/2
f 13/25/8 16/26/8 15/27/8
f 9/28/4 14/29/4 13/30/4
f 9/31/5 15/32/5 11/33/5
f 14/34/6 12/35/6 16/36/6
f 1/1/1 2/37/1 4/2/1
f 3/4/2 4/38/2 8/5/2
f 8/7/9 6/39/9 5/8/9
f 6/10/4 2/40/4 1/11/4
f 7/13/5 5/41/5 1/14/5
f 4/16/6 2/42/6 6/17/6
f 9/19/7 11/43/7 12/20/7
f 11/22/2 15/44/2 16/23/2
f 13/25/10 14/45/10 16/26/10
f 9/28/4 10/46/4 14/29/4
f 9/31/5 13/47/5 15/32/5
f 14/34/6 10/48/6 12/35/6
