# Blender v2.92.0 OBJ File: 'arm_jacket_arm.blend'
# www.blender.org
mtllib arm_jacket_arm.mtl
o arm_jacket_arm_Cube.001
v 0.500000 -1.500000 0.500000
v 0.500000 1.500000 0.500000
v -0.500000 -1.500000 0.500000
v -0.500000 1.500000 0.500000
v 0.500000 -1.500000 -0.500000
v 0.500000 1.500000 -0.500000
v -0.500000 -1.500000 -0.500000
v -0.500000 1.500000 -0.500000
vt 0.766952 0.335392
vt 0.730743 0.075451
vt 0.825372 0.098819
vt 0.891593 0.398569
vt 0.758259 0.011048
vt 0.891593 0.011048
vt 0.987890 0.340100
vt 0.815011 0.075759
vt 0.930009 0.052606
vt 0.895098 0.402340
vt 0.751221 0.014967
vt 0.895098 0.014967
vt 0.617432 0.377917
vt 0.456977 0.538372
vt 0.456977 0.377917
vt 0.603317 0.390483
vt 0.464810 0.528989
vt 0.464810 0.390483
vt 0.672323 0.312024
vt 0.758259 0.398569
vt 0.872892 0.363252
vt 0.751221 0.402340
vt 0.617432 0.538372
vt 0.603317 0.528989
vn 0.0000 0.0000 1.0000
vn -1.0000 0.0000 0.0000
vn -0.0000 0.0000 -1.0000
vn 1.0000 0.0000 -0.0000
vn 0.0000 -1.0000 0.0000
vn 0.0000 1.0000 0.0000
usemtl Material
s off
f 2/1/1 3/2/1 1/3/1
f 4/4/2 7/5/2 3/6/2
f 8/7/3 5/8/3 7/9/3
f 6/10/4 1/11/4 5/12/4
f 7/13/5 1/14/5 3/15/5
f 4/16/6 6/17/6 8/18/6
f 2/1/1 4/19/1 3/2/1
f 4/4/2 8/20/2 7/5/2
f 8/7/3 6/21/3 5/8/3
f 6/10/4 2/22/4 1/11/4
f 7/13/5 5/23/5 1/14/5
f 4/16/6 2/24/6 6/17/6
