# Blender v2.92.0 OBJ File: 'arm_kombez_arm.blend'
# www.blender.org
mtllib arm_kombez_arm.mtl
o arm_jacket_arm_Cube.001
v 0.500000 -1.500000 0.500000
v 0.500000 1.500000 0.500000
v -0.500000 -1.500000 0.500000
v -0.500000 1.500000 0.500000
v 0.500000 -1.500000 -0.500000
v 0.500000 1.500000 -0.500000
v -0.500000 -1.500000 -0.500000
v -0.500000 1.500000 -0.500000
vt 0.334114 0.728741
vt 0.741706 0.824680
vt 0.739080 0.727201
vt 0.333503 0.807906
vt 0.743789 0.920089
vt 0.743789 0.807906
vt 0.332020 0.880785
vt 0.746008 0.993609
vt 0.745579 0.880048
vt 0.770666 0.335082
vt 0.656644 0.028089
vt 0.770666 0.028089
vt 0.382270 0.811504
vt 0.292188 0.901586
vt 0.292188 0.811504
vt 0.374346 0.818558
vt 0.296586 0.896319
vt 0.296586 0.818558
vt 0.336740 0.826219
vt 0.333503 0.920089
vt 0.332449 0.994345
vt 0.656644 0.335082
vt 0.382270 0.901586
vt 0.374346 0.896319
vn 0.0000 0.0000 1.0000
vn -1.0000 0.0000 0.0000
vn -0.0000 0.0000 -1.0000
vn 1.0000 0.0000 -0.0000
vn 0.0000 -1.0000 0.0000
vn 0.0000 1.0000 0.0000
usemtl Material
s off
f 2/1/1 3/2/1 1/3/1
f 4/4/2 7/5/2 3/6/2
f 8/7/3 5/8/3 7/9/3
f 6/10/4 1/11/4 5/12/4
f 7/13/5 1/14/5 3/15/5
f 4/16/6 6/17/6 8/18/6
f 2/1/1 4/19/1 3/2/1
f 4/4/2 8/20/2 7/5/2
f 8/7/3 6/21/3 5/8/3
f 6/10/4 2/22/4 1/11/4
f 7/13/5 5/23/5 1/14/5
f 4/16/6 2/24/6 6/17/6
