# Blender v2.92.0 OBJ File: 'arm_berill_leg.blend'
# www.blender.org
mtllib arm_berill_leg.mtl
o arm_jacket_arm_Cube.001
v 0.500000 -1.500000 -0.500000
v 0.500000 1.500000 -0.500000
v 0.500000 -1.500000 0.500000
v 0.500000 1.500000 0.500000
v -0.500000 -1.500000 -0.500000
v -0.500000 1.500000 -0.500000
v -0.500000 -1.500000 0.500000
v -0.500000 1.500000 0.500000
vt 0.573983 0.221461
vt 0.443105 0.004639
vt 0.573853 0.004605
vt 0.285498 0.219480
vt 0.399872 0.007883
vt 0.282399 0.008541
vt 0.399618 0.222408
vt 0.534628 0.005662
vt 0.402979 0.004773
vt 0.493201 0.221403
vt 0.573061 0.006388
vt 0.493201 0.006388
vt 0.340168 0.157196
vt 0.283998 0.213366
vt 0.283998 0.157196
vt 0.332512 0.162234
vt 0.283015 0.211731
vt 0.283015 0.162234
vt 0.443234 0.221496
vt 0.402971 0.218822
vt 0.531267 0.223296
vt 0.573061 0.221403
vt 0.340168 0.213366
vt 0.332512 0.211731
vn 1.0000 0.0000 -0.0000
vn 0.0000 0.0000 1.0000
vn -1.0000 0.0000 0.0000
vn 0.0000 0.0000 -1.0000
vn 0.0000 -1.0000 0.0000
vn 0.0000 1.0000 0.0000
usemtl Material
s off
f 2/1/1 3/2/1 1/3/1
f 4/4/2 7/5/2 3/6/2
f 8/7/3 5/8/3 7/9/3
f 6/10/4 1/11/4 5/12/4
f 7/13/5 1/14/5 3/15/5
f 4/16/6 6/17/6 8/18/6
f 2/1/1 4/19/1 3/2/1
f 4/4/2 8/20/2 7/5/2
f 8/7/3 6/21/3 5/8/3
f 6/10/4 2/22/4 1/11/4
f 7/13/5 5/23/5 1/14/5
f 4/16/6 2/24/6 6/17/6
