# Blender v2.92.0 OBJ File: 'arm_heavy_arm.blend'
# www.blender.org
mtllib arm_heavy_arm.mtl
o arm_jacket_arm_Cube.001
v 0.500000 -1.500000 0.500000
v 0.500000 1.500000 0.500000
v -0.500000 -1.500000 0.500000
v -0.500000 1.500000 0.500000
v 0.500000 -1.500000 -0.500000
v 0.500000 1.500000 -0.500000
v -0.500000 -1.500000 -0.500000
v -0.500000 1.500000 -0.500000
v -0.569465 0.402996 0.529919
v -0.569465 1.541926 0.529919
v -0.569465 0.402996 -0.609011
v -0.569465 1.541926 -0.609011
v 0.569465 0.402996 0.529919
v 0.569465 1.541926 0.529919
v 0.569465 0.402996 -0.609011
v 0.569465 1.541926 -0.609011
vt 0.396112 0.981962
vt 0.746563 0.865145
vt 0.746563 0.981962
vt 0.396406 0.865392
vt 0.745765 0.748940
vt 0.745765 0.865393
vt 0.383179 0.996892
vt 0.737971 0.933117
vt 0.737971 0.996892
vt 0.383493 0.932900
vt 0.738285 0.869125
vt 0.738285 0.932900
vt 0.200685 0.971101
vt 0.384031 0.787755
vt 0.384031 0.971101
vt 0.189126 0.971101
vt 0.005780 0.787755
vt 0.189126 0.787755
vt 0.370649 0.841214
vt 0.504978 0.706885
vt 0.504978 0.841214
vt 0.363763 0.936478
vt 0.468392 0.831849
vt 0.468392 0.936478
vt 0.391203 0.826698
vt 0.494158 0.768007
vt 0.472026 0.848830
vt 0.368758 0.961274
vt 0.512493 0.817538
vt 0.512493 0.961274
vt 0.214598 0.567377
vt 0.005780 0.776196
vt 0.005780 0.567377
vt 0.434976 0.567377
vt 0.226158 0.776196
vt 0.226158 0.567377
vt 0.396112 0.865145
vt 0.396406 0.748939
vt 0.383179 0.933117
vt 0.383493 0.869125
vt 0.200685 0.787755
vt 0.005780 0.971101
vt 0.370649 0.706885
vt 0.363763 0.831849
vt 0.413336 0.745875
vt 0.368758 0.817538
vt 0.214598 0.776196
vt 0.434976 0.776196
vn 0.0000 0.0000 1.0000
vn -1.0000 0.0000 0.0000
vn -0.0000 0.0000 -1.0000
vn 1.0000 0.0000 -0.0000
vn 0.0000 -1.0000 0.0000
vn 0.0000 1.0000 0.0000
usemtl Material
s off
f 2/1/1 3/2/1 1/3/1
f 4/4/2 7/5/2 3/6/2
f 8/7/3 5/8/3 7/9/3
f 6/10/4 1/11/4 5/12/4
f 7/13/5 1/14/5 3/15/5
f 4/16/6 6/17/6 8/18/6
f 10/19/2 11/20/2 9/21/2
f 12/22/3 15/23/3 11/24/3
f 16/25/4 13/26/4 15/27/4
f 14/28/1 9/29/1 13/30/1
f 15/31/5 9/32/5 11/33/5
f 12/34/6 14/35/6 16/36/6
f 2/1/1 4/37/1 3/2/1
f 4/4/2 8/38/2 7/5/2
f 8/7/3 6/39/3 5/8/3
f 6/10/4 2/40/4 1/11/4
f 7/13/5 5/41/5 1/14/5
f 4/16/6 2/42/6 6/17/6
f 10/19/2 12/43/2 11/20/2
f 12/22/3 16/44/3 15/23/3
f 16/25/4 14/45/4 13/26/4
f 14/28/1 10/46/1 9/29/1
f 15/31/5 13/47/5 9/32/5
f 12/34/6 10/48/6 14/35/6
