# Blender v2.92.0 OBJ File: 'arm_zarya_arm.blend'
# www.blender.org
mtllib arm_zarya_arm.mtl
o arm_jacket_arm_Cube.001
v 0.500000 -1.500000 0.500000
v 0.500000 1.500000 0.500000
v -0.500000 -1.500000 0.500000
v -0.500000 1.500000 0.500000
v 0.500000 -1.500000 -0.500000
v 0.500000 1.500000 -0.500000
v -0.500000 -1.500000 -0.500000
v -0.500000 1.500000 -0.500000
vt 0.419448 0.995241
vt 0.750179 0.889711
vt 0.748048 0.996935
vt 0.426740 0.930163
vt 0.753885 0.831189
vt 0.753885 0.930162
vt 0.424110 0.885330
vt 0.748868 0.736736
vt 0.748531 0.886300
vt 0.377900 0.961447
vt 0.307571 0.772094
vt 0.377900 0.772094
vt 0.359144 0.833855
vt 0.273459 0.919540
vt 0.273459 0.833855
vt 0.420534 0.896955
vt 0.328860 0.988628
vt 0.328860 0.896955
vt 0.421579 0.888017
vt 0.426740 0.831189
vt 0.424446 0.735766
vt 0.307571 0.961447
vt 0.359144 0.919540
vt 0.420534 0.988628
vn 0.0000 0.0000 1.0000
vn -1.0000 0.0000 0.0000
vn -0.0000 0.0000 -1.0000
vn 1.0000 0.0000 -0.0000
vn 0.0000 -1.0000 0.0000
vn 0.0000 1.0000 0.0000
usemtl Material
s off
f 2/1/1 3/2/1 1/3/1
f 4/4/2 7/5/2 3/6/2
f 8/7/3 5/8/3 7/9/3
f 6/10/4 1/11/4 5/12/4
f 7/13/5 1/14/5 3/15/5
f 4/16/6 6/17/6 8/18/6
f 2/1/1 4/19/1 3/2/1
f 4/4/2 8/20/2 7/5/2
f 8/7/3 6/21/3 5/8/3
f 6/10/4 2/22/4 1/11/4
f 7/13/5 5/23/5 1/14/5
f 4/16/6 2/24/6 6/17/6
