# Blender v2.92.0 OBJ File: 'arm_jacket_head.blend'
# www.blender.org
mtllib arm_jacket_head.mtl
o arm_jacket_head_Cube.003
v -0.862530 -1.000000 0.758751
v -0.830345 1.000000 0.819839
v -0.862530 -1.000000 0.114163
v -0.700651 0.758751 -0.815255
v 0.007776 -1.000000 1.000000
v -0.588146 0.758751 0.578591
v -0.588146 0.654794 0.114163
v -0.588146 0.758751 0.124107
v -0.992224 -1.000000 -1.000000
v -0.992224 -1.000000 1.000000
v -0.830345 1.000000 -0.815255
v 0.007776 1.000000 -0.815255
v 0.007776 1.000000 0.819839
v -0.588146 0.654794 0.758751
v 0.862530 -1.000000 0.758751
v 0.830345 1.000000 0.819839
v 0.862530 -1.000000 0.114163
v 0.700651 0.758751 -0.815255
v -0.007776 -1.000000 1.000000
v 0.588146 0.758751 0.578591
v 0.588146 0.654794 0.114163
v 0.588146 0.758751 0.124107
v 0.992224 -1.000000 -1.000000
v 0.992224 -1.000000 1.000000
v 0.830345 1.000000 -0.815255
v -0.007776 1.000000 -0.815255
v -0.007776 1.000000 0.819839
v 0.588146 0.654794 0.758751
vt 0.593143 0.601983
vt 0.381143 0.810108
vt 0.381531 0.570979
vt 0.990312 0.312687
vt 0.937338 0.365661
vt 0.937338 0.312687
vt 0.935534 0.314022
vt 0.986405 0.364893
vt 0.935534 0.364893
vt 0.523877 0.566902
vt 0.634228 0.354429
vt 0.635458 0.566287
vt 0.986580 0.304949
vt 0.916319 0.375210
vt 0.916319 0.304949
vt 0.431928 0.568066
vt 0.545172 0.356507
vt 0.547124 0.566062
vt 0.155156 0.500000
vt 0.125000 0.750000
vt 0.125000 0.500000
vt 0.595457 0.554784
vt 0.476345 0.538445
vt 0.611796 0.538445
vt 0.476050 0.554861
vt 0.606265 0.536999
vt 0.606265 0.554861
vt 0.461907 0.556396
vt 0.618455 0.537513
vt 0.599571 0.556396
vt 0.470274 0.537855
vt 0.617866 0.555658
vt 0.470274 0.555658
vt 0.478108 0.538868
vt 0.599151 0.555471
vt 0.461505 0.555471
vt 0.593143 0.601983
vt 0.381143 0.810108
vt 0.564465 0.813208
vt 0.937338 0.365661
vt 0.990312 0.312687
vt 0.937338 0.312687
vt 0.935534 0.314022
vt 0.986405 0.364893
vt 0.986405 0.314022
vt 0.523877 0.566902
vt 0.634228 0.354429
vt 0.530029 0.359966
vt 0.916319 0.375210
vt 0.986580 0.304949
vt 0.916319 0.304949
vt 0.545172 0.356507
vt 0.431928 0.568066
vt 0.547124 0.566062
vt 0.155156 0.500000
vt 0.125000 0.750000
vt 0.155156 0.719844
vt 0.595457 0.554784
vt 0.476345 0.538445
vt 0.476345 0.554784
vt 0.606265 0.536999
vt 0.476050 0.554861
vt 0.606265 0.554861
vt 0.618455 0.537513
vt 0.461907 0.556396
vt 0.599571 0.556396
vt 0.470274 0.537855
vt 0.617866 0.555658
vt 0.600063 0.537855
vt 0.478108 0.538868
vt 0.599151 0.555471
vt 0.599151 0.538868
vt 0.564465 0.813208
vt 0.990311 0.365661
vt 0.986405 0.314022
vt 0.530029 0.359966
vt 0.986580 0.375210
vt 0.437381 0.362665
vt 0.155156 0.719844
vt 0.476345 0.554784
vt 0.458189 0.536999
vt 0.461907 0.537513
vt 0.600063 0.537855
vt 0.599151 0.538868
vt 0.381531 0.570979
vt 0.990311 0.365661
vt 0.935534 0.364893
vt 0.635458 0.566287
vt 0.986580 0.375210
vt 0.437381 0.362665
vt 0.125000 0.500000
vt 0.611796 0.538445
vt 0.458189 0.536999
vt 0.461907 0.537513
vt 0.470274 0.555658
vt 0.461505 0.555471
vn -0.9967 0.0807 0.0000
vn 0.9773 -0.1620 -0.1364
vn 1.0000 0.0000 0.0000
vn 0.0000 0.0897 0.9960
vn 0.9865 -0.1636 0.0000
vn 0.0000 1.0000 0.0000
vn 0.0000 -1.0000 0.0000
vn 0.1472 0.0792 -0.9859
vn 0.3221 -0.9459 -0.0386
vn 0.3752 -0.9269 0.0000
vn 0.1523 -0.0887 -0.9844
vn 0.9967 0.0807 0.0000
vn -0.9773 -0.1620 -0.1364
vn -1.0000 0.0000 0.0000
vn -0.9865 -0.1636 0.0000
vn -0.9819 -0.1508 -0.1143
vn -0.3221 -0.9459 -0.0386
vn -0.3752 -0.9269 0.0000
vn -0.4839 -0.7580 -0.4374
vn -0.2669 -0.0442 -0.9627
vn 0.9928 0.0114 -0.1189
vn 0.9819 -0.1508 -0.1143
vn 0.0000 0.0000 -1.0000
vn 0.4839 -0.7580 -0.4374
vn 0.2669 -0.0442 -0.9627
vn -0.9928 0.0114 -0.1189
vn -0.1472 0.0792 -0.9859
vn -0.1523 -0.0887 -0.9844
usemtl Material
s off
f 10/1/1 11/2/1 9/3/1
f 4/4/2 7/5/2 3/6/2
f 7/7/3 6/8/3 14/9/3
f 5/10/4 2/11/4 10/12/4
f 7/13/5 1/14/5 3/15/5
f 11/16/6 13/17/6 12/18/6
f 3/19/7 10/20/7 9/21/7
f 4/22/8 9/23/8 11/24/8
f 4/25/9 12/26/9 8/27/9
f 8/28/10 13/29/10 6/30/10
f 14/31/11 13/32/11 5/33/11
f 1/34/7 5/35/7 10/36/7
f 24/37/12 25/38/12 16/39/12
f 21/40/13 18/41/13 17/42/13
f 21/43/14 20/44/14 22/45/14
f 19/46/4 16/47/4 27/48/4
f 15/49/15 21/50/15 17/51/15
f 27/52/6 25/53/6 26/54/6
f 17/55/7 24/56/7 15/57/7
f 18/58/16 23/59/16 17/60/16
f 26/61/17 18/62/17 22/63/17
f 27/64/18 22/65/18 20/66/18
f 28/67/19 27/68/19 20/69/19
f 15/70/20 19/71/20 28/72/20
f 10/1/1 2/73/1 11/2/1
f 4/4/21 8/74/21 7/5/21
f 7/7/3 8/75/3 6/8/3
f 5/10/4 13/76/4 2/11/4
f 7/13/5 14/77/5 1/14/5
f 11/16/6 2/78/6 13/17/6
f 3/19/7 1/79/7 10/20/7
f 4/22/22 3/80/22 9/23/22
f 4/25/23 11/81/23 12/26/23
f 8/28/10 12/82/10 13/29/10
f 14/31/24 6/83/24 13/32/24
f 1/34/25 14/84/25 5/35/25
f 24/37/12 23/85/12 25/38/12
f 21/40/26 22/86/26 18/41/26
f 21/43/14 28/87/14 20/44/14
f 19/46/4 24/88/4 16/47/4
f 15/49/15 28/89/15 21/50/15
f 27/52/6 16/90/6 25/53/6
f 17/55/7 23/91/7 24/56/7
f 18/58/27 25/92/27 23/59/27
f 26/61/23 25/93/23 18/62/23
f 27/64/18 26/94/18 22/65/18
f 28/67/28 19/95/28 27/68/28
f 15/70/7 24/96/7 19/71/7
